ISO-10303-21;
HEADER;
/* Generated by software containing ST-Developer
 * from STEP Tools, Inc. (www.steptools.com) 
 */
/* OPTION: using custom renumber hook */

FILE_DESCRIPTION(
/* description */ ('STEP AP242 Edition 2',
'CAx-IF Rec.Pracs.---Representation and Presentation of Product Manufa
cturing Information (PMI)---4.0---2014-10-13',
'CAx-IF Rec.Pracs.---3D Tessellated Geometry---0.4---2014-09-14','2;1',
'CAx-IF Rec.Pracs.---User Defined Attributes---1.5---2016-08-15'),
/* implementation_level */ '2;1');

FILE_NAME(
/* name */ 'DeWalt DW735 planer to dust collector adapter',
/* time_stamp */ '2026-09-07T01:16:02Z',
/* author */ (''),
/* organization */ (''),
/* preprocessor_version */ 'ST-DEVELOPER v20',
/* originating_system */ 'ONSHAPE BY PTC INC, 1.220',
/* authorisation */ '  ');

FILE_SCHEMA (('AP242_MANAGED_MODEL_BASED_3D_ENGINEERING_MIM_LF { 1 0 10303 442 3 1 4 }'));
ENDSEC;

DATA;
#10=B_SPLINE_SURFACE_WITH_KNOTS('',3,3,((#659,#660,#661,#662,#663,#664,
#665,#666,#667,#668,#669,#670,#671,#672,#673,#674,#675,#676,#677),(#678,
#679,#680,#681,#682,#683,#684,#685,#686,#687,#688,#689,#690,#691,#692,#693,
#694,#695,#696),(#697,#698,#699,#700,#701,#702,#703,#704,#705,#706,#707,
#708,#709,#710,#711,#712,#713,#714,#715),(#716,#717,#718,#719,#720,#721,
#722,#723,#724,#725,#726,#727,#728,#729,#730,#731,#732,#733,#734)),
 .UNSPECIFIED.,.F.,.T.,.F.,(4,4),(1,1,1,1,1,1,1,1,1,1,1,1,1,1,1,1,1,1,1,
1,1,1,1),(0.,1.),(-1.17809724509617,-0.785398163397448,-0.392699081698725,
0.,0.392699081698724,0.785398163397448,1.17809724509617,1.5707963267949,
1.96349540849362,2.35619449019234,2.74889357189107,3.14159265358979,3.53429173528852,
3.92699081698724,4.31968989868597,4.71238898038469,5.10508806208341,5.49778714378214,
5.89048622548086,6.28318530717959,6.67588438887831,7.06858347057703,7.46128255227576),
 .UNSPECIFIED.);
#11=B_SPLINE_SURFACE_WITH_KNOTS('',3,3,((#735,#736,#737,#738,#739,#740,
#741,#742,#743,#744,#745,#746),(#747,#748,#749,#750,#751,#752,#753,#754,
#755,#756,#757,#758),(#759,#760,#761,#762,#763,#764,#765,#766,#767,#768,
#769,#770),(#771,#772,#773,#774,#775,#776,#777,#778,#779,#780,#781,#782),
(#783,#784,#785,#786,#787,#788,#789,#790,#791,#792,#793,#794),(#795,#796,
#797,#798,#799,#800,#801,#802,#803,#804,#805,#806),(#807,#808,#809,#810,
#811,#812,#813,#814,#815,#816,#817,#818),(#819,#820,#821,#822,#823,#824,
#825,#826,#827,#828,#829,#830),(#831,#832,#833,#834,#835,#836,#837,#838,
#839,#840,#841,#842),(#843,#844,#845,#846,#847,#848,#849,#850,#851,#852,
#853,#854),(#855,#856,#857,#858,#859,#860,#861,#862,#863,#864,#865,#866),
(#867,#868,#869,#870,#871,#872,#873,#874,#875,#876,#877,#878),(#879,#880,
#881,#882,#883,#884,#885,#886,#887,#888,#889,#890),(#891,#892,#893,#894,
#895,#896,#897,#898,#899,#900,#901,#902),(#903,#904,#905,#906,#907,#908,
#909,#910,#911,#912,#913,#914),(#915,#916,#917,#918,#919,#920,#921,#922,
#923,#924,#925,#926),(#927,#928,#929,#930,#931,#932,#933,#934,#935,#936,
#937,#938),(#939,#940,#941,#942,#943,#944,#945,#946,#947,#948,#949,#950),
(#951,#952,#953,#954,#955,#956,#957,#958,#959,#960,#961,#962)),
 .UNSPECIFIED.,.T.,.F.,.F.,(1,1,1,1,1,1,1,1,1,1,1,1,1,1,1,1,1,1,1,1,1,1,
1),(4,1,1,1,1,1,1,1,1,4),(-0.1875,-0.125,-0.0625,0.,0.0625,0.125,0.1875,
0.25,0.3125,0.375,0.4375,0.5,0.5625,0.625,0.6875,0.75,0.8125,0.875,0.9375,
1.,1.0625,1.125,1.1875),(0.233330405794815,0.424997804346111,0.520831503621759,
0.616665202897408,0.712498902173056,0.792360318236096,0.856249451086528,
0.904166300724352,0.944097008755872,1.),.UNSPECIFIED.);
#12=B_SPLINE_CURVE_WITH_KNOTS('',3,(#451,#452,#453,#454,#455,#456,#457,
#458,#459,#460,#461),.UNSPECIFIED.,.T.,.F.,(1,1,1,1,1,1,1,1,1,1,1,1,1,1,
1),(-0.00750640158035503,-0.00500426772023669,-0.00250213386011834,0.,0.00250213386011834,
0.00500426772023669,0.00750640158035503,0.0100085354404734,0.0125106693005917,
0.0150128031607101,0.0175149370208284,0.0200170708809468,0.0225192047410651,
0.0250213386011834,0.0275234724613018),.UNSPECIFIED.);
#13=B_SPLINE_CURVE_WITH_KNOTS('',3,(#463,#464,#465,#466,#467,#468,#469,
#470),.UNSPECIFIED.,.F.,.F.,(4,1,1,1,1,4),(0.,0.00214005462296284,0.00428010924592569,
0.00856021849185137,0.0128403277377771,0.0171204369837027),
 .UNSPECIFIED.);
#14=B_SPLINE_CURVE_WITH_KNOTS('',3,(#476,#477,#478,#479,#480),
 .UNSPECIFIED.,.F.,.F.,(4,1,4),(0.,0.00439506047125399,0.00879012094250799),
 .UNSPECIFIED.);
#15=B_SPLINE_CURVE_WITH_KNOTS('',3,(#484,#485,#486,#487,#488,#489,#490),
 .UNSPECIFIED.,.F.,.F.,(4,1,1,1,4),(0.,0.00250251285946302,0.00500502571892604,
0.00750753857838906,0.0100100514378521),.UNSPECIFIED.);
#16=B_SPLINE_CURVE_WITH_KNOTS('',3,(#498,#499,#500,#501,#502,#503,#504,
#505),.UNSPECIFIED.,.F.,.F.,(4,1,1,1,1,4),(0.,0.00214523978154102,0.00429047956308203,
0.00858095912616406,0.0128714386892461,0.0171619182523281),
 .UNSPECIFIED.);
#17=B_SPLINE_CURVE_WITH_KNOTS('',3,(#509,#510,#511,#512,#513,#514,#515),
 .UNSPECIFIED.,.F.,.F.,(4,1,1,1,4),(0.,0.00250284468951096,0.00500568937902191,
0.00750853406853287,0.0100113787580438),.UNSPECIFIED.);
#18=B_SPLINE_CURVE_WITH_KNOTS('',3,(#519,#520,#521,#522,#523),
 .UNSPECIFIED.,.F.,.F.,(4,1,4),(0.,0.00439882433265358,0.00879764866530717),
 .UNSPECIFIED.);
#19=B_SPLINE_CURVE_WITH_KNOTS('',3,(#526,#527,#528,#529,#530,#531,#532,
#533,#534,#535,#536),.UNSPECIFIED.,.T.,.F.,(1,1,1,1,1,1,1,1,1,1,1,1,1,1,
1),(-0.00750707042405929,-0.00500471361603953,-0.00250235680801977,0.,0.00250235680801976,
0.00500471361603953,0.00750707042405929,0.0100094272320791,0.0125117840400988,
0.0150141408481186,0.0175164976561384,0.0200188544641581,0.0225212112721779,
0.0250235680801976,0.0275259248882174),.UNSPECIFIED.);
#20=B_SPLINE_CURVE_WITH_KNOTS('',3,(#555,#556,#557,#558,#559,#560,#561,
#562,#563,#564,#565,#566,#567,#568,#569,#570,#571,#572,#573,#574,#575,#576,
#577,#578,#579,#580,#581,#582,#583,#584,#585,#586,#587,#588,#589,#590,#591,
#592,#593,#594,#595,#596,#597,#598,#599,#600,#601,#602,#603,#604,#605,#606,
#607,#608,#609),.UNSPECIFIED.,.T.,.F.,(1,1,1,1,1,1,1,1,1,1,1,1,1,1,1,1,
1,1,1,1,1,1,1,1,1,1,1,1,1,1,1,1,1,1,1,1,1,1,1,1,1,1,1,1,1,1,1,1,1,1,1,1,
1,1,1,1,1,1,1),(-0.0103031627742323,-0.0068687751828215,-0.00343438759141074,
0.,0.00343438759141075,0.0068687751828215,0.0103031627742323,0.013737550365643,
0.0206063255484645,0.027475100731286,0.0343438759141075,0.0377782635055183,
0.041212651096929,0.0446470386883398,0.0480814262797505,0.0515158138711613,
0.054950201462572,0.0618189766453935,0.068687751828215,0.0721221394196258,
0.0755565270110365,0.0789909146024473,0.082425302193858,0.0858596897852688,
0.0892940773766795,0.0927284649680903,0.096162852559501,0.103031627742323,
0.109900402925144,0.116769178107966,0.120203565699376,0.123637953290787,
0.127072340882198,0.130506728473609,0.133941116065019,0.13737550365643,
0.144244278839252,0.151113054022073,0.157981829204895,0.161416216796305,
0.164850604387716,0.168284991979127,0.171719379570538,0.175153767161948,
0.178588154753359,0.18202254234477,0.185456929936181,0.192325705119002,
0.195760092710413,0.199194480301824,0.202628867893234,0.206063255484645,
0.209497643076056,0.212932030667467,0.216366418258877,0.219800805850288,
0.223235193441699,0.22666958103311,0.23010396862452),.UNSPECIFIED.);
#21=B_SPLINE_CURVE_WITH_KNOTS('',3,(#614,#615,#616,#617,#618,#619,#620,
#621,#622,#623,#624,#625,#626,#627,#628,#629,#630,#631,#632,#633,#634,#635,
#636,#637,#638,#639,#640,#641,#642,#643,#644,#645,#646,#647,#648,#649,#650,
#651,#652,#653,#654,#655,#656,#657),.UNSPECIFIED.,.T.,.F.,(1,1,1,1,1,1,
1,1,1,1,1,1,1,1,1,1,1,1,1,1,1,1,1,1,1,1,1,1,1,1,1,1,1,1,1,1,1,1,1,1,1,1,
1,1,1,1,1,1),(-0.00659377006293241,-0.00439584670862161,-0.00219792335431082,
0.,0.00439584670862162,0.00879169341724323,0.0131875401258648,0.0175833868344865,
0.0219792335431081,0.0241771568974189,0.0263750802517297,0.0285730036060405,
0.0307709269603513,0.0351667736689729,0.0395626203775945,0.0439584670862162,
0.0483543137948378,0.0527501605034594,0.0549480838577702,0.057146007212081,
0.0593439305663918,0.0615418539207026,0.0659377006293242,0.0703335473379458,
0.0747293940465675,0.0791252407551891,0.0813231641094999,0.0835210874638107,
0.0857190108181215,0.0879169341724323,0.0923127808810539,0.0967086275896755,
0.101104474298297,0.103302397652608,0.105500321006919,0.10989616771554,
0.114292014424162,0.118687861132784,0.123083707841405,0.127479554550027,
0.131875401258648,0.134073324612959,0.13627124796727,0.138469171321581,
0.140667094675892,0.145062941384513,0.149458788093135,0.153854634801757),
 .UNSPECIFIED.);
#22=LINE('',#445,#34);
#23=LINE('',#449,#35);
#24=LINE('',#473,#36);
#25=LINE('',#474,#37);
#26=LINE('',#496,#38);
#27=LINE('',#525,#39);
#28=LINE('',#542,#40);
#29=LINE('',#543,#41);
#30=LINE('',#545,#42);
#31=LINE('',#547,#43);
#32=LINE('',#549,#44);
#33=LINE('',#551,#45);
#34=VECTOR('',#375,1.);
#35=VECTOR('',#378,1.);
#36=VECTOR('',#381,1.);
#37=VECTOR('',#382,1.);
#38=VECTOR('',#391,1.);
#39=VECTOR('',#396,1.);
#40=VECTOR('',#403,1.);
#41=VECTOR('',#404,1.);
#42=VECTOR('',#407,1.);
#43=VECTOR('',#410,1.);
#44=VECTOR('',#413,1.);
#45=VECTOR('',#416,1.);
#46=SHAPE_REPRESENTATION_RELATIONSHIP('','',#317,#48);
#47=SHAPE_REPRESENTATION_RELATIONSHIP('','',#318,#49);
#48=ADVANCED_BREP_SHAPE_REPRESENTATION('',(#313),#965);
#49=ADVANCED_BREP_SHAPE_REPRESENTATION('',(#314),#966);
#50=PLANE('',#323);
#51=PLANE('',#325);
#52=PLANE('',#329);
#53=PLANE('',#342);
#54=PLANE('',#344);
#55=PLANE('',#346);
#56=PLANE('',#347);
#57=PLANE('',#348);
#58=PLANE('',#349);
#59=ORIENTED_EDGE('',*,*,#129,.T.);
#60=ORIENTED_EDGE('',*,*,#130,.F.);
#61=ORIENTED_EDGE('',*,*,#131,.T.);
#62=ORIENTED_EDGE('',*,*,#129,.F.);
#63=ORIENTED_EDGE('',*,*,#132,.F.);
#64=ORIENTED_EDGE('',*,*,#130,.T.);
#65=ORIENTED_EDGE('',*,*,#131,.F.);
#66=ORIENTED_EDGE('',*,*,#132,.T.);
#67=ORIENTED_EDGE('',*,*,#133,.F.);
#68=ORIENTED_EDGE('',*,*,#134,.T.);
#69=ORIENTED_EDGE('',*,*,#135,.T.);
#70=ORIENTED_EDGE('',*,*,#136,.F.);
#71=ORIENTED_EDGE('',*,*,#137,.T.);
#72=ORIENTED_EDGE('',*,*,#138,.F.);
#73=ORIENTED_EDGE('',*,*,#139,.T.);
#74=ORIENTED_EDGE('',*,*,#135,.F.);
#75=ORIENTED_EDGE('',*,*,#140,.T.);
#76=ORIENTED_EDGE('',*,*,#141,.T.);
#77=ORIENTED_EDGE('',*,*,#142,.T.);
#78=ORIENTED_EDGE('',*,*,#143,.F.);
#79=ORIENTED_EDGE('',*,*,#144,.F.);
#80=ORIENTED_EDGE('',*,*,#145,.F.);
#81=ORIENTED_EDGE('',*,*,#146,.F.);
#82=ORIENTED_EDGE('',*,*,#147,.T.);
#83=ORIENTED_EDGE('',*,*,#148,.T.);
#84=ORIENTED_EDGE('',*,*,#149,.T.);
#85=ORIENTED_EDGE('',*,*,#150,.F.);
#86=ORIENTED_EDGE('',*,*,#151,.F.);
#87=ORIENTED_EDGE('',*,*,#152,.F.);
#88=ORIENTED_EDGE('',*,*,#133,.T.);
#89=ORIENTED_EDGE('',*,*,#153,.F.);
#90=ORIENTED_EDGE('',*,*,#154,.F.);
#91=ORIENTED_EDGE('',*,*,#153,.T.);
#92=ORIENTED_EDGE('',*,*,#137,.F.);
#93=ORIENTED_EDGE('',*,*,#155,.F.);
#94=ORIENTED_EDGE('',*,*,#151,.T.);
#95=ORIENTED_EDGE('',*,*,#156,.T.);
#96=ORIENTED_EDGE('',*,*,#141,.F.);
#97=ORIENTED_EDGE('',*,*,#156,.F.);
#98=ORIENTED_EDGE('',*,*,#150,.T.);
#99=ORIENTED_EDGE('',*,*,#157,.T.);
#100=ORIENTED_EDGE('',*,*,#142,.F.);
#101=ORIENTED_EDGE('',*,*,#143,.T.);
#102=ORIENTED_EDGE('',*,*,#157,.F.);
#103=ORIENTED_EDGE('',*,*,#149,.F.);
#104=ORIENTED_EDGE('',*,*,#158,.T.);
#105=ORIENTED_EDGE('',*,*,#144,.T.);
#106=ORIENTED_EDGE('',*,*,#158,.F.);
#107=ORIENTED_EDGE('',*,*,#148,.F.);
#108=ORIENTED_EDGE('',*,*,#159,.T.);
#109=ORIENTED_EDGE('',*,*,#138,.T.);
#110=ORIENTED_EDGE('',*,*,#159,.F.);
#111=ORIENTED_EDGE('',*,*,#147,.F.);
#112=ORIENTED_EDGE('',*,*,#160,.T.);
#113=ORIENTED_EDGE('',*,*,#160,.F.);
#114=ORIENTED_EDGE('',*,*,#146,.T.);
#115=ORIENTED_EDGE('',*,*,#136,.T.);
#116=ORIENTED_EDGE('',*,*,#139,.F.);
#117=ORIENTED_EDGE('',*,*,#134,.F.);
#118=ORIENTED_EDGE('',*,*,#152,.T.);
#119=ORIENTED_EDGE('',*,*,#155,.T.);
#120=ORIENTED_EDGE('',*,*,#140,.F.);
#121=ORIENTED_EDGE('',*,*,#161,.T.);
#122=ORIENTED_EDGE('',*,*,#154,.T.);
#123=ORIENTED_EDGE('',*,*,#162,.T.);
#124=ORIENTED_EDGE('',*,*,#163,.F.);
#125=ORIENTED_EDGE('',*,*,#162,.F.);
#126=ORIENTED_EDGE('',*,*,#145,.T.);
#127=ORIENTED_EDGE('',*,*,#163,.T.);
#128=ORIENTED_EDGE('',*,*,#161,.F.);
#129=EDGE_CURVE('',#164,#164,#191,.T.);
#130=EDGE_CURVE('',#165,#165,#192,.T.);
#131=EDGE_CURVE('',#166,#166,#193,.T.);
#132=EDGE_CURVE('',#167,#167,#194,.T.);
#133=EDGE_CURVE('',#168,#169,#195,.T.);
#134=EDGE_CURVE('',#168,#170,#22,.T.);
#135=EDGE_CURVE('',#170,#171,#196,.T.);
#136=EDGE_CURVE('',#169,#171,#23,.T.);
#137=EDGE_CURVE('',#172,#172,#12,.T.);
#138=EDGE_CURVE('',#173,#174,#13,.T.);
#139=EDGE_CURVE('',#173,#171,#24,.F.);
#140=EDGE_CURVE('',#170,#175,#25,.T.);
#141=EDGE_CURVE('',#175,#176,#14,.T.);
#142=EDGE_CURVE('',#176,#177,#197,.T.);
#143=EDGE_CURVE('',#178,#177,#15,.T.);
#144=EDGE_CURVE('',#174,#178,#198,.T.);
#145=EDGE_CURVE('',#179,#179,#199,.F.);
#146=EDGE_CURVE('',#180,#169,#26,.F.);
#147=EDGE_CURVE('',#180,#181,#16,.T.);
#148=EDGE_CURVE('',#181,#182,#200,.T.);
#149=EDGE_CURVE('',#182,#183,#17,.T.);
#150=EDGE_CURVE('',#184,#183,#201,.T.);
#151=EDGE_CURVE('',#185,#184,#18,.T.);
#152=EDGE_CURVE('',#168,#185,#27,.T.);
#153=EDGE_CURVE('',#186,#186,#19,.T.);
#154=EDGE_CURVE('',#187,#187,#202,.T.);
#155=EDGE_CURVE('',#185,#175,#28,.T.);
#156=EDGE_CURVE('',#184,#176,#29,.T.);
#157=EDGE_CURVE('',#183,#177,#30,.T.);
#158=EDGE_CURVE('',#182,#178,#31,.T.);
#159=EDGE_CURVE('',#181,#174,#32,.T.);
#160=EDGE_CURVE('',#180,#173,#33,.T.);
#161=EDGE_CURVE('',#188,#188,#20,.T.);
#162=EDGE_CURVE('',#189,#189,#203,.F.);
#163=EDGE_CURVE('',#190,#190,#21,.T.);
#164=VERTEX_POINT('',#430);
#165=VERTEX_POINT('',#432);
#166=VERTEX_POINT('',#435);
#167=VERTEX_POINT('',#438);
#168=VERTEX_POINT('',#443);
#169=VERTEX_POINT('',#444);
#170=VERTEX_POINT('',#446);
#171=VERTEX_POINT('',#448);
#172=VERTEX_POINT('',#462);
#173=VERTEX_POINT('',#471);
#174=VERTEX_POINT('',#472);
#175=VERTEX_POINT('',#475);
#176=VERTEX_POINT('',#481);
#177=VERTEX_POINT('',#483);
#178=VERTEX_POINT('',#491);
#179=VERTEX_POINT('',#494);
#180=VERTEX_POINT('',#497);
#181=VERTEX_POINT('',#506);
#182=VERTEX_POINT('',#508);
#183=VERTEX_POINT('',#516);
#184=VERTEX_POINT('',#518);
#185=VERTEX_POINT('',#524);
#186=VERTEX_POINT('',#537);
#187=VERTEX_POINT('',#539);
#188=VERTEX_POINT('',#610);
#189=VERTEX_POINT('',#613);
#190=VERTEX_POINT('',#658);
#191=CIRCLE('',#321,0.0255);
#192=CIRCLE('',#322,0.0255);
#193=CIRCLE('',#324,0.0225);
#194=CIRCLE('',#326,0.0225);
#195=CIRCLE('',#330,0.03525);
#196=CIRCLE('',#331,0.03825);
#197=CIRCLE('',#333,0.03825);
#198=CIRCLE('',#334,0.03825);
#199=CIRCLE('',#335,0.03825);
#200=CIRCLE('',#337,0.03525);
#201=CIRCLE('',#338,0.03525);
#202=CIRCLE('',#339,0.03525);
#203=CIRCLE('',#350,0.0255);
#204=EDGE_LOOP('',(#59));
#205=EDGE_LOOP('',(#60));
#206=EDGE_LOOP('',(#61));
#207=EDGE_LOOP('',(#62));
#208=EDGE_LOOP('',(#63));
#209=EDGE_LOOP('',(#64));
#210=EDGE_LOOP('',(#65));
#211=EDGE_LOOP('',(#66));
#212=EDGE_LOOP('',(#67,#68,#69,#70));
#213=EDGE_LOOP('',(#71));
#214=EDGE_LOOP('',(#72,#73,#74,#75,#76,#77,#78,#79));
#215=EDGE_LOOP('',(#80));
#216=EDGE_LOOP('',(#81,#82,#83,#84,#85,#86,#87,#88));
#217=EDGE_LOOP('',(#89));
#218=EDGE_LOOP('',(#90));
#219=EDGE_LOOP('',(#91));
#220=EDGE_LOOP('',(#92));
#221=EDGE_LOOP('',(#93,#94,#95,#96));
#222=EDGE_LOOP('',(#97,#98,#99,#100));
#223=EDGE_LOOP('',(#101,#102,#103,#104));
#224=EDGE_LOOP('',(#105,#106,#107,#108));
#225=EDGE_LOOP('',(#109,#110,#111,#112));
#226=EDGE_LOOP('',(#113,#114,#115,#116));
#227=EDGE_LOOP('',(#117,#118,#119,#120));
#228=EDGE_LOOP('',(#121));
#229=EDGE_LOOP('',(#122));
#230=EDGE_LOOP('',(#123));
#231=EDGE_LOOP('',(#124));
#232=EDGE_LOOP('',(#125));
#233=EDGE_LOOP('',(#126));
#234=EDGE_LOOP('',(#127));
#235=EDGE_LOOP('',(#128));
#236=FACE_BOUND('',#204,.T.);
#237=FACE_BOUND('',#205,.T.);
#238=FACE_BOUND('',#206,.T.);
#239=FACE_BOUND('',#207,.T.);
#240=FACE_BOUND('',#208,.T.);
#241=FACE_BOUND('',#209,.T.);
#242=FACE_BOUND('',#210,.T.);
#243=FACE_BOUND('',#211,.T.);
#244=FACE_BOUND('',#212,.T.);
#245=FACE_BOUND('',#213,.T.);
#246=FACE_BOUND('',#214,.T.);
#247=FACE_BOUND('',#215,.T.);
#248=FACE_BOUND('',#216,.T.);
#249=FACE_BOUND('',#217,.T.);
#250=FACE_BOUND('',#218,.T.);
#251=FACE_BOUND('',#219,.T.);
#252=FACE_BOUND('',#220,.T.);
#253=FACE_BOUND('',#221,.T.);
#254=FACE_BOUND('',#222,.T.);
#255=FACE_BOUND('',#223,.T.);
#256=FACE_BOUND('',#224,.T.);
#257=FACE_BOUND('',#225,.T.);
#258=FACE_BOUND('',#226,.T.);
#259=FACE_BOUND('',#227,.T.);
#260=FACE_BOUND('',#228,.T.);
#261=FACE_BOUND('',#229,.T.);
#262=FACE_BOUND('',#230,.T.);
#263=FACE_BOUND('',#231,.T.);
#264=FACE_BOUND('',#232,.T.);
#265=FACE_BOUND('',#233,.T.);
#266=FACE_BOUND('',#234,.T.);
#267=FACE_BOUND('',#235,.T.);
#268=CYLINDRICAL_SURFACE('',#320,0.0255);
#269=CYLINDRICAL_SURFACE('',#327,0.0225);
#270=CYLINDRICAL_SURFACE('',#332,0.03825);
#271=CYLINDRICAL_SURFACE('',#336,0.03525);
#272=CYLINDRICAL_SURFACE('',#340,0.0032);
#273=CYLINDRICAL_SURFACE('',#341,0.00560044676096252);
#274=CYLINDRICAL_SURFACE('',#343,0.0032);
#275=CYLINDRICAL_SURFACE('',#345,0.0112);
#276=ADVANCED_FACE('',(#236,#237),#268,.T.);
#277=ADVANCED_FACE('',(#238,#239),#50,.F.);
#278=ADVANCED_FACE('',(#240,#241),#51,.T.);
#279=ADVANCED_FACE('',(#242,#243),#269,.F.);
#280=ADVANCED_FACE('',(#244),#52,.T.);
#281=ADVANCED_FACE('',(#245,#246,#247),#270,.T.);
#282=ADVANCED_FACE('',(#248,#249,#250),#271,.F.);
#283=ADVANCED_FACE('',(#251,#252),#272,.F.);
#284=ADVANCED_FACE('',(#253),#273,.T.);
#285=ADVANCED_FACE('',(#254),#53,.F.);
#286=ADVANCED_FACE('',(#255),#274,.F.);
#287=ADVANCED_FACE('',(#256),#54,.T.);
#288=ADVANCED_FACE('',(#257),#275,.F.);
#289=ADVANCED_FACE('',(#258),#55,.F.);
#290=ADVANCED_FACE('',(#259),#56,.F.);
#291=ADVANCED_FACE('',(#260,#261),#57,.T.);
#292=ADVANCED_FACE('',(#262,#263),#58,.F.);
#293=ADVANCED_FACE('',(#264,#265),#10,.T.);
#294=ADVANCED_FACE('',(#266,#267),#11,.F.);
#295=CLOSED_SHELL('',(#276,#277,#278,#279));
#296=CLOSED_SHELL('',(#280,#281,#282,#283,#284,#285,#286,#287,#288,#289,
#290,#291,#292,#293,#294));
#297=STYLED_ITEM('',(#299),#313);
#298=STYLED_ITEM('',(#300),#314);
#299=PRESENTATION_STYLE_ASSIGNMENT((#301));
#300=PRESENTATION_STYLE_ASSIGNMENT((#302));
#301=SURFACE_STYLE_USAGE(.BOTH.,#303);
#302=SURFACE_STYLE_USAGE(.BOTH.,#304);
#303=SURFACE_SIDE_STYLE('',(#305));
#304=SURFACE_SIDE_STYLE('',(#306));
#305=SURFACE_STYLE_FILL_AREA(#307);
#306=SURFACE_STYLE_FILL_AREA(#308);
#307=FILL_AREA_STYLE('',(#309));
#308=FILL_AREA_STYLE('',(#310));
#309=FILL_AREA_STYLE_COLOUR('',#311);
#310=FILL_AREA_STYLE_COLOUR('',#312);
#311=COLOUR_RGB('',0.647058823529412,0.647058823529412,0.647058823529412);
#312=COLOUR_RGB('',0.615686274509804,0.811764705882353,0.929411764705882);
#313=MANIFOLD_SOLID_BREP('Dust collector',#295);
#314=MANIFOLD_SOLID_BREP('DeWalt',#296);
#315=SHAPE_DEFINITION_REPRESENTATION(#975,#317);
#316=SHAPE_DEFINITION_REPRESENTATION(#976,#318);
#317=SHAPE_REPRESENTATION('Dust collector',(#319),#965);
#318=SHAPE_REPRESENTATION('DeWalt',(#328),#966);
#319=AXIS2_PLACEMENT_3D('',#427,#351,#352);
#320=AXIS2_PLACEMENT_3D('',#428,#353,#354);
#321=AXIS2_PLACEMENT_3D('',#429,#355,#356);
#322=AXIS2_PLACEMENT_3D('',#431,#357,#358);
#323=AXIS2_PLACEMENT_3D('',#433,#359,#360);
#324=AXIS2_PLACEMENT_3D('',#434,#361,#362);
#325=AXIS2_PLACEMENT_3D('',#436,#363,#364);
#326=AXIS2_PLACEMENT_3D('',#437,#365,#366);
#327=AXIS2_PLACEMENT_3D('',#439,#367,#368);
#328=AXIS2_PLACEMENT_3D('',#440,#369,#370);
#329=AXIS2_PLACEMENT_3D('',#441,#371,#372);
#330=AXIS2_PLACEMENT_3D('',#442,#373,#374);
#331=AXIS2_PLACEMENT_3D('',#447,#376,#377);
#332=AXIS2_PLACEMENT_3D('',#450,#379,#380);
#333=AXIS2_PLACEMENT_3D('',#482,#383,#384);
#334=AXIS2_PLACEMENT_3D('',#492,#385,#386);
#335=AXIS2_PLACEMENT_3D('',#493,#387,#388);
#336=AXIS2_PLACEMENT_3D('',#495,#389,#390);
#337=AXIS2_PLACEMENT_3D('',#507,#392,#393);
#338=AXIS2_PLACEMENT_3D('',#517,#394,#395);
#339=AXIS2_PLACEMENT_3D('',#538,#397,#398);
#340=AXIS2_PLACEMENT_3D('',#540,#399,#400);
#341=AXIS2_PLACEMENT_3D('',#541,#401,#402);
#342=AXIS2_PLACEMENT_3D('',#544,#405,#406);
#343=AXIS2_PLACEMENT_3D('',#546,#408,#409);
#344=AXIS2_PLACEMENT_3D('',#548,#411,#412);
#345=AXIS2_PLACEMENT_3D('',#550,#414,#415);
#346=AXIS2_PLACEMENT_3D('',#552,#417,#418);
#347=AXIS2_PLACEMENT_3D('',#553,#419,#420);
#348=AXIS2_PLACEMENT_3D('',#554,#421,#422);
#349=AXIS2_PLACEMENT_3D('',#611,#423,#424);
#350=AXIS2_PLACEMENT_3D('',#612,#425,#426);
#351=DIRECTION('',(0.,0.,1.));
#352=DIRECTION('',(1.,0.,0.));
#353=DIRECTION('',(0.,0.,1.));
#354=DIRECTION('',(1.,0.,0.));
#355=DIRECTION('',(0.,0.,1.));
#356=DIRECTION('',(1.,0.,0.));
#357=DIRECTION('',(0.,0.,1.));
#358=DIRECTION('',(1.,0.,0.));
#359=DIRECTION('',(0.,0.,1.));
#360=DIRECTION('',(1.,0.,0.));
#361=DIRECTION('',(0.,0.,1.));
#362=DIRECTION('',(1.,0.,0.));
#363=DIRECTION('',(0.,0.,1.));
#364=DIRECTION('',(1.,0.,0.));
#365=DIRECTION('',(0.,0.,1.));
#366=DIRECTION('',(1.,0.,0.));
#367=DIRECTION('',(0.,0.,1.));
#368=DIRECTION('',(1.,0.,0.));
#369=DIRECTION('',(0.,0.,1.));
#370=DIRECTION('',(1.,0.,0.));
#371=DIRECTION('',(0.,0.,1.));
#372=DIRECTION('',(1.,0.,0.));
#373=DIRECTION('',(0.,0.,1.));
#374=DIRECTION('',(1.,0.,0.));
#375=DIRECTION('',(0.,-1.,0.));
#376=DIRECTION('',(0.,0.,1.));
#377=DIRECTION('',(1.,0.,0.));
#378=DIRECTION('',(0.,-1.,0.));
#379=DIRECTION('',(0.,0.,-1.));
#380=DIRECTION('',(-1.,0.,0.));
#381=DIRECTION('',(0.,0.,-1.));
#382=DIRECTION('',(0.,0.,-1.));
#383=DIRECTION('',(0.,0.,1.));
#384=DIRECTION('',(1.,0.,0.));
#385=DIRECTION('',(0.,0.,1.));
#386=DIRECTION('',(1.,0.,0.));
#387=DIRECTION('',(0.,0.,1.));
#388=DIRECTION('',(1.,0.,0.));
#389=DIRECTION('',(0.,0.,-1.));
#390=DIRECTION('',(-1.,0.,0.));
#391=DIRECTION('',(0.,0.,-1.));
#392=DIRECTION('',(0.,0.,1.));
#393=DIRECTION('',(1.,0.,0.));
#394=DIRECTION('',(0.,0.,1.));
#395=DIRECTION('',(1.,0.,0.));
#396=DIRECTION('',(0.,0.,-1.));
#397=DIRECTION('',(0.,0.,1.));
#398=DIRECTION('',(1.,0.,0.));
#399=DIRECTION('',(0.,1.,0.));
#400=DIRECTION('',(0.,0.,1.));
#401=DIRECTION('',(0.,-1.,0.));
#402=DIRECTION('',(0.,0.,-1.));
#403=DIRECTION('',(0.,-1.,0.));
#404=DIRECTION('',(0.,-1.,0.));
#405=DIRECTION('',(0.,0.,1.));
#406=DIRECTION('',(1.,0.,0.));
#407=DIRECTION('',(0.,-1.,0.));
#408=DIRECTION('',(0.,-1.,0.));
#409=DIRECTION('',(0.,0.,-1.));
#410=DIRECTION('',(0.,-1.,0.));
#411=DIRECTION('',(0.,0.,1.));
#412=DIRECTION('',(1.,0.,0.));
#413=DIRECTION('',(0.,-1.,0.));
#414=DIRECTION('',(0.,-1.,0.));
#415=DIRECTION('',(0.,0.,-1.));
#416=DIRECTION('',(0.,-1.,0.));
#417=DIRECTION('',(-1.,0.,0.));
#418=DIRECTION('',(0.,0.,1.));
#419=DIRECTION('',(1.,0.,0.));
#420=DIRECTION('',(0.,0.,-1.));
#421=DIRECTION('',(0.,0.,1.));
#422=DIRECTION('',(1.,0.,0.));
#423=DIRECTION('',(0.,0.,1.));
#424=DIRECTION('',(1.,0.,0.));
#425=DIRECTION('',(0.,0.,1.));
#426=DIRECTION('',(1.,0.,0.));
#427=CARTESIAN_POINT('',(0.,0.,0.));
#428=CARTESIAN_POINT('',(0.0103119345306095,0.000322007429944383,-0.025));
#429=CARTESIAN_POINT('',(0.0103119345306095,0.000322007429944383,-0.025));
#430=CARTESIAN_POINT('',(0.0358119345306095,0.000322007429944383,-0.025));
#431=CARTESIAN_POINT('',(0.0103119345306095,0.000322007429944383,0.));
#432=CARTESIAN_POINT('',(0.0358119345306095,0.000322007429944383,0.));
#433=CARTESIAN_POINT('',(0.0103119345306095,0.000322007429944381,-0.025));
#434=CARTESIAN_POINT('',(0.0103119345306095,0.000322007429944383,-0.025));
#435=CARTESIAN_POINT('',(0.0328119345306095,0.000322007429944383,-0.025));
#436=CARTESIAN_POINT('',(0.0103119345306095,0.000322007429944381,0.));
#437=CARTESIAN_POINT('',(0.0103119345306095,0.000322007429944383,0.));
#438=CARTESIAN_POINT('',(0.0328119345306095,0.000322007429944383,0.));
#439=CARTESIAN_POINT('',(0.0103119345306095,0.000322007429944383,-0.025));
#440=CARTESIAN_POINT('',(0.,0.,0.));
#441=CARTESIAN_POINT('',(0.0103119345306095,0.000322007429944378,0.035));
#442=CARTESIAN_POINT('',(0.0103119345306095,0.000322007429944384,0.035));
#443=CARTESIAN_POINT('',(0.00209116585819909,-0.0339559951728141,0.035));
#444=CARTESIAN_POINT('',(-0.0039083873808384,-0.0319323712609372,0.035));
#445=CARTESIAN_POINT('',(0.00209116585819909,-0.03125,0.035));
#446=CARTESIAN_POINT('',(0.00209116585819909,-0.0370341361402197,0.035));
#447=CARTESIAN_POINT('',(0.0103119345306095,0.000322007429944384,0.035));
#448=CARTESIAN_POINT('',(-0.0039083873808384,-0.0351863710846372,0.035));
#449=CARTESIAN_POINT('',(-0.0039083873808384,-0.03125,0.035));
#450=CARTESIAN_POINT('',(0.0103119345306095,0.000322007429944384,0.035));
#451=CARTESIAN_POINT('',(0.0134008224941777,0.0384624899920013,0.0167062306353414));
#452=CARTESIAN_POINT('',(0.0108915101845489,0.0386011409565776,0.0177469646499185));
#453=CARTESIAN_POINT('',(0.00838281248259612,0.0385386342136942,0.0167059107649845));
#454=CARTESIAN_POINT('',(0.00734578474898742,0.0384538801266076,0.0142011602223877));
#455=CARTESIAN_POINT('',(0.00838372434850685,0.038538739950596,0.0116915229511379));
#456=CARTESIAN_POINT('',(0.0108945799923995,0.0386010139054452,0.0106542614605223));
#457=CARTESIAN_POINT('',(0.0133969855891055,0.0384627504900254,0.0116914334854425));
#458=CARTESIAN_POINT('',(0.0144379661683132,0.0383458969541803,0.0141979193421737));
#459=CARTESIAN_POINT('',(0.0134008224941777,0.0384624899920013,0.0167062306353414));
#460=CARTESIAN_POINT('',(0.0108915101845489,0.0386011409565776,0.0177469646499185));
#461=CARTESIAN_POINT('',(0.00838281248259612,0.0385386342136942,0.0167059107649845));
#462=CARTESIAN_POINT('',(0.0108916126191616,0.038567614672001,0.0174));
#463=CARTESIAN_POINT('',(-0.0039083873808384,-0.0351863710846372,0.022));
#464=CARTESIAN_POINT('',(-0.00389592182504174,-0.0351913632646141,0.0212759499804933));
#465=CARTESIAN_POINT('',(-0.00373407580167418,-0.0352566641626211,0.0198598651261205));
#466=CARTESIAN_POINT('',(-0.00287088892227607,-0.0355918219290894,0.0171127154508902));
#467=CARTESIAN_POINT('',(-0.000876718100882735,-0.0362993378555368,0.0141467733021366));
#468=CARTESIAN_POINT('',(0.00263560002782588,-0.0372215279531311,0.0117121349251275));
#469=CARTESIAN_POINT('',(0.00544737273562789,-0.037644972430911,0.0110517082230216));
#470=CARTESIAN_POINT('',(0.00688829361615995,-0.0377744646231068,0.011));
#471=CARTESIAN_POINT('',(-0.0039083873808384,-0.0351863710846372,0.022));
#472=CARTESIAN_POINT('',(0.00688829361615995,-0.0377744646231068,0.011));
#473=CARTESIAN_POINT('',(-0.0039083873808384,-0.0351863710846372,0.035));
#474=CARTESIAN_POINT('',(0.00209116585819909,-0.0370341361402197,0.035));
#475=CARTESIAN_POINT('',(0.00209116585819909,-0.0370341361402197,0.0230004467609625));
#476=CARTESIAN_POINT('',(0.00209116585819909,-0.0370341361402197,0.0230004467609625));
#477=CARTESIAN_POINT('',(0.00209116585819909,-0.0370341361402197,0.0215140236807592));
#478=CARTESIAN_POINT('',(0.00331889492873826,-0.0373312119486717,0.0186176804385257));
#479=CARTESIAN_POINT('',(0.00620899520546581,-0.0377363281585959,0.0174));
#480=CARTESIAN_POINT('',(0.0076916126191616,-0.0378381342506152,0.0174));
#481=CARTESIAN_POINT('',(0.0076916126191616,-0.0378381342506152,0.0174));
#482=CARTESIAN_POINT('',(0.0103119345306095,0.000322007429944384,0.0174));
#483=CARTESIAN_POINT('',(0.0108916126191616,-0.0379235998121122,0.0174));
#484=CARTESIAN_POINT('',(0.0108916126191616,-0.0379235998121122,0.011));
#485=CARTESIAN_POINT('',(0.0117377344766754,-0.0379107753771924,0.011));
#486=CARTESIAN_POINT('',(0.0133939231510262,-0.0378186936244265,0.0116930791022183));
#487=CARTESIAN_POINT('',(0.0144397997151998,-0.0377018869210725,0.0141967795611982));
#488=CARTESIAN_POINT('',(0.0133965488389388,-0.0378184980199442,0.0167061357050768));
#489=CARTESIAN_POINT('',(0.0117377306584,-0.0379107754350649,0.0174));
#490=CARTESIAN_POINT('',(0.0108916126191616,-0.0379235998121122,0.0174));
#491=CARTESIAN_POINT('',(0.0108916126191616,-0.0379235998121122,0.011));
#492=CARTESIAN_POINT('',(0.0103119345306095,0.000322007429944384,0.011));
#493=CARTESIAN_POINT('',(0.0103119345306095,0.000322007429944384,0.01));
#494=CARTESIAN_POINT('',(0.0485619627718713,0.000322007429944302,0.01));
#495=CARTESIAN_POINT('',(0.0103119345306095,0.000322007429944384,0.035));
#496=CARTESIAN_POINT('',(-0.0039083873808384,-0.0319323712609372,0.035));
#497=CARTESIAN_POINT('',(-0.0039083873808384,-0.0319323712609372,0.022));
#498=CARTESIAN_POINT('',(-0.0039083873808384,-0.0319323712609372,0.022));
#499=CARTESIAN_POINT('',(-0.00389588964379893,-0.0319378812676736,0.021274080763439));
#500=CARTESIAN_POINT('',(-0.00373329874508842,-0.0320101131838043,0.0198549255057575));
#501=CARTESIAN_POINT('',(-0.00286713227218517,-0.0323799994054657,0.0171048308951027));
#502=CARTESIAN_POINT('',(-0.00087314227767417,-0.0331555816083802,0.0141449191160056));
#503=CARTESIAN_POINT('',(0.0026314227794243,-0.034159601743051,0.0117145123931874));
#504=CARTESIAN_POINT('',(0.00544479957185284,-0.0346204740963401,0.0110518005623916));
#505=CARTESIAN_POINT('',(0.00688829361615995,-0.0347613388028326,0.011));
#506=CARTESIAN_POINT('',(0.00688829361615995,-0.0347613388028326,0.011));
#507=CARTESIAN_POINT('',(0.0103119345306095,0.000322007429944384,0.011));
#508=CARTESIAN_POINT('',(0.0108916126191616,-0.0349232259117949,0.011));
#509=CARTESIAN_POINT('',(0.0108916126191616,-0.0349232259117949,0.011));
#510=CARTESIAN_POINT('',(0.0117378361073852,-0.0349093080804279,0.011));
#511=CARTESIAN_POINT('',(0.0133937980425917,-0.0348093864744753,0.0116930300780777));
#512=CARTESIAN_POINT('',(0.0144398690373337,-0.0346825128336111,0.0141967350694317));
#513=CARTESIAN_POINT('',(0.0133963965694152,-0.034809176332958,0.0167062376435461));
#514=CARTESIAN_POINT('',(0.0117378317903024,-0.034909308151431,0.0174));
#515=CARTESIAN_POINT('',(0.0108916126191616,-0.0349232259117949,0.0174));
#516=CARTESIAN_POINT('',(0.0108916126191616,-0.0349232259117949,0.0174));
#517=CARTESIAN_POINT('',(0.0103119345306095,0.000322007429944384,0.0174));
#518=CARTESIAN_POINT('',(0.0076916126191616,-0.0348304663532816,0.0174));
#519=CARTESIAN_POINT('',(0.00209116585819909,-0.0339559951728141,0.0230004467609625));
#520=CARTESIAN_POINT('',(0.00209116585819909,-0.0339559951728141,0.0215126922067827));
#521=CARTESIAN_POINT('',(0.00332075454349907,-0.0342801414803281,0.0186168155986242));
#522=CARTESIAN_POINT('',(0.0062083423454542,-0.034719901002383,0.0174));
#523=CARTESIAN_POINT('',(0.0076916126191616,-0.0348304663532816,0.0174));
#524=CARTESIAN_POINT('',(0.00209116585819909,-0.0339559951728141,0.0230004467609625));
#525=CARTESIAN_POINT('',(0.00209116585819909,-0.0339559951728141,0.035));
#526=CARTESIAN_POINT('',(0.0134006101672102,0.0354531733228634,0.0167063403828339));
#527=CARTESIAN_POINT('',(0.0108916066219865,0.0356036202236872,0.0177469596548702));
#528=CARTESIAN_POINT('',(0.00838263905981342,0.0355357904124901,0.0167058209976855));
#529=CARTESIAN_POINT('',(0.007345764233294,0.0354437906963857,0.0142009060629167));
#530=CARTESIAN_POINT('',(0.00838397973209366,0.0355359340817429,0.0116911779338819));
#531=CARTESIAN_POINT('',(0.0108951909017813,0.0356034732557818,0.0106542844357625));
#532=CARTESIAN_POINT('',(0.0133971698726978,0.0354534159010337,0.0116916882229728));
#533=CARTESIAN_POINT('',(0.0144379733861775,0.0353265284432081,0.0141982316887613));
#534=CARTESIAN_POINT('',(0.0134006101672102,0.0354531733228634,0.0167063403828339));
#535=CARTESIAN_POINT('',(0.0108916066219865,0.0356036202236872,0.0177469596548702));
#536=CARTESIAN_POINT('',(0.00838263905981342,0.0355357904124901,0.0167058209976855));
#537=CARTESIAN_POINT('',(0.0108916126191616,0.0355672407716837,0.0174));
#538=CARTESIAN_POINT('',(0.0103119345306095,0.000322007429944384,0.01));
#539=CARTESIAN_POINT('',(0.0455619345306095,0.000322007429944384,0.01));
#540=CARTESIAN_POINT('',(0.0108916126191616,0.035,0.0142));
#541=CARTESIAN_POINT('',(0.0076916126191616,-0.03125,0.0230004467609625));
#542=CARTESIAN_POINT('',(0.00209116585819909,-0.03125,0.0230004467609625));
#543=CARTESIAN_POINT('',(0.0076916126191616,-0.03125,0.0174));
#544=CARTESIAN_POINT('',(0.00929161261916161,-0.03125,0.0174));
#545=CARTESIAN_POINT('',(0.0108916126191616,-0.03125,0.0174));
#546=CARTESIAN_POINT('',(0.0108916126191616,-0.03125,0.0142));
#547=CARTESIAN_POINT('',(0.0108916126191616,-0.03125,0.011));
#548=CARTESIAN_POINT('',(0.00728995311766082,-0.03125,0.011));
#549=CARTESIAN_POINT('',(0.00688829361615995,-0.03125,0.011));
#550=CARTESIAN_POINT('',(0.00728995311766082,-0.03125,0.022192795434781));
#551=CARTESIAN_POINT('',(-0.0039083873808384,-0.03125,0.022));
#552=CARTESIAN_POINT('',(-0.0039083873808384,-0.03125,0.0285));
#553=CARTESIAN_POINT('',(0.00209116585819909,-0.03125,0.0290002233804812));
#554=CARTESIAN_POINT('',(0.0103119345306095,0.000322007429944378,0.01));
#555=CARTESIAN_POINT('',(-0.0242549153931503,-0.00309391096015633,0.01));
#556=CARTESIAN_POINT('',(-0.0244253119292302,0.000315909828899244,0.01));
#557=CARTESIAN_POINT('',(-0.0242539384122847,0.00376231622422571,0.01));
#558=CARTESIAN_POINT('',(-0.0237493189423575,0.00713328139318383,0.00999999999999999));
#559=CARTESIAN_POINT('',(-0.0229198465860388,0.0104359533705199,0.01));
#560=CARTESIAN_POINT('',(-0.02136583225114,0.0147558063683186,0.01));
#561=CARTESIAN_POINT('',(-0.0187021122839953,0.0197242192260496,0.00999999999999999));
#562=CARTESIAN_POINT('',(-0.0143151901138897,0.0250561316908521,0.01));
#563=CARTESIAN_POINT('',(-0.00994988469179272,0.0286290435158953,0.00999999999999999));
#564=CARTESIAN_POINT('',(-0.00600935955367485,0.0309853997017486,0.01));
#565=CARTESIAN_POINT('',(-0.00294182516978945,0.0324289207973377,0.01));
#566=CARTESIAN_POINT('',(0.000248065571443992,0.0335681792014577,0.01));
#567=CARTESIAN_POINT('',(0.00358223168562959,0.0344009770776391,0.01));
#568=CARTESIAN_POINT('',(0.00695668692070824,0.0348943462314564,0.01));
#569=CARTESIAN_POINT('',(0.0114600315426882,0.0351134965958014,0.01));
#570=CARTESIAN_POINT('',(0.0171890745023435,0.0345410012389398,0.01));
#571=CARTESIAN_POINT('',(0.0225806826717184,0.0328993269335074,0.01));
#572=CARTESIAN_POINT('',(0.0267263929101081,0.0309358220099936,0.01));
#573=CARTESIAN_POINT('',(0.0296421875229942,0.0291817244172866,0.01));
#574=CARTESIAN_POINT('',(0.0323596986970346,0.027163049333914,0.01));
#575=CARTESIAN_POINT('',(0.0348902811200306,0.0248691602897671,0.01));
#576=CARTESIAN_POINT('',(0.0371916340933656,0.0223234034954634,0.00999999999999998));
#577=CARTESIAN_POINT('',(0.039205348934761,0.0196013057207567,0.01));
#578=CARTESIAN_POINT('',(0.0409499351994343,0.0166909901335406,0.01));
#579=CARTESIAN_POINT('',(0.0429095931681318,0.0125381809739305,0.01));
#580=CARTESIAN_POINT('',(0.0445412120211428,0.00714061074866348,0.01));
#581=CARTESIAN_POINT('',(0.0452213461284853,0.000274276705415313,0.01));
#582=CARTESIAN_POINT('',(0.0446423482983859,-0.00543070614359629,0.01));
#583=CARTESIAN_POINT('',(0.0435385555480976,-0.00980347708507859,0.00999999999999999));
#584=CARTESIAN_POINT('',(0.0423847921416049,-0.0130194335901352,0.01));
#585=CARTESIAN_POINT('',(0.040910998300204,-0.0161180343422052,0.01));
#586=CARTESIAN_POINT('',(0.0391642796029715,-0.0190186977129187,0.01));
#587=CARTESIAN_POINT('',(0.0371407253125471,-0.0217426727809282,0.01));
#588=CARTESIAN_POINT('',(0.0340507741106012,-0.0251395852475498,0.01));
#589=CARTESIAN_POINT('',(0.0296875616007416,-0.0287098313582421,0.00999999999999998));
#590=CARTESIAN_POINT('',(0.0235928974706312,-0.0319562112903632,0.01));
#591=CARTESIAN_POINT('',(0.018194358951798,-0.0335851396986859,0.00999999999999999));
#592=CARTESIAN_POINT('',(0.013651336595884,-0.0342537144811397,0.01));
#593=CARTESIAN_POINT('',(0.0102630887878413,-0.0344129226631194,0.00999999999999998));
#594=CARTESIAN_POINT('',(0.00688091871300788,-0.034244060416301,0.01));
#595=CARTESIAN_POINT('',(0.00348459052947348,-0.0337374187548484,0.01));
#596=CARTESIAN_POINT('',(0.000175526636372539,-0.0329013859911821,0.01));
#597=CARTESIAN_POINT('',(-0.00301042352892124,-0.0317569556488971,0.00999999999999999));
#598=CARTESIAN_POINT('',(-0.00608716101670973,-0.0303000774718,0.01));
#599=CARTESIAN_POINT('',(-0.0100179176754281,-0.027935665750808,0.01));
#600=CARTESIAN_POINT('',(-0.0134935147461385,-0.0250766917681504,0.01));
#601=CARTESIAN_POINT('',(-0.016571070591602,-0.0216767891752659,0.01));
#602=CARTESIAN_POINT('',(-0.0185949190582677,-0.0189378390067262,0.00999999999999998));
#603=CARTESIAN_POINT('',(-0.02033228795599,-0.0160324757123691,0.01));
#604=CARTESIAN_POINT('',(-0.0217905740314316,-0.0129478206119954,0.00999999999999999));
#605=CARTESIAN_POINT('',(-0.0229426976088912,-0.00971298772021585,0.01));
#606=CARTESIAN_POINT('',(-0.0237591522436676,-0.0064358124555863,0.01));
#607=CARTESIAN_POINT('',(-0.0242549153931503,-0.00309391096015633,0.01));
#608=CARTESIAN_POINT('',(-0.0244253119292302,0.000315909828899244,0.01));
#609=CARTESIAN_POINT('',(-0.0242539384122847,0.00376231622422571,0.01));
#610=CARTESIAN_POINT('',(-0.024368350253726,0.000322007429944388,0.01));
#611=CARTESIAN_POINT('',(0.0103119345306095,0.000322007429944381,0.));
#612=CARTESIAN_POINT('',(0.0103119345306095,0.000322007429944383,0.));
#613=CARTESIAN_POINT('',(0.0358119345306095,0.000322007429944383,0.));
#614=CARTESIAN_POINT('',(-0.0121139798239344,-0.0019085039326362,-8.60936220594287E-22));
#615=CARTESIAN_POINT('',(-0.0122611526187974,0.00107189072114264,4.97061928104476E-22));
#616=CARTESIAN_POINT('',(-0.0119007093520093,0.0047256146220629,-1.68876249968854E-22));
#617=CARTESIAN_POINT('',(-0.0106029685394224,0.00900228818614297,4.52554361562759E-23));
#618=CARTESIAN_POINT('',(-0.00852934267595246,0.0128841671559282,-1.21454946562494E-23));
#619=CARTESIAN_POINT('',(-0.00569025418068771,0.0163444547576044,3.32654246872158E-24));
#620=CARTESIAN_POINT('',(-0.00285977191028013,0.0186684483974631,-4.12805604077212E-25));
#621=CARTESIAN_POINT('',(-0.000306000283668602,0.0202004383892534,7.77415935946642E-26));
#622=CARTESIAN_POINT('',(0.0016821531038012,0.0211395625886286,-2.07975697194142E-26));
#623=CARTESIAN_POINT('',(0.00375075898751467,0.0218821862462685,5.44868528299245E-27));
#624=CARTESIAN_POINT('',(0.0066381910861951,0.0226062929193496,-3.1457903110717E-27));
#625=CARTESIAN_POINT('',(0.0102849020340159,0.0229669063588963,1.06868638468303E-27));
#626=CARTESIAN_POINT('',(0.0147384667265371,0.0225302222565662,-2.8605988850945E-28));
#627=CARTESIAN_POINT('',(0.0189501442286293,0.0212542163578385,7.55531693547745E-29));
#628=CARTESIAN_POINT('',(0.0228934249134506,0.0191506474134485,-1.61527889096486E-29));
#629=CARTESIAN_POINT('',(0.0257356898146288,0.0168201854385491,-1.18104762484249E-29));
#630=CARTESIAN_POINT('',(0.0277310606240114,0.0146207699148301,2.44894150290946E-29));
#631=CARTESIAN_POINT('',(0.0290393438693715,0.0128572139157404,-9.52221566873332E-29));
#632=CARTESIAN_POINT('',(0.0301747019839024,0.0109694375619412,3.56399211720238E-28));
#633=CARTESIAN_POINT('',(0.0314496900204555,0.00827688988139403,-1.89263265749824E-27));
#634=CARTESIAN_POINT('',(0.0325131350028618,0.00477808128588809,1.5251697858883E-26));
#635=CARTESIAN_POINT('',(0.032960346846705,0.000319297309519974,-5.56852926747574E-26));
#636=CARTESIAN_POINT('',(0.0325170843858331,-0.00411274738562439,2.07489472840147E-25));
#637=CARTESIAN_POINT('',(0.0314496037452899,-0.00763367902175371,-6.10645586764832E-25));
#638=CARTESIAN_POINT('',(0.0301787553397668,-0.0103169322576965,1.05766416160867E-24));
#639=CARTESIAN_POINT('',(0.0290484781206366,-0.0121995728094519,-4.03708849676322E-24));
#640=CARTESIAN_POINT('',(0.0277371954724163,-0.0139698890553021,1.50906898254442E-23));
#641=CARTESIAN_POINT('',(0.0257355315689921,-0.0161762547896031,-8.01311243484995E-23));
#642=CARTESIAN_POINT('',(0.0229082519249539,-0.0184961778296728,6.45726670009275E-22));
#643=CARTESIAN_POINT('',(0.0189569871289876,-0.0206077475353721,-2.35760399681705E-21));
#644=CARTESIAN_POINT('',(0.015455268780063,-0.0216698089945544,6.92764043157958E-21));
#645=CARTESIAN_POINT('',(0.0125072901452897,-0.0221070377140986,-1.19982319774798E-20));
#646=CARTESIAN_POINT('',(0.00958332329835574,-0.0222498923103482,6.50617514332994E-20));
#647=CARTESIAN_POINT('',(0.00588435844100683,-0.0218856690848,-5.25564603012296E-19));
#648=CARTESIAN_POINT('',(0.00166146272141351,-0.0206060876706492,1.91907138972676E-18));
#649=CARTESIAN_POINT('',(-0.00228103086446461,-0.0184981651147052,-7.15072095589476E-18));
#650=CARTESIAN_POINT('',(-0.00568370219470888,-0.0157069200193108,1.91908531956909E-18));
#651=CARTESIAN_POINT('',(-0.00852160546985486,-0.0122518621991884,-5.25620322381606E-19));
#652=CARTESIAN_POINT('',(-0.0102532152957278,-0.00901384076286559,6.52265879008429E-20));
#653=CARTESIAN_POINT('',(-0.0112552221510477,-0.00621572266327479,-1.22837937451951E-20));
#654=CARTESIAN_POINT('',(-0.0117883783116969,-0.00408490647235346,3.28618249144731E-21));
#655=CARTESIAN_POINT('',(-0.0121139798239344,-0.0019085039326362,-8.60936220594287E-22));
#656=CARTESIAN_POINT('',(-0.0122611526187974,0.00107189072114264,4.97061928104476E-22));
#657=CARTESIAN_POINT('',(-0.0119007093520093,0.0047256146220629,-1.68876249968854E-22));
#658=CARTESIAN_POINT('',(-0.0121880654693905,0.000322007429944386,0.));
#659=CARTESIAN_POINT('',(-0.025946458822169,0.0153407315554804,0.01));
#660=CARTESIAN_POINT('',(-0.0289338687930013,0.000322007429944418,0.01));
#661=CARTESIAN_POINT('',(-0.025946458822169,-0.0146967166955918,0.01));
#662=CARTESIAN_POINT('',(-0.0174390349967922,-0.0274289762180882,0.01));
#663=CARTESIAN_POINT('',(-0.00470677547429577,-0.035936400043465,0.01));
#664=CARTESIAN_POINT('',(0.0103119486512404,-0.0389238100142973,0.01));
#665=CARTESIAN_POINT('',(0.0253306727767765,-0.035936400043465,0.01));
#666=CARTESIAN_POINT('',(0.038062932299273,-0.0274289762180882,0.01));
#667=CARTESIAN_POINT('',(0.0465703561246497,-0.0146967166955918,0.01));
#668=CARTESIAN_POINT('',(0.0495577660954821,0.000322007429944369,0.01));
#669=CARTESIAN_POINT('',(0.0465703561246497,0.0153407315554805,0.01));
#670=CARTESIAN_POINT('',(0.038062932299273,0.028072991077977,0.01));
#671=CARTESIAN_POINT('',(0.0253306727767765,0.0365804149033537,0.01));
#672=CARTESIAN_POINT('',(0.0103119486512404,0.0395678248741861,0.01));
#673=CARTESIAN_POINT('',(-0.00470677547429575,0.0365804149033537,0.01));
#674=CARTESIAN_POINT('',(-0.0174390349967923,0.028072991077977,0.01));
#675=CARTESIAN_POINT('',(-0.025946458822169,0.0153407315554804,0.01));
#676=CARTESIAN_POINT('',(-0.0289338687930013,0.000322007429944418,0.01));
#677=CARTESIAN_POINT('',(-0.025946458822169,-0.0146967166955918,0.01));
#678=CARTESIAN_POINT('',(-0.025946458822169,0.0153407315554804,0.00645987398589671));
#679=CARTESIAN_POINT('',(-0.0289338687930013,0.000322007429944416,0.00645987398589669));
#680=CARTESIAN_POINT('',(-0.0259464588221689,-0.0146967166955917,0.0064598739858967));
#681=CARTESIAN_POINT('',(-0.0174390349967923,-0.0274289762180882,0.0064598739858967));
#682=CARTESIAN_POINT('',(-0.00470677547429576,-0.035936400043465,0.0064598739858967));
#683=CARTESIAN_POINT('',(0.0103119486512404,-0.0389238100142973,0.0064598739858967));
#684=CARTESIAN_POINT('',(0.0253306727767765,-0.035936400043465,0.0064598739858967));
#685=CARTESIAN_POINT('',(0.038062932299273,-0.0274289762180882,0.0064598739858967));
#686=CARTESIAN_POINT('',(0.0465703561246497,-0.0146967166955918,0.0064598739858967));
#687=CARTESIAN_POINT('',(0.0495577660954821,0.00032200742994437,0.0064598739858967));
#688=CARTESIAN_POINT('',(0.0465703561246497,0.0153407315554805,0.0064598739858967));
#689=CARTESIAN_POINT('',(0.038062932299273,0.028072991077977,0.0064598739858967));
#690=CARTESIAN_POINT('',(0.0253306727767765,0.0365804149033536,0.0064598739858967));
#691=CARTESIAN_POINT('',(0.0103119486512404,0.0395678248741861,0.0064598739858967));
#692=CARTESIAN_POINT('',(-0.00470677547429575,0.0365804149033537,0.0064598739858967));
#693=CARTESIAN_POINT('',(-0.0174390349967923,0.028072991077977,0.0064598739858967));
#694=CARTESIAN_POINT('',(-0.025946458822169,0.0153407315554804,0.00645987398589671));
#695=CARTESIAN_POINT('',(-0.0289338687930013,0.000322007429944416,0.00645987398589669));
#696=CARTESIAN_POINT('',(-0.0259464588221689,-0.0146967166955917,0.0064598739858967));
#697=CARTESIAN_POINT('',(-0.0138603274594979,0.0103344920284393,0.00354012601410329));
#698=CARTESIAN_POINT('',(-0.0158519344743369,0.000322007429944403,0.00354012601410329));
#699=CARTESIAN_POINT('',(-0.0138603274594979,-0.00969047716855058,0.00354012601410329));
#700=CARTESIAN_POINT('',(-0.00818871052902758,-0.0181786517503236,0.00354012601410329));
#701=CARTESIAN_POINT('',(0.000299464052745408,-0.0238502686807939,0.00354012601410329));
#702=CARTESIAN_POINT('',(0.0103119486512404,-0.0258418756956329,0.00354012601410329));
#703=CARTESIAN_POINT('',(0.0203244332497353,-0.0238502686807939,0.00354012601410329));
#704=CARTESIAN_POINT('',(0.0288126078315084,-0.0181786517503236,0.00354012601410329));
#705=CARTESIAN_POINT('',(0.0344842247619787,-0.00969047716855058,0.00354012601410329));
#706=CARTESIAN_POINT('',(0.0364758317768176,0.000322007429944369,0.00354012601410329));
#707=CARTESIAN_POINT('',(0.0344842247619787,0.0103344920284393,0.00354012601410329));
#708=CARTESIAN_POINT('',(0.0288126078315084,0.0188226666102123,0.00354012601410329));
#709=CARTESIAN_POINT('',(0.0203244332497353,0.0244942835406827,0.00354012601410329));
#710=CARTESIAN_POINT('',(0.0103119486512404,0.0264858905555216,0.00354012601410329));
#711=CARTESIAN_POINT('',(0.000299464052745417,0.0244942835406827,0.00354012601410329));
#712=CARTESIAN_POINT('',(-0.00818871052902761,0.0188226666102123,0.00354012601410329));
#713=CARTESIAN_POINT('',(-0.0138603274594979,0.0103344920284393,0.00354012601410329));
#714=CARTESIAN_POINT('',(-0.0158519344743369,0.000322007429944403,0.00354012601410329));
#715=CARTESIAN_POINT('',(-0.0138603274594979,-0.00969047716855058,0.00354012601410329));
#716=CARTESIAN_POINT('',(-0.0138603274594979,0.0103344920284393,0.));
#717=CARTESIAN_POINT('',(-0.0158519344743369,0.000322007429944408,0.));
#718=CARTESIAN_POINT('',(-0.0138603274594979,-0.00969047716855057,0.));
#719=CARTESIAN_POINT('',(-0.00818871052902759,-0.0181786517503236,0.));
#720=CARTESIAN_POINT('',(0.000299464052745404,-0.0238502686807939,0.));
#721=CARTESIAN_POINT('',(0.0103119486512404,-0.0258418756956329,0.));
#722=CARTESIAN_POINT('',(0.0203244332497353,-0.0238502686807939,0.));
#723=CARTESIAN_POINT('',(0.0288126078315083,-0.0181786517503236,0.));
#724=CARTESIAN_POINT('',(0.0344842247619786,-0.00969047716855058,0.));
#725=CARTESIAN_POINT('',(0.0364758317768176,0.000322007429944373,0.));
#726=CARTESIAN_POINT('',(0.0344842247619786,0.0103344920284393,0.));
#727=CARTESIAN_POINT('',(0.0288126078315083,0.0188226666102123,0.));
#728=CARTESIAN_POINT('',(0.0203244332497353,0.0244942835406826,0.));
#729=CARTESIAN_POINT('',(0.0103119486512404,0.0264858905555216,0.));
#730=CARTESIAN_POINT('',(0.000299464052745421,0.0244942835406826,0.));
#731=CARTESIAN_POINT('',(-0.0081887105290276,0.0188226666102123,0.));
#732=CARTESIAN_POINT('',(-0.0138603274594979,0.0103344920284393,0.));
#733=CARTESIAN_POINT('',(-0.0158519344743369,0.000322007429944408,0.));
#734=CARTESIAN_POINT('',(-0.0138603274594979,-0.00969047716855057,0.));
#735=CARTESIAN_POINT('',(0.0432305299994264,0.0139573361274019,0.0100335576130023));
#736=CARTESIAN_POINT('',(0.042620868788752,0.0137048061854877,0.00956049613661965));
#737=CARTESIAN_POINT('',(0.041170370497294,0.0131039901209669,0.00869848690400607));
#738=CARTESIAN_POINT('',(0.0388718541133016,0.0121519134613804,0.00748129213952684));
#739=CARTESIAN_POINT('',(0.0370924389174148,0.0114148555541513,0.00651991082653344));
#740=CARTESIAN_POINT('',(0.0354662222810164,0.0107412545679983,0.00554893853945643));
#741=CARTESIAN_POINT('',(0.0341319691626799,0.0101885888307448,0.00458472631302161));
#742=CARTESIAN_POINT('',(0.0331426635809906,0.00977880504147766,0.00365685980809906));
#743=CARTESIAN_POINT('',(0.0324236313421659,0.00948097213637293,0.00271986041440547));
#744=CARTESIAN_POINT('',(0.031846383510373,0.00924186825559389,0.00158480064386878));
#745=CARTESIAN_POINT('',(0.0316390114894517,0.00915597195207154,0.000603639304264322));
#746=CARTESIAN_POINT('',(0.0316404016412055,0.00915654777178174,0.));
#747=CARTESIAN_POINT('',(0.0459427655106375,0.000322007429944391,0.0100335576130023));
#748=CARTESIAN_POINT('',(0.0452828729713827,0.000322007429944397,0.00956049613661967));
#749=CARTESIAN_POINT('',(0.043712864934171,0.000322007429944384,0.00869848690400607));
#750=CARTESIAN_POINT('',(0.0412249687278935,0.000322007429944393,0.00748129213952684));
#751=CARTESIAN_POINT('',(0.0392989435987838,0.000322007429944397,0.00651991082653344));
#752=CARTESIAN_POINT('',(0.0375387393955604,0.000322007429944382,0.00554893853945644));
#753=CARTESIAN_POINT('',(0.0360945542270572,0.000322007429944403,0.00458472631302161));
#754=CARTESIAN_POINT('',(0.0350237375817309,0.000322007429944384,0.00365685980809908));
#755=CARTESIAN_POINT('',(0.0342454626946683,0.000322007429944404,0.00271986041440545));
#756=CARTESIAN_POINT('',(0.0336206541439,0.000322007429944389,0.00158480064386881));
#757=CARTESIAN_POINT('',(0.0333961962858959,0.000322007429944385,0.000603639304264296));
#758=CARTESIAN_POINT('',(0.0333977009753114,0.000322007429944394,0.));
#759=CARTESIAN_POINT('',(0.0432305299994264,-0.0133133212675132,0.0100335576130023));
#760=CARTESIAN_POINT('',(0.042620868788752,-0.013060791325599,0.00956049613661965));
#761=CARTESIAN_POINT('',(0.041170370497294,-0.0124599752610781,0.00869848690400608));
#762=CARTESIAN_POINT('',(0.0388718541133017,-0.0115078986014917,0.00748129213952684));
#763=CARTESIAN_POINT('',(0.0370924389174148,-0.0107708406942626,0.00651991082653344));
#764=CARTESIAN_POINT('',(0.0354662222810164,-0.0100972397081096,0.00554893853945644));
#765=CARTESIAN_POINT('',(0.0341319691626799,-0.00954457397085607,0.00458472631302161));
#766=CARTESIAN_POINT('',(0.0331426635809906,-0.00913479018158889,0.00365685980809906));
#767=CARTESIAN_POINT('',(0.0324236313421659,-0.00883695727648424,0.00271986041440547));
#768=CARTESIAN_POINT('',(0.031846383510373,-0.00859785339570514,0.00158480064386878));
#769=CARTESIAN_POINT('',(0.0316390114894517,-0.00851195709218278,0.000603639304264324));
#770=CARTESIAN_POINT('',(0.0316404016412055,-0.00851253291189301,0.));
#771=CARTESIAN_POINT('',(0.035506736735899,-0.0248727947753452,0.0100335576130023));
#772=CARTESIAN_POINT('',(0.0350401222465375,-0.0244061802859836,0.00956049613661965));
#773=CARTESIAN_POINT('',(0.0339299589169078,-0.023296016956354,0.00869848690400607));
#774=CARTESIAN_POINT('',(0.0321707506385606,-0.0215368086780068,0.00748129213952684));
#775=CARTESIAN_POINT('',(0.0308088452090315,-0.0201749032484776,0.00651991082653343));
#776=CARTESIAN_POINT('',(0.0295641928806591,-0.0189302509201053,0.00554893853945644));
#777=CARTESIAN_POINT('',(0.0285429997547215,-0.0179090577941677,0.00458472631302161));
#778=CARTESIAN_POINT('',(0.0277858180434039,-0.01715187608285,0.00365685980809907));
#779=CARTESIAN_POINT('',(0.0272354945931347,-0.0166015526325808,0.00271986041440546));
#780=CARTESIAN_POINT('',(0.0267936882299431,-0.0161597462693892,0.00158480064386882));
#781=CARTESIAN_POINT('',(0.0266349725564578,-0.016001030595904,0.000603639304264298));
#782=CARTESIAN_POINT('',(0.0266360365325471,-0.0160020945719932,0.));
#783=CARTESIAN_POINT('',(0.023947263228067,-0.0325965880388726,0.0100335576130023));
#784=CARTESIAN_POINT('',(0.0236947332861529,-0.0319869268281982,0.00956049613661966));
#785=CARTESIAN_POINT('',(0.0230939172216319,-0.0305364285367402,0.00869848690400607));
#786=CARTESIAN_POINT('',(0.0221418405620456,-0.0282379121527478,0.00748129213952685));
#787=CARTESIAN_POINT('',(0.0214047826548165,-0.026458496956861,0.00651991082653344));
#788=CARTESIAN_POINT('',(0.0207311816686635,-0.0248322803204625,0.00554893853945644));
#789=CARTESIAN_POINT('',(0.0201785159314099,-0.0234980272021261,0.00458472631302161));
#790=CARTESIAN_POINT('',(0.0197687321421427,-0.0225087216204367,0.00365685980809907));
#791=CARTESIAN_POINT('',(0.0194708992370381,-0.021789689381612,0.00271986041440546));
#792=CARTESIAN_POINT('',(0.019231795356259,-0.0212124415498191,0.00158480064386882));
#793=CARTESIAN_POINT('',(0.0191458990527367,-0.0210050695288979,0.000603639304264307));
#794=CARTESIAN_POINT('',(0.0191464748724469,-0.0210064596806517,0.));
#795=CARTESIAN_POINT('',(0.0103119345306095,-0.0353088235500837,0.0100335576130023));
#796=CARTESIAN_POINT('',(0.0103119345306094,-0.0346489310108288,0.00956049613661965));
#797=CARTESIAN_POINT('',(0.0103119345306095,-0.0330789229736172,0.00869848690400607));
#798=CARTESIAN_POINT('',(0.0103119345306094,-0.0305910267673396,0.00748129213952684));
#799=CARTESIAN_POINT('',(0.0103119345306095,-0.0286650016382299,0.00651991082653343));
#800=CARTESIAN_POINT('',(0.0103119345306095,-0.0269047974350065,0.00554893853945644));
#801=CARTESIAN_POINT('',(0.0103119345306095,-0.0254606122665034,0.00458472631302161));
#802=CARTESIAN_POINT('',(0.0103119345306095,-0.0243897956211771,0.00365685980809907));
#803=CARTESIAN_POINT('',(0.0103119345306095,-0.0236115207341145,0.00271986041440545));
#804=CARTESIAN_POINT('',(0.0103119345306095,-0.0229867121833461,0.00158480064386881));
#805=CARTESIAN_POINT('',(0.0103119345306094,-0.0227622543253421,0.000603639304264299));
#806=CARTESIAN_POINT('',(0.0103119345306095,-0.0227637590147576,0.));
#807=CARTESIAN_POINT('',(-0.00332339416684807,-0.0325965880388726,0.0100335576130023));
#808=CARTESIAN_POINT('',(-0.00307086422493389,-0.0319869268281982,0.00956049613661966));
#809=CARTESIAN_POINT('',(-0.00247004816041301,-0.0305364285367402,0.00869848690400607));
#810=CARTESIAN_POINT('',(-0.00151797150082659,-0.0282379121527479,0.00748129213952685));
#811=CARTESIAN_POINT('',(-0.000780913593597495,-0.0264584969568609,0.00651991082653344));
#812=CARTESIAN_POINT('',(-0.000107312607444471,-0.0248322803204625,0.00554893853945644));
#813=CARTESIAN_POINT('',(0.000445353129809057,-0.0234980272021261,0.00458472631302161));
#814=CARTESIAN_POINT('',(0.000855136919076197,-0.0225087216204367,0.00365685980809907));
#815=CARTESIAN_POINT('',(0.00115296982418087,-0.021789689381612,0.00271986041440546));
#816=CARTESIAN_POINT('',(0.00139207370495996,-0.0212124415498191,0.00158480064386882));
#817=CARTESIAN_POINT('',(0.00147797000848227,-0.0210050695288979,0.000603639304264307));
#818=CARTESIAN_POINT('',(0.00147739418877209,-0.0210064596806516,0.));
#819=CARTESIAN_POINT('',(-0.0148828676746801,-0.0248727947753452,0.0100335576130023));
#820=CARTESIAN_POINT('',(-0.0144162531853186,-0.0244061802859836,0.00956049613661965));
#821=CARTESIAN_POINT('',(-0.0133060898556889,-0.0232960169563539,0.00869848690400607));
#822=CARTESIAN_POINT('',(-0.0115468815773417,-0.0215368086780068,0.00748129213952685));
#823=CARTESIAN_POINT('',(-0.0101849761478126,-0.0201749032484776,0.00651991082653343));
#824=CARTESIAN_POINT('',(-0.00894032381944023,-0.0189302509201053,0.00554893853945644));
#825=CARTESIAN_POINT('',(-0.0079191306935026,-0.0179090577941677,0.00458472631302161));
#826=CARTESIAN_POINT('',(-0.00716194898218496,-0.01715187608285,0.00365685980809907));
#827=CARTESIAN_POINT('',(-0.00661162553191577,-0.0166015526325809,0.00271986041440545));
#828=CARTESIAN_POINT('',(-0.00616981916872416,-0.0161597462693892,0.00158480064386882));
#829=CARTESIAN_POINT('',(-0.00601110349523888,-0.016001030595904,0.000603639304264298));
#830=CARTESIAN_POINT('',(-0.00601216747132817,-0.0160020945719933,0.));
#831=CARTESIAN_POINT('',(-0.0226066609382075,-0.0133133212675132,0.0100335576130023));
#832=CARTESIAN_POINT('',(-0.0219969997275331,-0.013060791325599,0.00956049613661965));
#833=CARTESIAN_POINT('',(-0.0205465014360751,-0.0124599752610781,0.00869848690400608));
#834=CARTESIAN_POINT('',(-0.0182479850520827,-0.0115078986014917,0.00748129213952684));
#835=CARTESIAN_POINT('',(-0.0164685698561959,-0.0107708406942626,0.00651991082653344));
#836=CARTESIAN_POINT('',(-0.0148423532197974,-0.0100972397081096,0.00554893853945644));
#837=CARTESIAN_POINT('',(-0.013508100101461,-0.00954457397085605,0.00458472631302161));
#838=CARTESIAN_POINT('',(-0.0125187945197716,-0.00913479018158892,0.00365685980809907));
#839=CARTESIAN_POINT('',(-0.0117997622809469,-0.00883695727648422,0.00271986041440547));
#840=CARTESIAN_POINT('',(-0.011222514449154,-0.00859785339570517,0.00158480064386881));
#841=CARTESIAN_POINT('',(-0.0110151424282328,-0.0085119570921828,0.000603639304264316));
#842=CARTESIAN_POINT('',(-0.0110165325799865,-0.00851253291189301,0.));
#843=CARTESIAN_POINT('',(-0.0253188964494186,0.00032200742994441,0.0100335576130023));
#844=CARTESIAN_POINT('',(-0.0246590039101638,0.000322007429944406,0.00956049613661966));
#845=CARTESIAN_POINT('',(-0.0230889958729521,0.000322007429944405,0.00869848690400607));
#846=CARTESIAN_POINT('',(-0.0206010996666746,0.000322007429944398,0.00748129213952684));
#847=CARTESIAN_POINT('',(-0.0186750745375649,0.000322007429944401,0.00651991082653343));
#848=CARTESIAN_POINT('',(-0.0169148703343415,0.000322007429944397,0.00554893853945644));
#849=CARTESIAN_POINT('',(-0.0154706851658383,0.000322007429944401,0.0045847263130216));
#850=CARTESIAN_POINT('',(-0.014399868520512,0.000322007429944405,0.00365685980809907));
#851=CARTESIAN_POINT('',(-0.0136215936334494,0.000322007429944395,0.00271986041440545));
#852=CARTESIAN_POINT('',(-0.0129967850826811,0.000322007429944408,0.00158480064386881));
#853=CARTESIAN_POINT('',(-0.0127723272246771,0.000322007429944383,0.000603639304264305));
#854=CARTESIAN_POINT('',(-0.0127738319140926,0.0003220074299444,0.));
#855=CARTESIAN_POINT('',(-0.0226066609382076,0.0139573361274019,0.0100335576130023));
#856=CARTESIAN_POINT('',(-0.0219969997275331,0.0137048061854877,0.00956049613661965));
#857=CARTESIAN_POINT('',(-0.0205465014360751,0.0131039901209668,0.00869848690400607));
#858=CARTESIAN_POINT('',(-0.0182479850520828,0.0121519134613804,0.00748129213952684));
#859=CARTESIAN_POINT('',(-0.0164685698561959,0.0114148555541513,0.00651991082653344));
#860=CARTESIAN_POINT('',(-0.0148423532197974,0.0107412545679983,0.00554893853945644));
#861=CARTESIAN_POINT('',(-0.013508100101461,0.0101885888307448,0.00458472631302161));
#862=CARTESIAN_POINT('',(-0.0125187945197716,0.00977880504147762,0.00365685980809907));
#863=CARTESIAN_POINT('',(-0.0117997622809469,0.00948097213637297,0.00271986041440547));
#864=CARTESIAN_POINT('',(-0.011222514449154,0.00924186825559387,0.00158480064386882));
#865=CARTESIAN_POINT('',(-0.0110151424282327,0.0091559719520716,0.000603639304264311));
#866=CARTESIAN_POINT('',(-0.0110165325799865,0.00915654777178174,0.));
#867=CARTESIAN_POINT('',(-0.0148828676746801,0.025516809635234,0.0100335576130023));
#868=CARTESIAN_POINT('',(-0.0144162531853186,0.0250501951458725,0.00956049613661966));
#869=CARTESIAN_POINT('',(-0.0133060898556889,0.0239400318162428,0.00869848690400608));
#870=CARTESIAN_POINT('',(-0.0115468815773417,0.0221808235378956,0.00748129213952684));
#871=CARTESIAN_POINT('',(-0.0101849761478125,0.0208189181083664,0.00651991082653344));
#872=CARTESIAN_POINT('',(-0.00894032381944021,0.0195742657799941,0.00554893853945644));
#873=CARTESIAN_POINT('',(-0.00791913069350261,0.0185530726540565,0.00458472631302161));
#874=CARTESIAN_POINT('',(-0.00716194898218495,0.0177958909427388,0.00365685980809907));
#875=CARTESIAN_POINT('',(-0.00661162553191579,0.0172455674924696,0.00271986041440545));
#876=CARTESIAN_POINT('',(-0.00616981916872417,0.016803761129278,0.00158480064386882));
#877=CARTESIAN_POINT('',(-0.00601110349523891,0.0166450454557927,0.0006036393042643));
#878=CARTESIAN_POINT('',(-0.00601216747132819,0.016646109431882,0.));
#879=CARTESIAN_POINT('',(-0.00332339416684802,0.0332406028987614,0.0100335576130023));
#880=CARTESIAN_POINT('',(-0.00307086422493387,0.0326309416880869,0.00956049613661965));
#881=CARTESIAN_POINT('',(-0.00247004816041296,0.0311804433966289,0.00869848690400606));
#882=CARTESIAN_POINT('',(-0.00151797150082657,0.0288819270126366,0.00748129213952685));
#883=CARTESIAN_POINT('',(-0.000780913593597461,0.0271025118167497,0.00651991082653343));
#884=CARTESIAN_POINT('',(-0.000107312607444455,0.0254762951803513,0.00554893853945645));
#885=CARTESIAN_POINT('',(0.000445353129809088,0.0241420420620148,0.00458472631302161));
#886=CARTESIAN_POINT('',(0.000855136919076204,0.0231527364803255,0.00365685980809906));
#887=CARTESIAN_POINT('',(0.00115296982418089,0.0224337042415008,0.00271986041440547));
#888=CARTESIAN_POINT('',(0.00139207370495993,0.0218564564097079,0.00158480064386881));
#889=CARTESIAN_POINT('',(0.00147797000848229,0.0216490843887866,0.000603639304264314));
#890=CARTESIAN_POINT('',(0.00147739418877209,0.0216504745405404,0.));
#891=CARTESIAN_POINT('',(0.0103119345306095,0.0359528384099725,0.0100335576130023));
#892=CARTESIAN_POINT('',(0.0103119345306095,0.0352929458707177,0.00956049613661966));
#893=CARTESIAN_POINT('',(0.0103119345306095,0.0337229378335061,0.00869848690400608));
#894=CARTESIAN_POINT('',(0.0103119345306095,0.0312350416272285,0.00748129213952684));
#895=CARTESIAN_POINT('',(0.0103119345306095,0.0293090164981188,0.00651991082653343));
#896=CARTESIAN_POINT('',(0.0103119345306094,0.0275488122948953,0.00554893853945645));
#897=CARTESIAN_POINT('',(0.0103119345306094,0.0261046271263922,0.00458472631302161));
#898=CARTESIAN_POINT('',(0.0103119345306095,0.0250338104810659,0.00365685980809907));
#899=CARTESIAN_POINT('',(0.0103119345306094,0.0242555355940033,0.00271986041440546));
#900=CARTESIAN_POINT('',(0.0103119345306095,0.0236307270432349,0.00158480064386882));
#901=CARTESIAN_POINT('',(0.0103119345306094,0.0234062691852309,0.000603639304264315));
#902=CARTESIAN_POINT('',(0.0103119345306095,0.0234077738746464,0.));
#903=CARTESIAN_POINT('',(0.023947263228067,0.0332406028987614,0.0100335576130023));
#904=CARTESIAN_POINT('',(0.0236947332861528,0.0326309416880869,0.00956049613661966));
#905=CARTESIAN_POINT('',(0.0230939172216319,0.0311804433966289,0.00869848690400607));
#906=CARTESIAN_POINT('',(0.0221418405620455,0.0288819270126366,0.00748129213952685));
#907=CARTESIAN_POINT('',(0.0214047826548164,0.0271025118167497,0.00651991082653343));
#908=CARTESIAN_POINT('',(0.0207311816686635,0.0254762951803512,0.00554893853945644));
#909=CARTESIAN_POINT('',(0.0201785159314099,0.0241420420620148,0.00458472631302161));
#910=CARTESIAN_POINT('',(0.0197687321421428,0.0231527364803255,0.00365685980809906));
#911=CARTESIAN_POINT('',(0.0194708992370381,0.0224337042415008,0.00271986041440547));
#912=CARTESIAN_POINT('',(0.019231795356259,0.0218564564097079,0.00158480064386879));
#913=CARTESIAN_POINT('',(0.0191458990527367,0.0216490843887866,0.000603639304264316));
#914=CARTESIAN_POINT('',(0.0191464748724469,0.0216504745405404,0.));
#915=CARTESIAN_POINT('',(0.035506736735899,0.0255168096352339,0.0100335576130023));
#916=CARTESIAN_POINT('',(0.0350401222465375,0.0250501951458724,0.00956049613661965));
#917=CARTESIAN_POINT('',(0.0339299589169078,0.0239400318162428,0.00869848690400608));
#918=CARTESIAN_POINT('',(0.0321707506385607,0.0221808235378956,0.00748129213952684));
#919=CARTESIAN_POINT('',(0.0308088452090315,0.0208189181083664,0.00651991082653344));
#920=CARTESIAN_POINT('',(0.0295641928806591,0.0195742657799941,0.00554893853945644));
#921=CARTESIAN_POINT('',(0.0285429997547215,0.0185530726540564,0.00458472631302161));
#922=CARTESIAN_POINT('',(0.0277858180434039,0.0177958909427388,0.00365685980809908));
#923=CARTESIAN_POINT('',(0.0272354945931347,0.0172455674924696,0.00271986041440546));
#924=CARTESIAN_POINT('',(0.0267936882299431,0.016803761129278,0.00158480064386882));
#925=CARTESIAN_POINT('',(0.0266349725564578,0.0166450454557927,0.000603639304264304));
#926=CARTESIAN_POINT('',(0.0266360365325471,0.016646109431882,0.));
#927=CARTESIAN_POINT('',(0.0432305299994264,0.0139573361274019,0.0100335576130023));
#928=CARTESIAN_POINT('',(0.042620868788752,0.0137048061854877,0.00956049613661965));
#929=CARTESIAN_POINT('',(0.041170370497294,0.0131039901209669,0.00869848690400607));
#930=CARTESIAN_POINT('',(0.0388718541133016,0.0121519134613804,0.00748129213952684));
#931=CARTESIAN_POINT('',(0.0370924389174148,0.0114148555541513,0.00651991082653344));
#932=CARTESIAN_POINT('',(0.0354662222810164,0.0107412545679983,0.00554893853945643));
#933=CARTESIAN_POINT('',(0.0341319691626799,0.0101885888307448,0.00458472631302161));
#934=CARTESIAN_POINT('',(0.0331426635809906,0.00977880504147766,0.00365685980809906));
#935=CARTESIAN_POINT('',(0.0324236313421659,0.00948097213637293,0.00271986041440547));
#936=CARTESIAN_POINT('',(0.031846383510373,0.00924186825559389,0.00158480064386878));
#937=CARTESIAN_POINT('',(0.0316390114894517,0.00915597195207154,0.000603639304264322));
#938=CARTESIAN_POINT('',(0.0316404016412055,0.00915654777178174,0.));
#939=CARTESIAN_POINT('',(0.0459427655106375,0.000322007429944391,0.0100335576130023));
#940=CARTESIAN_POINT('',(0.0452828729713827,0.000322007429944397,0.00956049613661967));
#941=CARTESIAN_POINT('',(0.043712864934171,0.000322007429944384,0.00869848690400607));
#942=CARTESIAN_POINT('',(0.0412249687278935,0.000322007429944393,0.00748129213952684));
#943=CARTESIAN_POINT('',(0.0392989435987838,0.000322007429944397,0.00651991082653344));
#944=CARTESIAN_POINT('',(0.0375387393955604,0.000322007429944382,0.00554893853945644));
#945=CARTESIAN_POINT('',(0.0360945542270572,0.000322007429944403,0.00458472631302161));
#946=CARTESIAN_POINT('',(0.0350237375817309,0.000322007429944384,0.00365685980809908));
#947=CARTESIAN_POINT('',(0.0342454626946683,0.000322007429944404,0.00271986041440545));
#948=CARTESIAN_POINT('',(0.0336206541439,0.000322007429944389,0.00158480064386881));
#949=CARTESIAN_POINT('',(0.0333961962858959,0.000322007429944385,0.000603639304264296));
#950=CARTESIAN_POINT('',(0.0333977009753114,0.000322007429944394,0.));
#951=CARTESIAN_POINT('',(0.0432305299994264,-0.0133133212675132,0.0100335576130023));
#952=CARTESIAN_POINT('',(0.042620868788752,-0.013060791325599,0.00956049613661965));
#953=CARTESIAN_POINT('',(0.041170370497294,-0.0124599752610781,0.00869848690400608));
#954=CARTESIAN_POINT('',(0.0388718541133017,-0.0115078986014917,0.00748129213952684));
#955=CARTESIAN_POINT('',(0.0370924389174148,-0.0107708406942626,0.00651991082653344));
#956=CARTESIAN_POINT('',(0.0354662222810164,-0.0100972397081096,0.00554893853945644));
#957=CARTESIAN_POINT('',(0.0341319691626799,-0.00954457397085607,0.00458472631302161));
#958=CARTESIAN_POINT('',(0.0331426635809906,-0.00913479018158889,0.00365685980809906));
#959=CARTESIAN_POINT('',(0.0324236313421659,-0.00883695727648424,0.00271986041440547));
#960=CARTESIAN_POINT('',(0.031846383510373,-0.00859785339570514,0.00158480064386878));
#961=CARTESIAN_POINT('',(0.0316390114894517,-0.00851195709218278,0.000603639304264324));
#962=CARTESIAN_POINT('',(0.0316404016412055,-0.00851253291189301,0.));
#963=MECHANICAL_DESIGN_GEOMETRIC_PRESENTATION_REPRESENTATION('',(#297),
#965);
#964=MECHANICAL_DESIGN_GEOMETRIC_PRESENTATION_REPRESENTATION('',(#298),
#966);
#965=(
GEOMETRIC_REPRESENTATION_CONTEXT(3)
GLOBAL_UNCERTAINTY_ASSIGNED_CONTEXT((#967))
GLOBAL_UNIT_ASSIGNED_CONTEXT((#973,#971,#969))
REPRESENTATION_CONTEXT('Dust collector','TOP_LEVEL_ASSEMBLY_PART')
);
#966=(
GEOMETRIC_REPRESENTATION_CONTEXT(3)
GLOBAL_UNCERTAINTY_ASSIGNED_CONTEXT((#968))
GLOBAL_UNIT_ASSIGNED_CONTEXT((#974,#972,#970))
REPRESENTATION_CONTEXT('DeWalt','TOP_LEVEL_ASSEMBLY_PART')
);
#967=UNCERTAINTY_MEASURE_WITH_UNIT(LENGTH_MEASURE(1.E-8),#973,
'DISTANCE_ACCURACY_VALUE','Maximum Tolerance applied to model');
#968=UNCERTAINTY_MEASURE_WITH_UNIT(LENGTH_MEASURE(2.E-5),#974,
'DISTANCE_ACCURACY_VALUE','Maximum Tolerance applied to model');
#969=(
NAMED_UNIT(*)
SI_UNIT($,.STERADIAN.)
SOLID_ANGLE_UNIT()
);
#970=(
NAMED_UNIT(*)
SI_UNIT($,.STERADIAN.)
SOLID_ANGLE_UNIT()
);
#971=(
NAMED_UNIT(*)
PLANE_ANGLE_UNIT()
SI_UNIT($,.RADIAN.)
);
#972=(
NAMED_UNIT(*)
PLANE_ANGLE_UNIT()
SI_UNIT($,.RADIAN.)
);
#973=(
LENGTH_UNIT()
NAMED_UNIT(*)
SI_UNIT($,.METRE.)
);
#974=(
LENGTH_UNIT()
NAMED_UNIT(*)
SI_UNIT($,.METRE.)
);
#975=PRODUCT_DEFINITION_SHAPE('','',#977);
#976=PRODUCT_DEFINITION_SHAPE('','',#978);
#977=PRODUCT_DEFINITION('','',#981,#979);
#978=PRODUCT_DEFINITION('','',#982,#980);
#979=PRODUCT_DEFINITION_CONTEXT('',#993,'design');
#980=PRODUCT_DEFINITION_CONTEXT('',#994,'design');
#981=PRODUCT_DEFINITION_FORMATION_WITH_SPECIFIED_SOURCE('','',#985,
 .NOT_KNOWN.);
#982=PRODUCT_DEFINITION_FORMATION_WITH_SPECIFIED_SOURCE('','',#986,
 .NOT_KNOWN.);
#983=PRODUCT_RELATED_PRODUCT_CATEGORY('','',(#985));
#984=PRODUCT_RELATED_PRODUCT_CATEGORY('','',(#986));
#985=PRODUCT('Dust collector','Dust collector','Dust collector',(#989));
#986=PRODUCT('DeWalt','DeWalt','DeWalt',(#990));
#987=PRODUCT_CATEGORY('','');
#988=PRODUCT_CATEGORY('','');
#989=PRODUCT_CONTEXT('',#993,'mechanical');
#990=PRODUCT_CONTEXT('',#994,'mechanical');
#991=APPLICATION_PROTOCOL_DEFINITION('international standard',
'ap242_managed_model_based_3d_engineering',2020,#993);
#992=APPLICATION_PROTOCOL_DEFINITION('international standard',
'ap242_managed_model_based_3d_engineering',2020,#994);
#993=APPLICATION_CONTEXT('managed model based 3d engineering');
#994=APPLICATION_CONTEXT('managed model based 3d engineering');
ENDSEC;
END-ISO-10303-21;
