ISO-10303-21;
HEADER;
/* Generated by software containing ST-Developer
 * from STEP Tools, Inc. (www.steptools.com) 
 */
/* OPTION: using custom renumber hook */

FILE_DESCRIPTION(
/* description */ ('STEP AP242 Edition 2',
'CAx-IF Rec.Pracs.---Representation and Presentation of Product Manufa
cturing Information (PMI)---4.0---2014-10-13',
'CAx-IF Rec.Pracs.---3D Tessellated Geometry---0.4---2014-09-14','2;1',
'CAx-IF Rec.Pracs.---User Defined Attributes---1.5---2016-08-15'),
/* implementation_level */ '2;1');

FILE_NAME(
/* name */ 'Hair elastic holder',
/* time_stamp */ '2026-09-27T13:09:16Z',
/* author */ (''),
/* organization */ (''),
/* preprocessor_version */ 'ST-DEVELOPER v20',
/* originating_system */ 'ONSHAPE BY PTC INC, 1.221',
/* authorisation */ '  ');

FILE_SCHEMA (('AP242_MANAGED_MODEL_BASED_3D_ENGINEERING_MIM_LF { 1 0 10303 442 3 1 4 }'));
ENDSEC;

DATA;
#10=SHAPE_REPRESENTATION_RELATIONSHIP('','',#356,#11);
#11=ADVANCED_BREP_SHAPE_REPRESENTATION('',(#354),#597);
#12=ORIENTED_CLOSED_SHELL('',*,#345,.F.);
#13=SPHERICAL_SURFACE('',#394,0.005);
#14=TOROIDAL_SURFACE('',#379,0.0355,0.002);
#15=TOROIDAL_SURFACE('',#380,0.0065,0.001);
#16=CYLINDRICAL_SURFACE('',#364,0.0375);
#17=CYLINDRICAL_SURFACE('',#375,0.0075);
#18=CYLINDRICAL_SURFACE('',#392,0.005);
#19=CIRCLE('',#359,0.0375);
#20=CIRCLE('',#361,0.0375);
#21=CIRCLE('',#363,0.0375);
#22=CIRCLE('',#365,0.0375);
#23=CIRCLE('',#366,0.0375);
#24=CIRCLE('',#367,0.0375);
#25=CIRCLE('',#368,0.0375);
#26=CIRCLE('',#369,0.0375);
#27=CIRCLE('',#370,0.0375);
#28=CIRCLE('',#373,0.0355);
#29=CIRCLE('',#374,0.0075);
#30=CIRCLE('',#376,0.0075);
#31=CIRCLE('',#378,0.0065);
#32=CIRCLE('',#391,0.005);
#33=CIRCLE('',#393,0.005);
#34=ORIENTED_EDGE('',*,*,#120,.F.);
#35=ORIENTED_EDGE('',*,*,#121,.F.);
#36=ORIENTED_EDGE('',*,*,#122,.F.);
#37=ORIENTED_EDGE('',*,*,#123,.F.);
#38=ORIENTED_EDGE('',*,*,#124,.T.);
#39=ORIENTED_EDGE('',*,*,#125,.F.);
#40=ORIENTED_EDGE('',*,*,#126,.T.);
#41=ORIENTED_EDGE('',*,*,#127,.T.);
#42=ORIENTED_EDGE('',*,*,#128,.F.);
#43=ORIENTED_EDGE('',*,*,#129,.T.);
#44=ORIENTED_EDGE('',*,*,#130,.T.);
#45=ORIENTED_EDGE('',*,*,#131,.T.);
#46=ORIENTED_EDGE('',*,*,#132,.T.);
#47=ORIENTED_EDGE('',*,*,#133,.F.);
#48=ORIENTED_EDGE('',*,*,#134,.T.);
#49=ORIENTED_EDGE('',*,*,#135,.T.);
#50=ORIENTED_EDGE('',*,*,#128,.T.);
#51=ORIENTED_EDGE('',*,*,#136,.F.);
#52=ORIENTED_EDGE('',*,*,#137,.T.);
#53=ORIENTED_EDGE('',*,*,#138,.T.);
#54=ORIENTED_EDGE('',*,*,#125,.T.);
#55=ORIENTED_EDGE('',*,*,#139,.F.);
#56=ORIENTED_EDGE('',*,*,#140,.T.);
#57=ORIENTED_EDGE('',*,*,#141,.T.);
#58=ORIENTED_EDGE('',*,*,#121,.T.);
#59=ORIENTED_EDGE('',*,*,#142,.F.);
#60=ORIENTED_EDGE('',*,*,#132,.F.);
#61=ORIENTED_EDGE('',*,*,#143,.T.);
#62=ORIENTED_EDGE('',*,*,#144,.F.);
#63=ORIENTED_EDGE('',*,*,#145,.T.);
#64=ORIENTED_EDGE('',*,*,#146,.F.);
#65=ORIENTED_EDGE('',*,*,#147,.T.);
#66=ORIENTED_EDGE('',*,*,#146,.T.);
#67=ORIENTED_EDGE('',*,*,#148,.T.);
#68=ORIENTED_EDGE('',*,*,#129,.F.);
#69=ORIENTED_EDGE('',*,*,#145,.F.);
#70=ORIENTED_EDGE('',*,*,#147,.F.);
#71=ORIENTED_EDGE('',*,*,#148,.F.);
#72=ORIENTED_EDGE('',*,*,#143,.F.);
#73=ORIENTED_EDGE('',*,*,#131,.F.);
#74=ORIENTED_EDGE('',*,*,#149,.T.);
#75=ORIENTED_EDGE('',*,*,#150,.T.);
#76=ORIENTED_EDGE('',*,*,#120,.T.);
#77=ORIENTED_EDGE('',*,*,#151,.F.);
#78=ORIENTED_EDGE('',*,*,#152,.F.);
#79=ORIENTED_EDGE('',*,*,#142,.T.);
#80=ORIENTED_EDGE('',*,*,#122,.T.);
#81=ORIENTED_EDGE('',*,*,#141,.F.);
#82=ORIENTED_EDGE('',*,*,#153,.F.);
#83=ORIENTED_EDGE('',*,*,#151,.T.);
#84=ORIENTED_EDGE('',*,*,#124,.F.);
#85=ORIENTED_EDGE('',*,*,#154,.F.);
#86=ORIENTED_EDGE('',*,*,#155,.T.);
#87=ORIENTED_EDGE('',*,*,#139,.T.);
#88=ORIENTED_EDGE('',*,*,#123,.T.);
#89=ORIENTED_EDGE('',*,*,#138,.F.);
#90=ORIENTED_EDGE('',*,*,#156,.F.);
#91=ORIENTED_EDGE('',*,*,#154,.T.);
#92=ORIENTED_EDGE('',*,*,#127,.F.);
#93=ORIENTED_EDGE('',*,*,#157,.F.);
#94=ORIENTED_EDGE('',*,*,#158,.T.);
#95=ORIENTED_EDGE('',*,*,#136,.T.);
#96=ORIENTED_EDGE('',*,*,#126,.F.);
#97=ORIENTED_EDGE('',*,*,#135,.F.);
#98=ORIENTED_EDGE('',*,*,#159,.T.);
#99=ORIENTED_EDGE('',*,*,#157,.T.);
#100=ORIENTED_EDGE('',*,*,#144,.T.);
#101=ORIENTED_EDGE('',*,*,#150,.F.);
#102=ORIENTED_EDGE('',*,*,#160,.F.);
#103=ORIENTED_EDGE('',*,*,#133,.T.);
#104=ORIENTED_EDGE('',*,*,#149,.F.);
#105=ORIENTED_EDGE('',*,*,#130,.F.);
#106=ORIENTED_EDGE('',*,*,#152,.T.);
#107=ORIENTED_EDGE('',*,*,#153,.T.);
#108=ORIENTED_EDGE('',*,*,#140,.F.);
#109=ORIENTED_EDGE('',*,*,#155,.F.);
#110=ORIENTED_EDGE('',*,*,#156,.T.);
#111=ORIENTED_EDGE('',*,*,#137,.F.);
#112=ORIENTED_EDGE('',*,*,#158,.F.);
#113=ORIENTED_EDGE('',*,*,#159,.F.);
#114=ORIENTED_EDGE('',*,*,#134,.F.);
#115=ORIENTED_EDGE('',*,*,#160,.T.);
#116=ORIENTED_EDGE('',*,*,#161,.T.);
#117=ORIENTED_EDGE('',*,*,#162,.T.);
#118=ORIENTED_EDGE('',*,*,#161,.F.);
#119=ORIENTED_EDGE('',*,*,#162,.F.);
#120=EDGE_CURVE('',#163,#164,#194,.T.);
#121=EDGE_CURVE('',#165,#163,#19,.T.);
#122=EDGE_CURVE('',#164,#165,#195,.T.);
#123=EDGE_CURVE('',#166,#167,#196,.T.);
#124=EDGE_CURVE('',#166,#168,#197,.T.);
#125=EDGE_CURVE('',#167,#168,#20,.T.);
#126=EDGE_CURVE('',#169,#170,#198,.T.);
#127=EDGE_CURVE('',#170,#171,#199,.T.);
#128=EDGE_CURVE('',#169,#171,#21,.T.);
#129=EDGE_CURVE('',#172,#172,#22,.F.);
#130=EDGE_CURVE('',#173,#174,#23,.T.);
#131=EDGE_CURVE('',#174,#175,#200,.T.);
#132=EDGE_CURVE('',#175,#176,#24,.T.);
#133=EDGE_CURVE('',#177,#176,#201,.T.);
#134=EDGE_CURVE('',#177,#178,#25,.T.);
#135=EDGE_CURVE('',#178,#169,#202,.T.);
#136=EDGE_CURVE('',#179,#171,#203,.T.);
#137=EDGE_CURVE('',#179,#180,#26,.T.);
#138=EDGE_CURVE('',#180,#167,#204,.T.);
#139=EDGE_CURVE('',#181,#168,#205,.T.);
#140=EDGE_CURVE('',#181,#182,#27,.T.);
#141=EDGE_CURVE('',#182,#165,#206,.T.);
#142=EDGE_CURVE('',#173,#163,#207,.T.);
#143=EDGE_CURVE('',#175,#183,#208,.T.);
#144=EDGE_CURVE('',#176,#183,#209,.T.);
#145=EDGE_CURVE('',#184,#184,#28,.T.);
#146=EDGE_CURVE('',#185,#185,#29,.T.);
#147=EDGE_CURVE('',#186,#186,#30,.F.);
#148=EDGE_CURVE('',#187,#187,#31,.T.);
#149=EDGE_CURVE('',#174,#188,#210,.T.);
#150=EDGE_CURVE('',#188,#183,#211,.T.);
#151=EDGE_CURVE('',#189,#164,#212,.T.);
#152=EDGE_CURVE('',#173,#189,#213,.T.);
#153=EDGE_CURVE('',#189,#182,#214,.T.);
#154=EDGE_CURVE('',#190,#166,#215,.T.);
#155=EDGE_CURVE('',#190,#181,#216,.T.);
#156=EDGE_CURVE('',#190,#180,#217,.T.);
#157=EDGE_CURVE('',#191,#170,#218,.T.);
#158=EDGE_CURVE('',#191,#179,#219,.T.);
#159=EDGE_CURVE('',#178,#191,#220,.T.);
#160=EDGE_CURVE('',#177,#188,#221,.T.);
#161=EDGE_CURVE('',#192,#192,#32,.T.);
#162=EDGE_CURVE('',#193,#193,#33,.F.);
#163=VERTEX_POINT('',#502);
#164=VERTEX_POINT('',#503);
#165=VERTEX_POINT('',#505);
#166=VERTEX_POINT('',#509);
#167=VERTEX_POINT('',#510);
#168=VERTEX_POINT('',#512);
#169=VERTEX_POINT('',#516);
#170=VERTEX_POINT('',#517);
#171=VERTEX_POINT('',#519);
#172=VERTEX_POINT('',#523);
#173=VERTEX_POINT('',#525);
#174=VERTEX_POINT('',#526);
#175=VERTEX_POINT('',#528);
#176=VERTEX_POINT('',#530);
#177=VERTEX_POINT('',#532);
#178=VERTEX_POINT('',#534);
#179=VERTEX_POINT('',#537);
#180=VERTEX_POINT('',#539);
#181=VERTEX_POINT('',#542);
#182=VERTEX_POINT('',#544);
#183=VERTEX_POINT('',#549);
#184=VERTEX_POINT('',#553);
#185=VERTEX_POINT('',#555);
#186=VERTEX_POINT('',#558);
#187=VERTEX_POINT('',#561);
#188=VERTEX_POINT('',#566);
#189=VERTEX_POINT('',#570);
#190=VERTEX_POINT('',#576);
#191=VERTEX_POINT('',#582);
#192=VERTEX_POINT('',#591);
#193=VERTEX_POINT('',#594);
#194=LINE('',#501,#222);
#195=LINE('',#506,#223);
#196=LINE('',#508,#224);
#197=LINE('',#511,#225);
#198=LINE('',#515,#226);
#199=LINE('',#518,#227);
#200=LINE('',#527,#228);
#201=LINE('',#531,#229);
#202=LINE('',#535,#230);
#203=LINE('',#536,#231);
#204=LINE('',#540,#232);
#205=LINE('',#541,#233);
#206=LINE('',#545,#234);
#207=LINE('',#546,#235);
#208=LINE('',#548,#236);
#209=LINE('',#550,#237);
#210=LINE('',#565,#238);
#211=LINE('',#567,#239);
#212=LINE('',#569,#240);
#213=LINE('',#571,#241);
#214=LINE('',#573,#242);
#215=LINE('',#575,#243);
#216=LINE('',#577,#244);
#217=LINE('',#579,#245);
#218=LINE('',#581,#246);
#219=LINE('',#583,#247);
#220=LINE('',#585,#248);
#221=LINE('',#587,#249);
#222=VECTOR('',#399,1.);
#223=VECTOR('',#402,1.);
#224=VECTOR('',#405,1.);
#225=VECTOR('',#406,1.);
#226=VECTOR('',#411,1.);
#227=VECTOR('',#412,1.);
#228=VECTOR('',#421,1.);
#229=VECTOR('',#424,1.);
#230=VECTOR('',#427,1.);
#231=VECTOR('',#428,1.);
#232=VECTOR('',#431,1.);
#233=VECTOR('',#432,1.);
#234=VECTOR('',#435,1.);
#235=VECTOR('',#436,1.);
#236=VECTOR('',#439,1.);
#237=VECTOR('',#440,1.);
#238=VECTOR('',#461,1.);
#239=VECTOR('',#462,1.);
#240=VECTOR('',#465,1.);
#241=VECTOR('',#466,1.);
#242=VECTOR('',#469,1.);
#243=VECTOR('',#472,1.);
#244=VECTOR('',#473,1.);
#245=VECTOR('',#476,1.);
#246=VECTOR('',#479,1.);
#247=VECTOR('',#480,1.);
#248=VECTOR('',#483,1.);
#249=VECTOR('',#486,1.);
#250=EDGE_LOOP('',(#34,#35,#36));
#251=EDGE_LOOP('',(#37,#38,#39));
#252=EDGE_LOOP('',(#40,#41,#42));
#253=EDGE_LOOP('',(#43));
#254=EDGE_LOOP('',(#44,#45,#46,#47,#48,#49,#50,#51,#52,#53,#54,#55,#56,
#57,#58,#59));
#255=EDGE_LOOP('',(#60,#61,#62));
#256=EDGE_LOOP('',(#63));
#257=EDGE_LOOP('',(#64));
#258=EDGE_LOOP('',(#65));
#259=EDGE_LOOP('',(#66));
#260=EDGE_LOOP('',(#67));
#261=EDGE_LOOP('',(#68));
#262=EDGE_LOOP('',(#69));
#263=EDGE_LOOP('',(#70));
#264=EDGE_LOOP('',(#71));
#265=EDGE_LOOP('',(#72,#73,#74,#75));
#266=EDGE_LOOP('',(#76,#77,#78,#79));
#267=EDGE_LOOP('',(#80,#81,#82,#83));
#268=EDGE_LOOP('',(#84,#85,#86,#87));
#269=EDGE_LOOP('',(#88,#89,#90,#91));
#270=EDGE_LOOP('',(#92,#93,#94,#95));
#271=EDGE_LOOP('',(#96,#97,#98,#99));
#272=EDGE_LOOP('',(#100,#101,#102,#103));
#273=EDGE_LOOP('',(#104,#105,#106,#107,#108,#109,#110,#111,#112,#113,#114,
#115));
#274=EDGE_LOOP('',(#116));
#275=EDGE_LOOP('',(#117));
#276=EDGE_LOOP('',(#118));
#277=EDGE_LOOP('',(#119));
#278=FACE_BOUND('',#250,.T.);
#279=FACE_BOUND('',#251,.T.);
#280=FACE_BOUND('',#252,.T.);
#281=FACE_BOUND('',#253,.T.);
#282=FACE_BOUND('',#254,.T.);
#283=FACE_BOUND('',#255,.T.);
#284=FACE_BOUND('',#256,.T.);
#285=FACE_BOUND('',#257,.T.);
#286=FACE_BOUND('',#258,.T.);
#287=FACE_BOUND('',#259,.T.);
#288=FACE_BOUND('',#260,.T.);
#289=FACE_BOUND('',#261,.T.);
#290=FACE_BOUND('',#262,.T.);
#291=FACE_BOUND('',#263,.T.);
#292=FACE_BOUND('',#264,.T.);
#293=FACE_BOUND('',#265,.T.);
#294=FACE_BOUND('',#266,.T.);
#295=FACE_BOUND('',#267,.T.);
#296=FACE_BOUND('',#268,.T.);
#297=FACE_BOUND('',#269,.T.);
#298=FACE_BOUND('',#270,.T.);
#299=FACE_BOUND('',#271,.T.);
#300=FACE_BOUND('',#272,.T.);
#301=FACE_BOUND('',#273,.T.);
#302=FACE_BOUND('',#274,.T.);
#303=FACE_BOUND('',#275,.T.);
#304=FACE_BOUND('',#276,.T.);
#305=FACE_BOUND('',#277,.T.);
#306=PLANE('',#358);
#307=PLANE('',#360);
#308=PLANE('',#362);
#309=PLANE('',#371);
#310=PLANE('',#372);
#311=PLANE('',#377);
#312=PLANE('',#381);
#313=PLANE('',#382);
#314=PLANE('',#383);
#315=PLANE('',#384);
#316=PLANE('',#385);
#317=PLANE('',#386);
#318=PLANE('',#387);
#319=PLANE('',#388);
#320=PLANE('',#389);
#321=PLANE('',#390);
#322=ADVANCED_FACE('',(#278),#306,.F.);
#323=ADVANCED_FACE('',(#279),#307,.F.);
#324=ADVANCED_FACE('',(#280),#308,.F.);
#325=ADVANCED_FACE('',(#281,#282),#16,.T.);
#326=ADVANCED_FACE('',(#283),#309,.F.);
#327=ADVANCED_FACE('',(#284,#285),#310,.T.);
#328=ADVANCED_FACE('',(#286,#287),#17,.T.);
#329=ADVANCED_FACE('',(#288),#311,.T.);
#330=ADVANCED_FACE('',(#289,#290),#14,.T.);
#331=ADVANCED_FACE('',(#291,#292),#15,.T.);
#332=ADVANCED_FACE('',(#293),#312,.T.);
#333=ADVANCED_FACE('',(#294),#313,.F.);
#334=ADVANCED_FACE('',(#295),#314,.F.);
#335=ADVANCED_FACE('',(#296),#315,.T.);
#336=ADVANCED_FACE('',(#297),#316,.F.);
#337=ADVANCED_FACE('',(#298),#317,.T.);
#338=ADVANCED_FACE('',(#299),#318,.T.);
#339=ADVANCED_FACE('',(#300),#319,.F.);
#340=ADVANCED_FACE('',(#301),#320,.T.);
#341=ADVANCED_FACE('',(#302),#321,.T.);
#342=ADVANCED_FACE('',(#303,#304),#18,.F.);
#343=ADVANCED_FACE('',(#305),#13,.F.);
#344=CLOSED_SHELL('',(#322,#323,#324,#325,#326,#327,#328,#329,#330,#331,
#332,#333,#334,#335,#336,#337,#338,#339,#340));
#345=CLOSED_SHELL('',(#341,#342,#343));
#346=STYLED_ITEM('',(#347),#354);
#347=PRESENTATION_STYLE_ASSIGNMENT((#348));
#348=SURFACE_STYLE_USAGE(.BOTH.,#349);
#349=SURFACE_SIDE_STYLE('',(#350));
#350=SURFACE_STYLE_FILL_AREA(#351);
#351=FILL_AREA_STYLE('',(#352));
#352=FILL_AREA_STYLE_COLOUR('',#353);
#353=COLOUR_RGB('',0.615686274509804,0.811764705882353,0.929411764705882);
#354=BREP_WITH_VOIDS('Part 1',#344,(#12));
#355=SHAPE_DEFINITION_REPRESENTATION(#602,#356);
#356=SHAPE_REPRESENTATION('Part 1',(#357),#597);
#357=AXIS2_PLACEMENT_3D('',#499,#395,#396);
#358=AXIS2_PLACEMENT_3D('',#500,#397,#398);
#359=AXIS2_PLACEMENT_3D('',#504,#400,#401);
#360=AXIS2_PLACEMENT_3D('',#507,#403,#404);
#361=AXIS2_PLACEMENT_3D('',#513,#407,#408);
#362=AXIS2_PLACEMENT_3D('',#514,#409,#410);
#363=AXIS2_PLACEMENT_3D('',#520,#413,#414);
#364=AXIS2_PLACEMENT_3D('',#521,#415,#416);
#365=AXIS2_PLACEMENT_3D('',#522,#417,#418);
#366=AXIS2_PLACEMENT_3D('',#524,#419,#420);
#367=AXIS2_PLACEMENT_3D('',#529,#422,#423);
#368=AXIS2_PLACEMENT_3D('',#533,#425,#426);
#369=AXIS2_PLACEMENT_3D('',#538,#429,#430);
#370=AXIS2_PLACEMENT_3D('',#543,#433,#434);
#371=AXIS2_PLACEMENT_3D('',#547,#437,#438);
#372=AXIS2_PLACEMENT_3D('',#551,#441,#442);
#373=AXIS2_PLACEMENT_3D('',#552,#443,#444);
#374=AXIS2_PLACEMENT_3D('',#554,#445,#446);
#375=AXIS2_PLACEMENT_3D('',#556,#447,#448);
#376=AXIS2_PLACEMENT_3D('',#557,#449,#450);
#377=AXIS2_PLACEMENT_3D('',#559,#451,#452);
#378=AXIS2_PLACEMENT_3D('',#560,#453,#454);
#379=AXIS2_PLACEMENT_3D('',#562,#455,#456);
#380=AXIS2_PLACEMENT_3D('',#563,#457,#458);
#381=AXIS2_PLACEMENT_3D('',#564,#459,#460);
#382=AXIS2_PLACEMENT_3D('',#568,#463,#464);
#383=AXIS2_PLACEMENT_3D('',#572,#467,#468);
#384=AXIS2_PLACEMENT_3D('',#574,#470,#471);
#385=AXIS2_PLACEMENT_3D('',#578,#474,#475);
#386=AXIS2_PLACEMENT_3D('',#580,#477,#478);
#387=AXIS2_PLACEMENT_3D('',#584,#481,#482);
#388=AXIS2_PLACEMENT_3D('',#586,#484,#485);
#389=AXIS2_PLACEMENT_3D('',#588,#487,#488);
#390=AXIS2_PLACEMENT_3D('',#589,#489,#490);
#391=AXIS2_PLACEMENT_3D('',#590,#491,#492);
#392=AXIS2_PLACEMENT_3D('',#592,#493,#494);
#393=AXIS2_PLACEMENT_3D('',#593,#495,#496);
#394=AXIS2_PLACEMENT_3D('',#595,#497,#498);
#395=DIRECTION('',(0.,0.,1.));
#396=DIRECTION('',(1.,0.,0.));
#397=DIRECTION('',(0.,0.,1.));
#398=DIRECTION('',(1.,0.,0.));
#399=DIRECTION('',(1.,0.,0.));
#400=DIRECTION('',(0.,0.,1.));
#401=DIRECTION('',(1.,0.,0.));
#402=DIRECTION('',(1.11856706827906E-16,1.,0.));
#403=DIRECTION('',(0.,0.,1.));
#404=DIRECTION('',(1.,0.,0.));
#405=DIRECTION('',(1.,0.,0.));
#406=DIRECTION('',(5.5928353413953E-17,1.,0.));
#407=DIRECTION('',(0.,0.,1.));
#408=DIRECTION('',(1.,0.,0.));
#409=DIRECTION('',(0.,0.,1.));
#410=DIRECTION('',(1.,0.,0.));
#411=DIRECTION('',(5.5928353413953E-17,1.,0.));
#412=DIRECTION('',(1.,0.,0.));
#413=DIRECTION('',(0.,0.,1.));
#414=DIRECTION('',(1.,0.,0.));
#415=DIRECTION('',(0.,0.,1.));
#416=DIRECTION('',(1.,0.,0.));
#417=DIRECTION('',(0.,0.,1.));
#418=DIRECTION('',(1.,0.,0.));
#419=DIRECTION('',(0.,0.,1.));
#420=DIRECTION('',(1.,0.,0.));
#421=DIRECTION('',(0.,0.,-1.));
#422=DIRECTION('',(0.,0.,1.));
#423=DIRECTION('',(1.,0.,0.));
#424=DIRECTION('',(0.,0.,-1.));
#425=DIRECTION('',(0.,0.,1.));
#426=DIRECTION('',(1.,0.,0.));
#427=DIRECTION('',(0.,0.,-1.));
#428=DIRECTION('',(0.,0.,-1.));
#429=DIRECTION('',(0.,0.,1.));
#430=DIRECTION('',(1.,0.,0.));
#431=DIRECTION('',(0.,0.,-1.));
#432=DIRECTION('',(0.,0.,-1.));
#433=DIRECTION('',(0.,0.,1.));
#434=DIRECTION('',(1.,0.,0.));
#435=DIRECTION('',(0.,0.,-1.));
#436=DIRECTION('',(0.,0.,-1.));
#437=DIRECTION('',(0.,0.,1.));
#438=DIRECTION('',(1.,0.,0.));
#439=DIRECTION('',(1.,0.,0.));
#440=DIRECTION('',(1.11856706827906E-16,1.,0.));
#441=DIRECTION('',(0.,0.,1.));
#442=DIRECTION('',(1.,0.,0.));
#443=DIRECTION('',(0.,0.,1.));
#444=DIRECTION('',(1.,0.,0.));
#445=DIRECTION('',(0.,0.,1.));
#446=DIRECTION('',(1.,0.,0.));
#447=DIRECTION('',(0.,0.,-1.));
#448=DIRECTION('',(-1.,0.,0.));
#449=DIRECTION('',(0.,0.,1.));
#450=DIRECTION('',(1.,0.,0.));
#451=DIRECTION('',(0.,0.,1.));
#452=DIRECTION('',(1.,0.,0.));
#453=DIRECTION('',(0.,0.,1.));
#454=DIRECTION('',(1.,0.,0.));
#455=DIRECTION('',(0.,0.,1.));
#456=DIRECTION('',(1.,0.,0.));
#457=DIRECTION('',(0.,0.,1.));
#458=DIRECTION('',(1.,0.,0.));
#459=DIRECTION('',(0.,1.,0.));
#460=DIRECTION('',(0.,0.,1.));
#461=DIRECTION('',(1.,0.,0.));
#462=DIRECTION('',(0.,0.,-1.));
#463=DIRECTION('',(0.,1.,0.));
#464=DIRECTION('',(0.,0.,1.));
#465=DIRECTION('',(0.,0.,-1.));
#466=DIRECTION('',(1.,0.,0.));
#467=DIRECTION('',(-1.,1.11856706827906E-16,0.));
#468=DIRECTION('',(-1.11856706827906E-16,-1.,0.));
#469=DIRECTION('',(1.11856706827906E-16,1.,0.));
#470=DIRECTION('',(-1.,5.5928353413953E-17,0.));
#471=DIRECTION('',(-5.5928353413953E-17,-1.,0.));
#472=DIRECTION('',(0.,0.,-1.));
#473=DIRECTION('',(5.5928353413953E-17,1.,0.));
#474=DIRECTION('',(0.,1.,0.));
#475=DIRECTION('',(0.,0.,1.));
#476=DIRECTION('',(1.,0.,0.));
#477=DIRECTION('',(0.,1.,0.));
#478=DIRECTION('',(0.,0.,1.));
#479=DIRECTION('',(0.,0.,-1.));
#480=DIRECTION('',(1.,0.,0.));
#481=DIRECTION('',(-1.,5.5928353413953E-17,0.));
#482=DIRECTION('',(-5.5928353413953E-17,-1.,0.));
#483=DIRECTION('',(5.5928353413953E-17,1.,0.));
#484=DIRECTION('',(-1.,1.11856706827906E-16,0.));
#485=DIRECTION('',(-1.11856706827906E-16,-1.,0.));
#486=DIRECTION('',(1.11856706827906E-16,1.,0.));
#487=DIRECTION('',(0.,0.,-1.));
#488=DIRECTION('',(1.,0.,0.));
#489=DIRECTION('',(0.,0.,1.));
#490=DIRECTION('',(1.,0.,0.));
#491=DIRECTION('',(0.,0.,1.));
#492=DIRECTION('',(1.,0.,0.));
#493=DIRECTION('',(0.,0.,-1.));
#494=DIRECTION('',(-1.,0.,0.));
#495=DIRECTION('',(0.,0.,-1.));
#496=DIRECTION('',(-1.,0.,0.));
#497=DIRECTION('',(0.,0.,1.));
#498=DIRECTION('',(1.,0.,0.));
#499=CARTESIAN_POINT('',(0.,0.,0.));
#500=CARTESIAN_POINT('',(-0.0155545957386494,-0.00298522552475333,-0.03));
#501=CARTESIAN_POINT('',(-0.0370630397575289,0.00301477447524667,-0.03));
#502=CARTESIAN_POINT('',(-0.0525714837764086,0.00301477447524666,-0.03));
#503=CARTESIAN_POINT('',(-0.0215545957386494,0.00301477447524667,-0.03));
#504=CARTESIAN_POINT('',(-0.0155545957386494,-0.00298522552475333,-0.03));
#505=CARTESIAN_POINT('',(-0.0215545957386494,0.0340316625130059,-0.03));
#506=CARTESIAN_POINT('',(-0.0215545957386494,0.0185232184941263,-0.03));
#507=CARTESIAN_POINT('',(-0.0155545957386494,-0.00298522552475333,-0.03));
#508=CARTESIAN_POINT('',(0.00595384828023023,0.00301477447524667,-0.03));
#509=CARTESIAN_POINT('',(-0.00955459573864937,0.00301477447524667,-0.03));
#510=CARTESIAN_POINT('',(0.0214622922991098,0.00301477447524669,-0.03));
#511=CARTESIAN_POINT('',(-0.00955459573864937,0.0185232184941263,-0.03));
#512=CARTESIAN_POINT('',(-0.00955459573864939,0.0340316625130059,-0.03));
#513=CARTESIAN_POINT('',(-0.0155545957386494,-0.00298522552475333,-0.03));
#514=CARTESIAN_POINT('',(-0.0155545957386494,-0.00298522552475333,-0.03));
#515=CARTESIAN_POINT('',(-0.00955459573864937,-0.024493669543633,-0.03));
#516=CARTESIAN_POINT('',(-0.00955459573864939,-0.0400021135625125,-0.03));
#517=CARTESIAN_POINT('',(-0.00955459573864937,-0.00898522552475333,-0.03));
#518=CARTESIAN_POINT('',(0.00595384828023023,-0.00898522552475333,-0.03));
#519=CARTESIAN_POINT('',(0.0214622922991098,-0.00898522552475334,-0.03));
#520=CARTESIAN_POINT('',(-0.0155545957386494,-0.00298522552475333,-0.03));
#521=CARTESIAN_POINT('',(-0.0155545957386494,-0.00298522552475333,-0.03));
#522=CARTESIAN_POINT('',(-0.0155545957386494,-0.00298522552475333,0.0005));
#523=CARTESIAN_POINT('',(0.0219454042613506,-0.00298522552475333,0.0005));
#524=CARTESIAN_POINT('',(-0.0155545957386494,-0.00298522552475333,-0.028));
#525=CARTESIAN_POINT('',(-0.0525714837764086,0.00301477447524666,-0.028));
#526=CARTESIAN_POINT('',(-0.0525714837764086,-0.00898522552475333,-0.028));
#527=CARTESIAN_POINT('',(-0.0525714837764086,-0.00898522552475332,-0.028));
#528=CARTESIAN_POINT('',(-0.0525714837764086,-0.00898522552475332,-0.03));
#529=CARTESIAN_POINT('',(-0.0155545957386494,-0.00298522552475333,-0.03));
#530=CARTESIAN_POINT('',(-0.0215545957386494,-0.0400021135625125,-0.03));
#531=CARTESIAN_POINT('',(-0.0215545957386494,-0.0400021135625125,-0.028));
#532=CARTESIAN_POINT('',(-0.0215545957386494,-0.0400021135625125,-0.028));
#533=CARTESIAN_POINT('',(-0.0155545957386494,-0.00298522552475333,-0.028));
#534=CARTESIAN_POINT('',(-0.00955459573864939,-0.0400021135625125,-0.028));
#535=CARTESIAN_POINT('',(-0.00955459573864939,-0.0400021135625125,-0.028));
#536=CARTESIAN_POINT('',(0.0214622922991098,-0.00898522552475334,-0.028));
#537=CARTESIAN_POINT('',(0.0214622922991098,-0.00898522552475334,-0.028));
#538=CARTESIAN_POINT('',(-0.0155545957386494,-0.00298522552475333,-0.028));
#539=CARTESIAN_POINT('',(0.0214622922991098,0.00301477447524669,-0.028));
#540=CARTESIAN_POINT('',(0.0214622922991098,0.00301477447524669,-0.028));
#541=CARTESIAN_POINT('',(-0.00955459573864939,0.0340316625130059,-0.028));
#542=CARTESIAN_POINT('',(-0.00955459573864939,0.0340316625130059,-0.028));
#543=CARTESIAN_POINT('',(-0.0155545957386494,-0.00298522552475333,-0.028));
#544=CARTESIAN_POINT('',(-0.0215545957386494,0.0340316625130059,-0.028));
#545=CARTESIAN_POINT('',(-0.0215545957386494,0.0340316625130059,-0.028));
#546=CARTESIAN_POINT('',(-0.0525714837764086,0.00301477447524666,-0.028));
#547=CARTESIAN_POINT('',(-0.0155545957386494,-0.00298522552475333,-0.03));
#548=CARTESIAN_POINT('',(-0.0370630397575289,-0.00898522552475333,-0.03));
#549=CARTESIAN_POINT('',(-0.0215545957386494,-0.00898522552475333,-0.03));
#550=CARTESIAN_POINT('',(-0.0215545957386494,-0.024493669543633,-0.03));
#551=CARTESIAN_POINT('',(-0.0155545957386494,-0.00298522552475333,0.0025));
#552=CARTESIAN_POINT('',(-0.0155545957386494,-0.00298522552475333,0.0025));
#553=CARTESIAN_POINT('',(0.0199454042613506,-0.00298522552475333,0.0025));
#554=CARTESIAN_POINT('',(-0.0155545957386494,-0.00298522552475333,0.0025));
#555=CARTESIAN_POINT('',(-0.00805459573864935,-0.00298522552475333,0.0025));
#556=CARTESIAN_POINT('',(-0.0155545957386494,-0.00298522552475333,0.0925));
#557=CARTESIAN_POINT('',(-0.0155545957386494,-0.00298522552475333,0.0915));
#558=CARTESIAN_POINT('',(-0.00805459573864935,-0.00298522552475333,0.0915));
#559=CARTESIAN_POINT('',(-0.0155545957386494,-0.00298522552475333,0.0925));
#560=CARTESIAN_POINT('',(-0.0155545957386494,-0.00298522552475333,0.0925));
#561=CARTESIAN_POINT('',(-0.00905459573864935,-0.00298522552475333,0.0925));
#562=CARTESIAN_POINT('',(-0.0155545957386494,-0.00298522552475333,0.0005));
#563=CARTESIAN_POINT('',(-0.0155545957386494,-0.00298522552475333,0.0915));
#564=CARTESIAN_POINT('',(-0.0370630397575289,-0.00898522552475333,-0.028));
#565=CARTESIAN_POINT('',(-0.0370630397575289,-0.00898522552475333,-0.028));
#566=CARTESIAN_POINT('',(-0.0215545957386494,-0.00898522552475333,-0.028));
#567=CARTESIAN_POINT('',(-0.0215545957386494,-0.00898522552475333,-0.028));
#568=CARTESIAN_POINT('',(-0.0370630397575289,0.00301477447524667,-0.028));
#569=CARTESIAN_POINT('',(-0.0215545957386494,0.00301477447524667,-0.028));
#570=CARTESIAN_POINT('',(-0.0215545957386494,0.00301477447524667,-0.028));
#571=CARTESIAN_POINT('',(-0.0370630397575289,0.00301477447524667,-0.028));
#572=CARTESIAN_POINT('',(-0.0215545957386494,0.0185232184941263,-0.028));
#573=CARTESIAN_POINT('',(-0.0215545957386494,0.0185232184941263,-0.028));
#574=CARTESIAN_POINT('',(-0.00955459573864937,0.0185232184941263,-0.028));
#575=CARTESIAN_POINT('',(-0.00955459573864937,0.00301477447524667,-0.028));
#576=CARTESIAN_POINT('',(-0.00955459573864937,0.00301477447524667,-0.028));
#577=CARTESIAN_POINT('',(-0.00955459573864937,0.0185232184941263,-0.028));
#578=CARTESIAN_POINT('',(0.00595384828023023,0.00301477447524667,-0.028));
#579=CARTESIAN_POINT('',(0.00595384828023023,0.00301477447524667,-0.028));
#580=CARTESIAN_POINT('',(0.00595384828023023,-0.00898522552475333,-0.028));
#581=CARTESIAN_POINT('',(-0.00955459573864937,-0.00898522552475333,-0.028));
#582=CARTESIAN_POINT('',(-0.00955459573864937,-0.00898522552475333,-0.028));
#583=CARTESIAN_POINT('',(0.00595384828023023,-0.00898522552475333,-0.028));
#584=CARTESIAN_POINT('',(-0.00955459573864937,-0.024493669543633,-0.028));
#585=CARTESIAN_POINT('',(-0.00955459573864937,-0.024493669543633,-0.028));
#586=CARTESIAN_POINT('',(-0.0215545957386494,-0.024493669543633,-0.028));
#587=CARTESIAN_POINT('',(-0.0215545957386494,-0.024493669543633,-0.028));
#588=CARTESIAN_POINT('',(-0.0183615607810803,-0.00182642601430416,-0.028));
#589=CARTESIAN_POINT('',(-0.0155545957386494,-0.00298522552475333,0.));
#590=CARTESIAN_POINT('',(-0.0155545957386494,-0.00298522552475333,0.));
#591=CARTESIAN_POINT('',(-0.0105545957386493,-0.00298522552475333,0.));
#592=CARTESIAN_POINT('',(-0.0155545957386494,-0.00298522552475333,0.0025));
#593=CARTESIAN_POINT('',(-0.0155545957386494,-0.00298522552475333,0.085));
#594=CARTESIAN_POINT('',(-0.0205545957386494,-0.00298522552475333,0.085));
#595=CARTESIAN_POINT('',(-0.0155545957386494,-0.00298522552475333,0.085));
#596=MECHANICAL_DESIGN_GEOMETRIC_PRESENTATION_REPRESENTATION('',(#346),
#597);
#597=(
GEOMETRIC_REPRESENTATION_CONTEXT(3)
GLOBAL_UNCERTAINTY_ASSIGNED_CONTEXT((#598))
GLOBAL_UNIT_ASSIGNED_CONTEXT((#601,#600,#599))
REPRESENTATION_CONTEXT('Part 1','TOP_LEVEL_ASSEMBLY_PART')
);
#598=UNCERTAINTY_MEASURE_WITH_UNIT(LENGTH_MEASURE(1.E-8),#601,
'DISTANCE_ACCURACY_VALUE','Maximum Tolerance applied to model');
#599=(
NAMED_UNIT(*)
SI_UNIT($,.STERADIAN.)
SOLID_ANGLE_UNIT()
);
#600=(
NAMED_UNIT(*)
PLANE_ANGLE_UNIT()
SI_UNIT($,.RADIAN.)
);
#601=(
LENGTH_UNIT()
NAMED_UNIT(*)
SI_UNIT($,.METRE.)
);
#602=PRODUCT_DEFINITION_SHAPE('','',#603);
#603=PRODUCT_DEFINITION('','',#605,#604);
#604=PRODUCT_DEFINITION_CONTEXT('',#611,'design');
#605=PRODUCT_DEFINITION_FORMATION_WITH_SPECIFIED_SOURCE('','',#607,
 .NOT_KNOWN.);
#606=PRODUCT_RELATED_PRODUCT_CATEGORY('','',(#607));
#607=PRODUCT('Part 1','Part 1','Part 1',(#609));
#608=PRODUCT_CATEGORY('','');
#609=PRODUCT_CONTEXT('',#611,'mechanical');
#610=APPLICATION_PROTOCOL_DEFINITION('international standard',
'ap242_managed_model_based_3d_engineering',2020,#611);
#611=APPLICATION_CONTEXT('managed model based 3d engineering');
ENDSEC;
END-ISO-10303-21;
