ISO-10303-21;
HEADER;
/* Generated by software containing ST-Developer
 * from STEP Tools, Inc. (www.steptools.com) 
 */
/* OPTION: using custom renumber hook */

FILE_DESCRIPTION(
/* description */ ('STEP AP242 Edition 2',
'CAx-IF Rec.Pracs.---Representation and Presentation of Product Manufa
cturing Information (PMI)---4.0---2014-10-13',
'CAx-IF Rec.Pracs.---3D Tessellated Geometry---0.4---2014-09-14','2;1',
'CAx-IF Rec.Pracs.---User Defined Attributes---1.5---2016-08-15'),
/* implementation_level */ '2;1');

FILE_NAME(
/* name */ 'Projector spacer',
/* time_stamp */ '2026-10-02T21:04:53Z',
/* author */ (''),
/* organization */ (''),
/* preprocessor_version */ 'ST-DEVELOPER v20',
/* originating_system */ 'ONSHAPE BY PTC INC, 1.221',
/* authorisation */ '  ');

FILE_SCHEMA (('AP242_MANAGED_MODEL_BASED_3D_ENGINEERING_MIM_LF { 1 0 10303 442 3 1 4 }'));
ENDSEC;

DATA;
#10=SHAPE_REPRESENTATION_RELATIONSHIP('','',#111,#11);
#11=ADVANCED_BREP_SHAPE_REPRESENTATION('',(#109),#181);
#12=PLANE('',#116);
#13=PLANE('',#120);
#14=PLANE('',#121);
#15=PLANE('',#122);
#16=LINE('',#158,#24);
#17=LINE('',#162,#25);
#18=LINE('',#164,#26);
#19=LINE('',#166,#27);
#20=LINE('',#168,#28);
#21=LINE('',#174,#29);
#22=LINE('',#176,#30);
#23=LINE('',#177,#31);
#24=VECTOR('',#129,1.);
#25=VECTOR('',#132,1.);
#26=VECTOR('',#135,1.);
#27=VECTOR('',#136,1.);
#28=VECTOR('',#137,1.);
#29=VECTOR('',#144,1.);
#30=VECTOR('',#147,1.);
#31=VECTOR('',#148,1.);
#32=ORIENTED_EDGE('',*,*,#56,.T.);
#33=ORIENTED_EDGE('',*,*,#57,.F.);
#34=ORIENTED_EDGE('',*,*,#58,.F.);
#35=ORIENTED_EDGE('',*,*,#59,.T.);
#36=ORIENTED_EDGE('',*,*,#60,.F.);
#37=ORIENTED_EDGE('',*,*,#59,.F.);
#38=ORIENTED_EDGE('',*,*,#61,.T.);
#39=ORIENTED_EDGE('',*,*,#62,.T.);
#40=ORIENTED_EDGE('',*,*,#63,.F.);
#41=ORIENTED_EDGE('',*,*,#62,.F.);
#42=ORIENTED_EDGE('',*,*,#64,.T.);
#43=ORIENTED_EDGE('',*,*,#65,.T.);
#44=ORIENTED_EDGE('',*,*,#66,.T.);
#45=ORIENTED_EDGE('',*,*,#65,.F.);
#46=ORIENTED_EDGE('',*,*,#67,.F.);
#47=ORIENTED_EDGE('',*,*,#57,.T.);
#48=ORIENTED_EDGE('',*,*,#58,.T.);
#49=ORIENTED_EDGE('',*,*,#67,.T.);
#50=ORIENTED_EDGE('',*,*,#64,.F.);
#51=ORIENTED_EDGE('',*,*,#61,.F.);
#52=ORIENTED_EDGE('',*,*,#56,.F.);
#53=ORIENTED_EDGE('',*,*,#60,.T.);
#54=ORIENTED_EDGE('',*,*,#63,.T.);
#55=ORIENTED_EDGE('',*,*,#66,.F.);
#56=EDGE_CURVE('',#68,#69,#76,.T.);
#57=EDGE_CURVE('',#70,#69,#16,.T.);
#58=EDGE_CURVE('',#71,#70,#77,.T.);
#59=EDGE_CURVE('',#71,#68,#17,.T.);
#60=EDGE_CURVE('',#68,#72,#18,.T.);
#61=EDGE_CURVE('',#71,#73,#19,.T.);
#62=EDGE_CURVE('',#73,#72,#20,.T.);
#63=EDGE_CURVE('',#72,#74,#78,.T.);
#64=EDGE_CURVE('',#73,#75,#79,.T.);
#65=EDGE_CURVE('',#75,#74,#21,.T.);
#66=EDGE_CURVE('',#69,#74,#22,.T.);
#67=EDGE_CURVE('',#70,#75,#23,.T.);
#68=VERTEX_POINT('',#156);
#69=VERTEX_POINT('',#157);
#70=VERTEX_POINT('',#159);
#71=VERTEX_POINT('',#161);
#72=VERTEX_POINT('',#165);
#73=VERTEX_POINT('',#167);
#74=VERTEX_POINT('',#171);
#75=VERTEX_POINT('',#173);
#76=CIRCLE('',#114,0.007);
#77=CIRCLE('',#115,0.007);
#78=CIRCLE('',#118,0.01);
#79=CIRCLE('',#119,0.01);
#80=EDGE_LOOP('',(#32,#33,#34,#35));
#81=EDGE_LOOP('',(#36,#37,#38,#39));
#82=EDGE_LOOP('',(#40,#41,#42,#43));
#83=EDGE_LOOP('',(#44,#45,#46,#47));
#84=EDGE_LOOP('',(#48,#49,#50,#51));
#85=EDGE_LOOP('',(#52,#53,#54,#55));
#86=FACE_BOUND('',#80,.T.);
#87=FACE_BOUND('',#81,.T.);
#88=FACE_BOUND('',#82,.T.);
#89=FACE_BOUND('',#83,.T.);
#90=FACE_BOUND('',#84,.T.);
#91=FACE_BOUND('',#85,.T.);
#92=CYLINDRICAL_SURFACE('',#113,0.007);
#93=CYLINDRICAL_SURFACE('',#117,0.01);
#94=ADVANCED_FACE('',(#86),#92,.F.);
#95=ADVANCED_FACE('',(#87),#12,.T.);
#96=ADVANCED_FACE('',(#88),#93,.T.);
#97=ADVANCED_FACE('',(#89),#13,.F.);
#98=ADVANCED_FACE('',(#90),#14,.F.);
#99=ADVANCED_FACE('',(#91),#15,.T.);
#100=CLOSED_SHELL('',(#94,#95,#96,#97,#98,#99));
#101=STYLED_ITEM('',(#102),#109);
#102=PRESENTATION_STYLE_ASSIGNMENT((#103));
#103=SURFACE_STYLE_USAGE(.BOTH.,#104);
#104=SURFACE_SIDE_STYLE('',(#105));
#105=SURFACE_STYLE_FILL_AREA(#106);
#106=FILL_AREA_STYLE('',(#107));
#107=FILL_AREA_STYLE_COLOUR('',#108);
#108=COLOUR_RGB('',0.615686274509804,0.811764705882353,0.929411764705882);
#109=MANIFOLD_SOLID_BREP('Part 1',#100);
#110=SHAPE_DEFINITION_REPRESENTATION(#186,#111);
#111=SHAPE_REPRESENTATION('Part 1',(#112),#181);
#112=AXIS2_PLACEMENT_3D('',#153,#123,#124);
#113=AXIS2_PLACEMENT_3D('',#154,#125,#126);
#114=AXIS2_PLACEMENT_3D('',#155,#127,#128);
#115=AXIS2_PLACEMENT_3D('',#160,#130,#131);
#116=AXIS2_PLACEMENT_3D('',#163,#133,#134);
#117=AXIS2_PLACEMENT_3D('',#169,#138,#139);
#118=AXIS2_PLACEMENT_3D('',#170,#140,#141);
#119=AXIS2_PLACEMENT_3D('',#172,#142,#143);
#120=AXIS2_PLACEMENT_3D('',#175,#145,#146);
#121=AXIS2_PLACEMENT_3D('',#178,#149,#150);
#122=AXIS2_PLACEMENT_3D('',#179,#151,#152);
#123=DIRECTION('',(0.,0.,1.));
#124=DIRECTION('',(1.,0.,0.));
#125=DIRECTION('',(0.,0.,1.));
#126=DIRECTION('',(1.,0.,0.));
#127=DIRECTION('',(0.,0.,1.));
#128=DIRECTION('',(0.541173528120309,0.840910942051426,0.));
#129=DIRECTION('',(0.,0.,1.));
#130=DIRECTION('',(0.,0.,1.));
#131=DIRECTION('',(0.541173528120309,0.840910942051426,0.));
#132=DIRECTION('',(0.,0.,1.));
#133=DIRECTION('',(0.993545032916026,-0.113438386659425,0.));
#134=DIRECTION('',(0.113438386659425,0.993545032916026,0.));
#135=DIRECTION('',(0.113438386659425,0.993545032916026,0.));
#136=DIRECTION('',(0.113438386659425,0.993545032916026,0.));
#137=DIRECTION('',(0.,0.,1.));
#138=DIRECTION('',(0.,0.,1.));
#139=DIRECTION('',(1.,0.,0.));
#140=DIRECTION('',(0.,0.,1.));
#141=DIRECTION('',(0.2418914750378,0.970303310467422,0.));
#142=DIRECTION('',(0.,0.,1.));
#143=DIRECTION('',(0.2418914750378,0.970303310467422,0.));
#144=DIRECTION('',(0.,0.,1.));
#145=DIRECTION('',(-0.694828616995981,-0.719175356226458,0.));
#146=DIRECTION('',(0.719175356226458,-0.694828616995981,0.));
#147=DIRECTION('',(0.719175356226458,-0.694828616995981,0.));
#148=DIRECTION('',(0.719175356226458,-0.694828616995981,0.));
#149=DIRECTION('',(0.,0.,1.));
#150=DIRECTION('',(1.,0.,0.));
#151=DIRECTION('',(0.,0.,1.));
#152=DIRECTION('',(1.,0.,0.));
#153=CARTESIAN_POINT('',(0.,0.,0.));
#154=CARTESIAN_POINT('',(-0.0339291170239449,0.0169248264282942,-0.056));
#155=CARTESIAN_POINT('',(-0.0339291170239449,0.0169248264282942,0.));
#156=CARTESIAN_POINT('',(-0.0301409023271027,0.0228112030226541,0.));
#157=CARTESIAN_POINT('',(-0.0272628517377091,0.0147891983863526,0.));
#158=CARTESIAN_POINT('',(-0.0272628517377091,0.0147891983863526,-0.056));
#159=CARTESIAN_POINT('',(-0.0272628517377091,0.0147891983863526,-0.056));
#160=CARTESIAN_POINT('',(-0.0339291170239449,0.0169248264282942,-0.056));
#161=CARTESIAN_POINT('',(-0.0301409023271027,0.0228112030226541,-0.056));
#162=CARTESIAN_POINT('',(-0.0301409023271027,0.0228112030226541,-0.056));
#163=CARTESIAN_POINT('',(-0.029957667971845,0.0244160529230004,-0.056));
#164=CARTESIAN_POINT('',(-0.029957667971845,0.0244160529230004,0.));
#165=CARTESIAN_POINT('',(-0.0297744336165874,0.0260209028233465,0.));
#166=CARTESIAN_POINT('',(-0.029957667971845,0.0244160529230004,-0.056));
#167=CARTESIAN_POINT('',(-0.0297744336165874,0.0260209028233465,-0.056));
#168=CARTESIAN_POINT('',(-0.0297744336165874,0.0260209028233465,-0.056));
#169=CARTESIAN_POINT('',(-0.0339291170239449,0.0169248264282942,-0.056));
#170=CARTESIAN_POINT('',(-0.0339291170239449,0.0169248264282942,0.));
#171=CARTESIAN_POINT('',(-0.0249395176953979,0.0125445177733946,0.));
#172=CARTESIAN_POINT('',(-0.0339291170239449,0.0169248264282942,-0.056));
#173=CARTESIAN_POINT('',(-0.0249395176953979,0.0125445177733946,-0.056));
#174=CARTESIAN_POINT('',(-0.0249395176953979,0.0125445177733946,-0.056));
#175=CARTESIAN_POINT('',(-0.0261011847165534,0.0136668580798736,-0.056));
#176=CARTESIAN_POINT('',(-0.0261011847165534,0.0136668580798736,0.));
#177=CARTESIAN_POINT('',(-0.0261011847165534,0.0136668580798736,-0.056));
#178=CARTESIAN_POINT('',(-0.0339291170239449,0.0169248264282942,-0.056));
#179=CARTESIAN_POINT('',(-0.0339291170239449,0.0169248264282942,0.));
#180=MECHANICAL_DESIGN_GEOMETRIC_PRESENTATION_REPRESENTATION('',(#101),
#181);
#181=(
GEOMETRIC_REPRESENTATION_CONTEXT(3)
GLOBAL_UNCERTAINTY_ASSIGNED_CONTEXT((#182))
GLOBAL_UNIT_ASSIGNED_CONTEXT((#185,#184,#183))
REPRESENTATION_CONTEXT('Part 1','TOP_LEVEL_ASSEMBLY_PART')
);
#182=UNCERTAINTY_MEASURE_WITH_UNIT(LENGTH_MEASURE(1.E-8),#185,
'DISTANCE_ACCURACY_VALUE','Maximum Tolerance applied to model');
#183=(
NAMED_UNIT(*)
SI_UNIT($,.STERADIAN.)
SOLID_ANGLE_UNIT()
);
#184=(
NAMED_UNIT(*)
PLANE_ANGLE_UNIT()
SI_UNIT($,.RADIAN.)
);
#185=(
LENGTH_UNIT()
NAMED_UNIT(*)
SI_UNIT($,.METRE.)
);
#186=PRODUCT_DEFINITION_SHAPE('','',#187);
#187=PRODUCT_DEFINITION('','',#189,#188);
#188=PRODUCT_DEFINITION_CONTEXT('',#195,'design');
#189=PRODUCT_DEFINITION_FORMATION_WITH_SPECIFIED_SOURCE('','',#191,
 .NOT_KNOWN.);
#190=PRODUCT_RELATED_PRODUCT_CATEGORY('','',(#191));
#191=PRODUCT('Part 1','Part 1','Part 1',(#193));
#192=PRODUCT_CATEGORY('','');
#193=PRODUCT_CONTEXT('',#195,'mechanical');
#194=APPLICATION_PROTOCOL_DEFINITION('international standard',
'ap242_managed_model_based_3d_engineering',2020,#195);
#195=APPLICATION_CONTEXT('managed model based 3d engineering');
ENDSEC;
END-ISO-10303-21;
