ISO-10303-21;
HEADER;
/* Generated by software containing ST-Developer
 * from STEP Tools, Inc. (www.steptools.com) 
 */
/* OPTION: using custom renumber hook */

FILE_DESCRIPTION(
/* description */ ('STEP AP242 Edition 2',
'CAx-IF Rec.Pracs.---Representation and Presentation of Product Manufa
cturing Information (PMI)---4.0---2014-10-13',
'CAx-IF Rec.Pracs.---3D Tessellated Geometry---0.4---2014-09-14','2;1',
'CAx-IF Rec.Pracs.---User Defined Attributes---1.5---2016-08-15'),
/* implementation_level */ '2;1');

FILE_NAME(
/* name */ 'Startech USB hub mount',
/* time_stamp */ '2026-10-03T02:02:54Z',
/* author */ (''),
/* organization */ (''),
/* preprocessor_version */ 'ST-DEVELOPER v20',
/* originating_system */ 'ONSHAPE BY PTC INC, 1.221',
/* authorisation */ '  ');

FILE_SCHEMA (('AP242_MANAGED_MODEL_BASED_3D_ENGINEERING_MIM_LF { 1 0 10303 442 3 1 4 }'));
ENDSEC;

DATA;
#10=SHAPE_REPRESENTATION_RELATIONSHIP('','',#1295,#11);
#11=ADVANCED_BREP_SHAPE_REPRESENTATION('',(#1293),#2077);
#12=CYLINDRICAL_SURFACE('',#1320,0.00325);
#13=CYLINDRICAL_SURFACE('',#1325,0.00325);
#14=CYLINDRICAL_SURFACE('',#1331,0.0032499999999999);
#15=CYLINDRICAL_SURFACE('',#1338,0.00325);
#16=CYLINDRICAL_SURFACE('',#1345,0.00400000000000006);
#17=CYLINDRICAL_SURFACE('',#1353,0.004);
#18=CYLINDRICAL_SURFACE('',#1378,0.002);
#19=CYLINDRICAL_SURFACE('',#1381,0.002);
#20=CIRCLE('',#1298,0.00324999999999972);
#21=CIRCLE('',#1300,0.00324999999999989);
#22=CIRCLE('',#1302,0.00324999999999972);
#23=CIRCLE('',#1304,0.00324999999999989);
#24=CIRCLE('',#1306,0.00325000000000007);
#25=CIRCLE('',#1308,0.00325000000000007);
#26=CIRCLE('',#1310,0.00324999999999959);
#27=CIRCLE('',#1321,0.00325);
#28=CIRCLE('',#1322,0.00325);
#29=CIRCLE('',#1323,0.00324999999999959);
#30=CIRCLE('',#1326,0.00325);
#31=CIRCLE('',#1327,0.00325);
#32=CIRCLE('',#1332,0.0032499999999999);
#33=CIRCLE('',#1333,0.00325);
#34=CIRCLE('',#1339,0.00325);
#35=CIRCLE('',#1340,0.00325);
#36=CIRCLE('',#1346,0.00400000000000006);
#37=CIRCLE('',#1347,0.00400000000000006);
#38=CIRCLE('',#1354,0.004);
#39=CIRCLE('',#1355,0.004);
#40=CIRCLE('',#1377,0.002);
#41=CIRCLE('',#1379,0.002);
#42=CIRCLE('',#1380,0.002);
#43=CIRCLE('',#1382,0.002);
#44=ORIENTED_EDGE('',*,*,#396,.T.);
#45=ORIENTED_EDGE('',*,*,#397,.T.);
#46=ORIENTED_EDGE('',*,*,#398,.F.);
#47=ORIENTED_EDGE('',*,*,#399,.F.);
#48=ORIENTED_EDGE('',*,*,#400,.F.);
#49=ORIENTED_EDGE('',*,*,#401,.T.);
#50=ORIENTED_EDGE('',*,*,#402,.T.);
#51=ORIENTED_EDGE('',*,*,#403,.T.);
#52=ORIENTED_EDGE('',*,*,#404,.F.);
#53=ORIENTED_EDGE('',*,*,#405,.T.);
#54=ORIENTED_EDGE('',*,*,#406,.F.);
#55=ORIENTED_EDGE('',*,*,#407,.F.);
#56=ORIENTED_EDGE('',*,*,#408,.F.);
#57=ORIENTED_EDGE('',*,*,#409,.F.);
#58=ORIENTED_EDGE('',*,*,#410,.T.);
#59=ORIENTED_EDGE('',*,*,#411,.T.);
#60=ORIENTED_EDGE('',*,*,#412,.F.);
#61=ORIENTED_EDGE('',*,*,#413,.T.);
#62=ORIENTED_EDGE('',*,*,#414,.T.);
#63=ORIENTED_EDGE('',*,*,#415,.T.);
#64=ORIENTED_EDGE('',*,*,#416,.F.);
#65=ORIENTED_EDGE('',*,*,#417,.F.);
#66=ORIENTED_EDGE('',*,*,#418,.T.);
#67=ORIENTED_EDGE('',*,*,#419,.T.);
#68=ORIENTED_EDGE('',*,*,#420,.T.);
#69=ORIENTED_EDGE('',*,*,#421,.T.);
#70=ORIENTED_EDGE('',*,*,#422,.F.);
#71=ORIENTED_EDGE('',*,*,#423,.F.);
#72=ORIENTED_EDGE('',*,*,#424,.F.);
#73=ORIENTED_EDGE('',*,*,#425,.T.);
#74=ORIENTED_EDGE('',*,*,#426,.T.);
#75=ORIENTED_EDGE('',*,*,#427,.F.);
#76=ORIENTED_EDGE('',*,*,#428,.T.);
#77=ORIENTED_EDGE('',*,*,#429,.T.);
#78=ORIENTED_EDGE('',*,*,#430,.F.);
#79=ORIENTED_EDGE('',*,*,#431,.F.);
#80=ORIENTED_EDGE('',*,*,#432,.F.);
#81=ORIENTED_EDGE('',*,*,#433,.F.);
#82=ORIENTED_EDGE('',*,*,#434,.T.);
#83=ORIENTED_EDGE('',*,*,#435,.F.);
#84=ORIENTED_EDGE('',*,*,#436,.T.);
#85=ORIENTED_EDGE('',*,*,#437,.T.);
#86=ORIENTED_EDGE('',*,*,#438,.F.);
#87=ORIENTED_EDGE('',*,*,#439,.F.);
#88=ORIENTED_EDGE('',*,*,#440,.F.);
#89=ORIENTED_EDGE('',*,*,#441,.T.);
#90=ORIENTED_EDGE('',*,*,#442,.T.);
#91=ORIENTED_EDGE('',*,*,#443,.T.);
#92=ORIENTED_EDGE('',*,*,#444,.F.);
#93=ORIENTED_EDGE('',*,*,#445,.T.);
#94=ORIENTED_EDGE('',*,*,#446,.T.);
#95=ORIENTED_EDGE('',*,*,#447,.F.);
#96=ORIENTED_EDGE('',*,*,#448,.T.);
#97=ORIENTED_EDGE('',*,*,#449,.T.);
#98=ORIENTED_EDGE('',*,*,#450,.T.);
#99=ORIENTED_EDGE('',*,*,#451,.F.);
#100=ORIENTED_EDGE('',*,*,#452,.F.);
#101=ORIENTED_EDGE('',*,*,#453,.F.);
#102=ORIENTED_EDGE('',*,*,#454,.F.);
#103=ORIENTED_EDGE('',*,*,#455,.F.);
#104=ORIENTED_EDGE('',*,*,#456,.T.);
#105=ORIENTED_EDGE('',*,*,#457,.T.);
#106=ORIENTED_EDGE('',*,*,#445,.F.);
#107=ORIENTED_EDGE('',*,*,#458,.T.);
#108=ORIENTED_EDGE('',*,*,#459,.F.);
#109=ORIENTED_EDGE('',*,*,#460,.F.);
#110=ORIENTED_EDGE('',*,*,#461,.T.);
#111=ORIENTED_EDGE('',*,*,#462,.T.);
#112=ORIENTED_EDGE('',*,*,#463,.T.);
#113=ORIENTED_EDGE('',*,*,#453,.T.);
#114=ORIENTED_EDGE('',*,*,#464,.F.);
#115=ORIENTED_EDGE('',*,*,#465,.F.);
#116=ORIENTED_EDGE('',*,*,#422,.T.);
#117=ORIENTED_EDGE('',*,*,#466,.F.);
#118=ORIENTED_EDGE('',*,*,#467,.T.);
#119=ORIENTED_EDGE('',*,*,#468,.T.);
#120=ORIENTED_EDGE('',*,*,#469,.T.);
#121=ORIENTED_EDGE('',*,*,#460,.T.);
#122=ORIENTED_EDGE('',*,*,#470,.T.);
#123=ORIENTED_EDGE('',*,*,#471,.F.);
#124=ORIENTED_EDGE('',*,*,#410,.F.);
#125=ORIENTED_EDGE('',*,*,#472,.T.);
#126=ORIENTED_EDGE('',*,*,#428,.F.);
#127=ORIENTED_EDGE('',*,*,#473,.T.);
#128=ORIENTED_EDGE('',*,*,#474,.T.);
#129=ORIENTED_EDGE('',*,*,#475,.F.);
#130=ORIENTED_EDGE('',*,*,#402,.F.);
#131=ORIENTED_EDGE('',*,*,#476,.F.);
#132=ORIENTED_EDGE('',*,*,#477,.F.);
#133=ORIENTED_EDGE('',*,*,#478,.T.);
#134=ORIENTED_EDGE('',*,*,#411,.F.);
#135=ORIENTED_EDGE('',*,*,#471,.T.);
#136=ORIENTED_EDGE('',*,*,#479,.T.);
#137=ORIENTED_EDGE('',*,*,#480,.F.);
#138=ORIENTED_EDGE('',*,*,#443,.F.);
#139=ORIENTED_EDGE('',*,*,#481,.F.);
#140=ORIENTED_EDGE('',*,*,#403,.F.);
#141=ORIENTED_EDGE('',*,*,#475,.T.);
#142=ORIENTED_EDGE('',*,*,#482,.T.);
#143=ORIENTED_EDGE('',*,*,#483,.F.);
#144=ORIENTED_EDGE('',*,*,#439,.T.);
#145=ORIENTED_EDGE('',*,*,#484,.F.);
#146=ORIENTED_EDGE('',*,*,#485,.F.);
#147=ORIENTED_EDGE('',*,*,#486,.T.);
#148=ORIENTED_EDGE('',*,*,#451,.T.);
#149=ORIENTED_EDGE('',*,*,#487,.T.);
#150=ORIENTED_EDGE('',*,*,#488,.T.);
#151=ORIENTED_EDGE('',*,*,#489,.F.);
#152=ORIENTED_EDGE('',*,*,#418,.F.);
#153=ORIENTED_EDGE('',*,*,#490,.T.);
#154=ORIENTED_EDGE('',*,*,#436,.F.);
#155=ORIENTED_EDGE('',*,*,#483,.T.);
#156=ORIENTED_EDGE('',*,*,#491,.T.);
#157=ORIENTED_EDGE('',*,*,#492,.F.);
#158=ORIENTED_EDGE('',*,*,#414,.F.);
#159=ORIENTED_EDGE('',*,*,#493,.F.);
#160=ORIENTED_EDGE('',*,*,#494,.F.);
#161=ORIENTED_EDGE('',*,*,#495,.T.);
#162=ORIENTED_EDGE('',*,*,#419,.F.);
#163=ORIENTED_EDGE('',*,*,#489,.T.);
#164=ORIENTED_EDGE('',*,*,#496,.F.);
#165=ORIENTED_EDGE('',*,*,#497,.F.);
#166=ORIENTED_EDGE('',*,*,#498,.T.);
#167=ORIENTED_EDGE('',*,*,#499,.T.);
#168=ORIENTED_EDGE('',*,*,#500,.F.);
#169=ORIENTED_EDGE('',*,*,#501,.F.);
#170=ORIENTED_EDGE('',*,*,#502,.T.);
#171=ORIENTED_EDGE('',*,*,#497,.T.);
#172=ORIENTED_EDGE('',*,*,#503,.T.);
#173=ORIENTED_EDGE('',*,*,#504,.F.);
#174=ORIENTED_EDGE('',*,*,#505,.F.);
#175=ORIENTED_EDGE('',*,*,#501,.T.);
#176=ORIENTED_EDGE('',*,*,#506,.F.);
#177=ORIENTED_EDGE('',*,*,#507,.F.);
#178=ORIENTED_EDGE('',*,*,#406,.T.);
#179=ORIENTED_EDGE('',*,*,#508,.T.);
#180=ORIENTED_EDGE('',*,*,#435,.T.);
#181=ORIENTED_EDGE('',*,*,#509,.T.);
#182=ORIENTED_EDGE('',*,*,#510,.F.);
#183=ORIENTED_EDGE('',*,*,#511,.F.);
#184=ORIENTED_EDGE('',*,*,#398,.T.);
#185=ORIENTED_EDGE('',*,*,#512,.F.);
#186=ORIENTED_EDGE('',*,*,#513,.T.);
#187=ORIENTED_EDGE('',*,*,#514,.T.);
#188=ORIENTED_EDGE('',*,*,#407,.T.);
#189=ORIENTED_EDGE('',*,*,#507,.T.);
#190=ORIENTED_EDGE('',*,*,#515,.F.);
#191=ORIENTED_EDGE('',*,*,#516,.F.);
#192=ORIENTED_EDGE('',*,*,#424,.T.);
#193=ORIENTED_EDGE('',*,*,#517,.F.);
#194=ORIENTED_EDGE('',*,*,#399,.T.);
#195=ORIENTED_EDGE('',*,*,#511,.T.);
#196=ORIENTED_EDGE('',*,*,#518,.T.);
#197=ORIENTED_EDGE('',*,*,#519,.F.);
#198=ORIENTED_EDGE('',*,*,#520,.F.);
#199=ORIENTED_EDGE('',*,*,#521,.T.);
#200=ORIENTED_EDGE('',*,*,#522,.F.);
#201=ORIENTED_EDGE('',*,*,#523,.F.);
#202=ORIENTED_EDGE('',*,*,#524,.T.);
#203=ORIENTED_EDGE('',*,*,#519,.T.);
#204=ORIENTED_EDGE('',*,*,#525,.F.);
#205=ORIENTED_EDGE('',*,*,#526,.F.);
#206=ORIENTED_EDGE('',*,*,#527,.T.);
#207=ORIENTED_EDGE('',*,*,#523,.T.);
#208=ORIENTED_EDGE('',*,*,#528,.F.);
#209=ORIENTED_EDGE('',*,*,#529,.T.);
#210=ORIENTED_EDGE('',*,*,#530,.T.);
#211=ORIENTED_EDGE('',*,*,#473,.F.);
#212=ORIENTED_EDGE('',*,*,#431,.T.);
#213=ORIENTED_EDGE('',*,*,#531,.F.);
#214=ORIENTED_EDGE('',*,*,#532,.F.);
#215=ORIENTED_EDGE('',*,*,#533,.T.);
#216=ORIENTED_EDGE('',*,*,#440,.T.);
#217=ORIENTED_EDGE('',*,*,#480,.T.);
#218=ORIENTED_EDGE('',*,*,#534,.T.);
#219=ORIENTED_EDGE('',*,*,#487,.F.);
#220=ORIENTED_EDGE('',*,*,#450,.F.);
#221=ORIENTED_EDGE('',*,*,#535,.F.);
#222=ORIENTED_EDGE('',*,*,#415,.F.);
#223=ORIENTED_EDGE('',*,*,#492,.T.);
#224=ORIENTED_EDGE('',*,*,#536,.F.);
#225=ORIENTED_EDGE('',*,*,#499,.F.);
#226=ORIENTED_EDGE('',*,*,#537,.T.);
#227=ORIENTED_EDGE('',*,*,#504,.T.);
#228=ORIENTED_EDGE('',*,*,#538,.F.);
#229=ORIENTED_EDGE('',*,*,#509,.F.);
#230=ORIENTED_EDGE('',*,*,#434,.F.);
#231=ORIENTED_EDGE('',*,*,#539,.F.);
#232=ORIENTED_EDGE('',*,*,#540,.T.);
#233=ORIENTED_EDGE('',*,*,#541,.T.);
#234=ORIENTED_EDGE('',*,*,#425,.F.);
#235=ORIENTED_EDGE('',*,*,#516,.T.);
#236=ORIENTED_EDGE('',*,*,#542,.F.);
#237=ORIENTED_EDGE('',*,*,#521,.F.);
#238=ORIENTED_EDGE('',*,*,#543,.T.);
#239=ORIENTED_EDGE('',*,*,#526,.T.);
#240=ORIENTED_EDGE('',*,*,#544,.F.);
#241=ORIENTED_EDGE('',*,*,#545,.T.);
#242=ORIENTED_EDGE('',*,*,#546,.F.);
#243=ORIENTED_EDGE('',*,*,#458,.F.);
#244=ORIENTED_EDGE('',*,*,#444,.T.);
#245=ORIENTED_EDGE('',*,*,#547,.F.);
#246=ORIENTED_EDGE('',*,*,#423,.T.);
#247=ORIENTED_EDGE('',*,*,#465,.T.);
#248=ORIENTED_EDGE('',*,*,#548,.F.);
#249=ORIENTED_EDGE('',*,*,#549,.F.);
#250=ORIENTED_EDGE('',*,*,#454,.T.);
#251=ORIENTED_EDGE('',*,*,#463,.F.);
#252=ORIENTED_EDGE('',*,*,#544,.T.);
#253=ORIENTED_EDGE('',*,*,#518,.F.);
#254=ORIENTED_EDGE('',*,*,#542,.T.);
#255=ORIENTED_EDGE('',*,*,#525,.T.);
#256=ORIENTED_EDGE('',*,*,#522,.T.);
#257=ORIENTED_EDGE('',*,*,#506,.T.);
#258=ORIENTED_EDGE('',*,*,#538,.T.);
#259=ORIENTED_EDGE('',*,*,#515,.T.);
#260=ORIENTED_EDGE('',*,*,#510,.T.);
#261=ORIENTED_EDGE('',*,*,#496,.T.);
#262=ORIENTED_EDGE('',*,*,#536,.T.);
#263=ORIENTED_EDGE('',*,*,#503,.F.);
#264=ORIENTED_EDGE('',*,*,#500,.T.);
#265=ORIENTED_EDGE('',*,*,#482,.F.);
#266=ORIENTED_EDGE('',*,*,#534,.F.);
#267=ORIENTED_EDGE('',*,*,#491,.F.);
#268=ORIENTED_EDGE('',*,*,#488,.F.);
#269=ORIENTED_EDGE('',*,*,#470,.F.);
#270=ORIENTED_EDGE('',*,*,#530,.F.);
#271=ORIENTED_EDGE('',*,*,#479,.F.);
#272=ORIENTED_EDGE('',*,*,#474,.F.);
#273=ORIENTED_EDGE('',*,*,#528,.T.);
#274=ORIENTED_EDGE('',*,*,#452,.T.);
#275=ORIENTED_EDGE('',*,*,#546,.T.);
#276=ORIENTED_EDGE('',*,*,#464,.T.);
#277=ORIENTED_EDGE('',*,*,#459,.T.);
#278=ORIENTED_EDGE('',*,*,#447,.T.);
#279=ORIENTED_EDGE('',*,*,#550,.F.);
#280=ORIENTED_EDGE('',*,*,#420,.F.);
#281=ORIENTED_EDGE('',*,*,#547,.T.);
#282=ORIENTED_EDGE('',*,*,#446,.F.);
#283=ORIENTED_EDGE('',*,*,#457,.F.);
#284=ORIENTED_EDGE('',*,*,#551,.T.);
#285=ORIENTED_EDGE('',*,*,#466,.T.);
#286=ORIENTED_EDGE('',*,*,#421,.F.);
#287=ORIENTED_EDGE('',*,*,#550,.T.);
#288=ORIENTED_EDGE('',*,*,#549,.T.);
#289=ORIENTED_EDGE('',*,*,#552,.F.);
#290=ORIENTED_EDGE('',*,*,#553,.T.);
#291=ORIENTED_EDGE('',*,*,#468,.F.);
#292=ORIENTED_EDGE('',*,*,#554,.F.);
#293=ORIENTED_EDGE('',*,*,#455,.T.);
#294=ORIENTED_EDGE('',*,*,#548,.T.);
#295=ORIENTED_EDGE('',*,*,#462,.F.);
#296=ORIENTED_EDGE('',*,*,#555,.F.);
#297=ORIENTED_EDGE('',*,*,#552,.T.);
#298=ORIENTED_EDGE('',*,*,#449,.F.);
#299=ORIENTED_EDGE('',*,*,#556,.F.);
#300=ORIENTED_EDGE('',*,*,#412,.T.);
#301=ORIENTED_EDGE('',*,*,#535,.T.);
#302=ORIENTED_EDGE('',*,*,#448,.F.);
#303=ORIENTED_EDGE('',*,*,#486,.F.);
#304=ORIENTED_EDGE('',*,*,#557,.T.);
#305=ORIENTED_EDGE('',*,*,#493,.T.);
#306=ORIENTED_EDGE('',*,*,#413,.F.);
#307=ORIENTED_EDGE('',*,*,#556,.T.);
#308=ORIENTED_EDGE('',*,*,#438,.T.);
#309=ORIENTED_EDGE('',*,*,#558,.F.);
#310=ORIENTED_EDGE('',*,*,#416,.T.);
#311=ORIENTED_EDGE('',*,*,#495,.F.);
#312=ORIENTED_EDGE('',*,*,#559,.F.);
#313=ORIENTED_EDGE('',*,*,#484,.T.);
#314=ORIENTED_EDGE('',*,*,#437,.F.);
#315=ORIENTED_EDGE('',*,*,#490,.F.);
#316=ORIENTED_EDGE('',*,*,#417,.T.);
#317=ORIENTED_EDGE('',*,*,#558,.T.);
#318=ORIENTED_EDGE('',*,*,#442,.F.);
#319=ORIENTED_EDGE('',*,*,#560,.F.);
#320=ORIENTED_EDGE('',*,*,#400,.T.);
#321=ORIENTED_EDGE('',*,*,#481,.T.);
#322=ORIENTED_EDGE('',*,*,#441,.F.);
#323=ORIENTED_EDGE('',*,*,#533,.F.);
#324=ORIENTED_EDGE('',*,*,#561,.T.);
#325=ORIENTED_EDGE('',*,*,#476,.T.);
#326=ORIENTED_EDGE('',*,*,#401,.F.);
#327=ORIENTED_EDGE('',*,*,#560,.T.);
#328=ORIENTED_EDGE('',*,*,#430,.T.);
#329=ORIENTED_EDGE('',*,*,#562,.F.);
#330=ORIENTED_EDGE('',*,*,#408,.T.);
#331=ORIENTED_EDGE('',*,*,#478,.F.);
#332=ORIENTED_EDGE('',*,*,#563,.F.);
#333=ORIENTED_EDGE('',*,*,#531,.T.);
#334=ORIENTED_EDGE('',*,*,#429,.F.);
#335=ORIENTED_EDGE('',*,*,#472,.F.);
#336=ORIENTED_EDGE('',*,*,#409,.T.);
#337=ORIENTED_EDGE('',*,*,#562,.T.);
#338=ORIENTED_EDGE('',*,*,#427,.T.);
#339=ORIENTED_EDGE('',*,*,#564,.F.);
#340=ORIENTED_EDGE('',*,*,#396,.F.);
#341=ORIENTED_EDGE('',*,*,#517,.T.);
#342=ORIENTED_EDGE('',*,*,#426,.F.);
#343=ORIENTED_EDGE('',*,*,#541,.F.);
#344=ORIENTED_EDGE('',*,*,#565,.T.);
#345=ORIENTED_EDGE('',*,*,#512,.T.);
#346=ORIENTED_EDGE('',*,*,#397,.F.);
#347=ORIENTED_EDGE('',*,*,#564,.T.);
#348=ORIENTED_EDGE('',*,*,#433,.T.);
#349=ORIENTED_EDGE('',*,*,#566,.F.);
#350=ORIENTED_EDGE('',*,*,#404,.T.);
#351=ORIENTED_EDGE('',*,*,#514,.F.);
#352=ORIENTED_EDGE('',*,*,#567,.F.);
#353=ORIENTED_EDGE('',*,*,#539,.T.);
#354=ORIENTED_EDGE('',*,*,#432,.T.);
#355=ORIENTED_EDGE('',*,*,#508,.F.);
#356=ORIENTED_EDGE('',*,*,#405,.F.);
#357=ORIENTED_EDGE('',*,*,#566,.T.);
#358=ORIENTED_EDGE('',*,*,#553,.F.);
#359=ORIENTED_EDGE('',*,*,#555,.T.);
#360=ORIENTED_EDGE('',*,*,#461,.F.);
#361=ORIENTED_EDGE('',*,*,#469,.F.);
#362=ORIENTED_EDGE('',*,*,#529,.F.);
#363=ORIENTED_EDGE('',*,*,#568,.T.);
#364=ORIENTED_EDGE('',*,*,#569,.T.);
#365=ORIENTED_EDGE('',*,*,#570,.F.);
#366=ORIENTED_EDGE('',*,*,#571,.T.);
#367=ORIENTED_EDGE('',*,*,#568,.F.);
#368=ORIENTED_EDGE('',*,*,#502,.F.);
#369=ORIENTED_EDGE('',*,*,#505,.T.);
#370=ORIENTED_EDGE('',*,*,#537,.F.);
#371=ORIENTED_EDGE('',*,*,#498,.F.);
#372=ORIENTED_EDGE('',*,*,#540,.F.);
#373=ORIENTED_EDGE('',*,*,#567,.T.);
#374=ORIENTED_EDGE('',*,*,#513,.F.);
#375=ORIENTED_EDGE('',*,*,#565,.F.);
#376=ORIENTED_EDGE('',*,*,#527,.F.);
#377=ORIENTED_EDGE('',*,*,#543,.F.);
#378=ORIENTED_EDGE('',*,*,#520,.T.);
#379=ORIENTED_EDGE('',*,*,#524,.F.);
#380=ORIENTED_EDGE('',*,*,#532,.T.);
#381=ORIENTED_EDGE('',*,*,#563,.T.);
#382=ORIENTED_EDGE('',*,*,#477,.T.);
#383=ORIENTED_EDGE('',*,*,#561,.F.);
#384=ORIENTED_EDGE('',*,*,#559,.T.);
#385=ORIENTED_EDGE('',*,*,#494,.T.);
#386=ORIENTED_EDGE('',*,*,#557,.F.);
#387=ORIENTED_EDGE('',*,*,#485,.T.);
#388=ORIENTED_EDGE('',*,*,#554,.T.);
#389=ORIENTED_EDGE('',*,*,#467,.F.);
#390=ORIENTED_EDGE('',*,*,#551,.F.);
#391=ORIENTED_EDGE('',*,*,#456,.F.);
#392=ORIENTED_EDGE('',*,*,#569,.F.);
#393=ORIENTED_EDGE('',*,*,#571,.F.);
#394=ORIENTED_EDGE('',*,*,#545,.F.);
#395=ORIENTED_EDGE('',*,*,#570,.T.);
#396=EDGE_CURVE('',#572,#573,#692,.T.);
#397=EDGE_CURVE('',#573,#574,#693,.T.);
#398=EDGE_CURVE('',#575,#574,#20,.T.);
#399=EDGE_CURVE('',#572,#575,#694,.T.);
#400=EDGE_CURVE('',#576,#577,#695,.T.);
#401=EDGE_CURVE('',#576,#578,#696,.T.);
#402=EDGE_CURVE('',#578,#579,#21,.T.);
#403=EDGE_CURVE('',#579,#577,#697,.T.);
#404=EDGE_CURVE('',#580,#581,#698,.T.);
#405=EDGE_CURVE('',#580,#582,#699,.T.);
#406=EDGE_CURVE('',#583,#582,#700,.T.);
#407=EDGE_CURVE('',#581,#583,#22,.T.);
#408=EDGE_CURVE('',#584,#585,#701,.T.);
#409=EDGE_CURVE('',#586,#584,#702,.T.);
#410=EDGE_CURVE('',#586,#587,#703,.T.);
#411=EDGE_CURVE('',#587,#585,#23,.T.);
#412=EDGE_CURVE('',#588,#589,#704,.T.);
#413=EDGE_CURVE('',#588,#590,#705,.T.);
#414=EDGE_CURVE('',#590,#591,#24,.T.);
#415=EDGE_CURVE('',#591,#589,#706,.T.);
#416=EDGE_CURVE('',#592,#593,#707,.T.);
#417=EDGE_CURVE('',#594,#592,#708,.T.);
#418=EDGE_CURVE('',#594,#595,#709,.T.);
#419=EDGE_CURVE('',#595,#593,#25,.T.);
#420=EDGE_CURVE('',#596,#597,#710,.T.);
#421=EDGE_CURVE('',#597,#598,#711,.T.);
#422=EDGE_CURVE('',#599,#598,#26,.T.);
#423=EDGE_CURVE('',#596,#599,#712,.T.);
#424=EDGE_CURVE('',#600,#601,#713,.T.);
#425=EDGE_CURVE('',#600,#602,#714,.T.);
#426=EDGE_CURVE('',#602,#603,#715,.T.);
#427=EDGE_CURVE('',#601,#603,#716,.T.);
#428=EDGE_CURVE('',#604,#605,#717,.T.);
#429=EDGE_CURVE('',#605,#606,#718,.T.);
#430=EDGE_CURVE('',#607,#606,#719,.T.);
#431=EDGE_CURVE('',#604,#607,#720,.T.);
#432=EDGE_CURVE('',#608,#609,#721,.T.);
#433=EDGE_CURVE('',#610,#608,#722,.T.);
#434=EDGE_CURVE('',#610,#611,#723,.T.);
#435=EDGE_CURVE('',#609,#611,#724,.T.);
#436=EDGE_CURVE('',#612,#613,#725,.T.);
#437=EDGE_CURVE('',#613,#614,#726,.T.);
#438=EDGE_CURVE('',#615,#614,#727,.T.);
#439=EDGE_CURVE('',#612,#615,#728,.T.);
#440=EDGE_CURVE('',#616,#617,#729,.T.);
#441=EDGE_CURVE('',#616,#618,#730,.T.);
#442=EDGE_CURVE('',#618,#619,#731,.T.);
#443=EDGE_CURVE('',#619,#617,#732,.T.);
#444=EDGE_CURVE('',#620,#621,#733,.T.);
#445=EDGE_CURVE('',#620,#622,#734,.T.);
#446=EDGE_CURVE('',#622,#623,#735,.T.);
#447=EDGE_CURVE('',#621,#623,#736,.T.);
#448=EDGE_CURVE('',#624,#625,#737,.T.);
#449=EDGE_CURVE('',#625,#626,#738,.T.);
#450=EDGE_CURVE('',#626,#627,#739,.T.);
#451=EDGE_CURVE('',#624,#627,#740,.T.);
#452=EDGE_CURVE('',#628,#629,#741,.T.);
#453=EDGE_CURVE('',#630,#628,#742,.T.);
#454=EDGE_CURVE('',#631,#630,#743,.T.);
#455=EDGE_CURVE('',#632,#631,#744,.T.);
#456=EDGE_CURVE('',#632,#633,#745,.T.);
#457=EDGE_CURVE('',#633,#622,#746,.T.);
#458=EDGE_CURVE('',#620,#629,#747,.T.);
#459=EDGE_CURVE('',#634,#628,#748,.T.);
#460=EDGE_CURVE('',#635,#634,#749,.T.);
#461=EDGE_CURVE('',#635,#636,#750,.T.);
#462=EDGE_CURVE('',#636,#637,#751,.T.);
#463=EDGE_CURVE('',#637,#630,#752,.T.);
#464=EDGE_CURVE('',#638,#634,#27,.T.);
#465=EDGE_CURVE('',#599,#638,#753,.T.);
#466=EDGE_CURVE('',#639,#598,#754,.T.);
#467=EDGE_CURVE('',#639,#640,#28,.T.);
#468=EDGE_CURVE('',#640,#641,#755,.T.);
#469=EDGE_CURVE('',#641,#635,#29,.T.);
#470=EDGE_CURVE('',#642,#643,#756,.T.);
#471=EDGE_CURVE('',#587,#643,#757,.T.);
#472=EDGE_CURVE('',#586,#605,#758,.T.);
#473=EDGE_CURVE('',#604,#642,#759,.T.);
#474=EDGE_CURVE('',#643,#644,#30,.T.);
#475=EDGE_CURVE('',#579,#644,#760,.T.);
#476=EDGE_CURVE('',#645,#578,#761,.T.);
#477=EDGE_CURVE('',#646,#645,#31,.T.);
#478=EDGE_CURVE('',#646,#585,#762,.T.);
#479=EDGE_CURVE('',#644,#647,#763,.T.);
#480=EDGE_CURVE('',#617,#647,#764,.T.);
#481=EDGE_CURVE('',#577,#619,#765,.T.);
#482=EDGE_CURVE('',#648,#649,#766,.T.);
#483=EDGE_CURVE('',#612,#649,#767,.T.);
#484=EDGE_CURVE('',#650,#615,#768,.T.);
#485=EDGE_CURVE('',#651,#650,#769,.T.);
#486=EDGE_CURVE('',#651,#624,#770,.T.);
#487=EDGE_CURVE('',#627,#648,#771,.T.);
#488=EDGE_CURVE('',#649,#652,#772,.T.);
#489=EDGE_CURVE('',#595,#652,#773,.T.);
#490=EDGE_CURVE('',#594,#613,#774,.T.);
#491=EDGE_CURVE('',#652,#653,#32,.T.);
#492=EDGE_CURVE('',#591,#653,#775,.T.);
#493=EDGE_CURVE('',#654,#590,#776,.T.);
#494=EDGE_CURVE('',#655,#654,#33,.T.);
#495=EDGE_CURVE('',#655,#593,#777,.T.);
#496=EDGE_CURVE('',#656,#657,#778,.T.);
#497=EDGE_CURVE('',#658,#656,#779,.T.);
#498=EDGE_CURVE('',#658,#659,#780,.T.);
#499=EDGE_CURVE('',#659,#657,#781,.T.);
#500=EDGE_CURVE('',#660,#656,#782,.T.);
#501=EDGE_CURVE('',#661,#660,#783,.T.);
#502=EDGE_CURVE('',#661,#658,#784,.T.);
#503=EDGE_CURVE('',#660,#662,#785,.T.);
#504=EDGE_CURVE('',#663,#662,#786,.T.);
#505=EDGE_CURVE('',#661,#663,#787,.T.);
#506=EDGE_CURVE('',#664,#665,#788,.T.);
#507=EDGE_CURVE('',#583,#664,#789,.T.);
#508=EDGE_CURVE('',#582,#609,#790,.T.);
#509=EDGE_CURVE('',#611,#665,#791,.T.);
#510=EDGE_CURVE('',#666,#664,#34,.T.);
#511=EDGE_CURVE('',#575,#666,#792,.T.);
#512=EDGE_CURVE('',#667,#574,#793,.T.);
#513=EDGE_CURVE('',#667,#668,#35,.T.);
#514=EDGE_CURVE('',#668,#581,#794,.T.);
#515=EDGE_CURVE('',#669,#666,#795,.T.);
#516=EDGE_CURVE('',#600,#669,#796,.T.);
#517=EDGE_CURVE('',#572,#601,#797,.T.);
#518=EDGE_CURVE('',#670,#671,#798,.T.);
#519=EDGE_CURVE('',#672,#671,#799,.T.);
#520=EDGE_CURVE('',#673,#672,#800,.T.);
#521=EDGE_CURVE('',#673,#670,#801,.T.);
#522=EDGE_CURVE('',#674,#671,#802,.T.);
#523=EDGE_CURVE('',#675,#674,#803,.T.);
#524=EDGE_CURVE('',#675,#672,#804,.T.);
#525=EDGE_CURVE('',#676,#674,#805,.T.);
#526=EDGE_CURVE('',#677,#676,#806,.T.);
#527=EDGE_CURVE('',#677,#675,#807,.T.);
#528=EDGE_CURVE('',#678,#678,#36,.T.);
#529=EDGE_CURVE('',#679,#679,#37,.T.);
#530=EDGE_CURVE('',#647,#642,#808,.T.);
#531=EDGE_CURVE('',#680,#607,#809,.T.);
#532=EDGE_CURVE('',#681,#680,#810,.T.);
#533=EDGE_CURVE('',#681,#616,#811,.T.);
#534=EDGE_CURVE('',#653,#648,#812,.T.);
#535=EDGE_CURVE('',#589,#626,#813,.T.);
#536=EDGE_CURVE('',#657,#662,#814,.T.);
#537=EDGE_CURVE('',#659,#663,#815,.T.);
#538=EDGE_CURVE('',#665,#669,#816,.T.);
#539=EDGE_CURVE('',#682,#610,#817,.T.);
#540=EDGE_CURVE('',#682,#683,#818,.T.);
#541=EDGE_CURVE('',#683,#602,#819,.T.);
#542=EDGE_CURVE('',#670,#676,#820,.T.);
#543=EDGE_CURVE('',#673,#677,#821,.T.);
#544=EDGE_CURVE('',#684,#684,#38,.T.);
#545=EDGE_CURVE('',#685,#685,#39,.T.);
#546=EDGE_CURVE('',#629,#638,#822,.T.);
#547=EDGE_CURVE('',#596,#621,#823,.T.);
#548=EDGE_CURVE('',#686,#637,#824,.T.);
#549=EDGE_CURVE('',#631,#686,#825,.T.);
#550=EDGE_CURVE('',#597,#623,#826,.T.);
#551=EDGE_CURVE('',#633,#639,#827,.T.);
#552=EDGE_CURVE('',#687,#686,#828,.T.);
#553=EDGE_CURVE('',#687,#641,#829,.T.);
#554=EDGE_CURVE('',#632,#640,#830,.T.);
#555=EDGE_CURVE('',#687,#636,#831,.T.);
#556=EDGE_CURVE('',#588,#625,#832,.T.);
#557=EDGE_CURVE('',#651,#654,#833,.T.);
#558=EDGE_CURVE('',#592,#614,#834,.T.);
#559=EDGE_CURVE('',#650,#655,#835,.T.);
#560=EDGE_CURVE('',#576,#618,#836,.T.);
#561=EDGE_CURVE('',#681,#645,#837,.T.);
#562=EDGE_CURVE('',#584,#606,#838,.T.);
#563=EDGE_CURVE('',#680,#646,#839,.T.);
#564=EDGE_CURVE('',#573,#603,#840,.T.);
#565=EDGE_CURVE('',#683,#667,#841,.T.);
#566=EDGE_CURVE('',#580,#608,#842,.T.);
#567=EDGE_CURVE('',#682,#668,#843,.T.);
#568=EDGE_CURVE('',#688,#688,#40,.T.);
#569=EDGE_CURVE('',#689,#689,#41,.T.);
#570=EDGE_CURVE('',#690,#690,#42,.T.);
#571=EDGE_CURVE('',#691,#691,#43,.T.);
#572=VERTEX_POINT('',#1718);
#573=VERTEX_POINT('',#1719);
#574=VERTEX_POINT('',#1721);
#575=VERTEX_POINT('',#1723);
#576=VERTEX_POINT('',#1727);
#577=VERTEX_POINT('',#1728);
#578=VERTEX_POINT('',#1730);
#579=VERTEX_POINT('',#1732);
#580=VERTEX_POINT('',#1736);
#581=VERTEX_POINT('',#1737);
#582=VERTEX_POINT('',#1739);
#583=VERTEX_POINT('',#1741);
#584=VERTEX_POINT('',#1745);
#585=VERTEX_POINT('',#1746);
#586=VERTEX_POINT('',#1748);
#587=VERTEX_POINT('',#1750);
#588=VERTEX_POINT('',#1754);
#589=VERTEX_POINT('',#1755);
#590=VERTEX_POINT('',#1757);
#591=VERTEX_POINT('',#1759);
#592=VERTEX_POINT('',#1763);
#593=VERTEX_POINT('',#1764);
#594=VERTEX_POINT('',#1766);
#595=VERTEX_POINT('',#1768);
#596=VERTEX_POINT('',#1772);
#597=VERTEX_POINT('',#1773);
#598=VERTEX_POINT('',#1775);
#599=VERTEX_POINT('',#1777);
#600=VERTEX_POINT('',#1781);
#601=VERTEX_POINT('',#1782);
#602=VERTEX_POINT('',#1784);
#603=VERTEX_POINT('',#1786);
#604=VERTEX_POINT('',#1790);
#605=VERTEX_POINT('',#1791);
#606=VERTEX_POINT('',#1793);
#607=VERTEX_POINT('',#1795);
#608=VERTEX_POINT('',#1799);
#609=VERTEX_POINT('',#1800);
#610=VERTEX_POINT('',#1802);
#611=VERTEX_POINT('',#1804);
#612=VERTEX_POINT('',#1808);
#613=VERTEX_POINT('',#1809);
#614=VERTEX_POINT('',#1811);
#615=VERTEX_POINT('',#1813);
#616=VERTEX_POINT('',#1817);
#617=VERTEX_POINT('',#1818);
#618=VERTEX_POINT('',#1820);
#619=VERTEX_POINT('',#1822);
#620=VERTEX_POINT('',#1826);
#621=VERTEX_POINT('',#1827);
#622=VERTEX_POINT('',#1829);
#623=VERTEX_POINT('',#1831);
#624=VERTEX_POINT('',#1835);
#625=VERTEX_POINT('',#1836);
#626=VERTEX_POINT('',#1838);
#627=VERTEX_POINT('',#1840);
#628=VERTEX_POINT('',#1844);
#629=VERTEX_POINT('',#1845);
#630=VERTEX_POINT('',#1847);
#631=VERTEX_POINT('',#1849);
#632=VERTEX_POINT('',#1851);
#633=VERTEX_POINT('',#1853);
#634=VERTEX_POINT('',#1858);
#635=VERTEX_POINT('',#1860);
#636=VERTEX_POINT('',#1862);
#637=VERTEX_POINT('',#1864);
#638=VERTEX_POINT('',#1868);
#639=VERTEX_POINT('',#1871);
#640=VERTEX_POINT('',#1873);
#641=VERTEX_POINT('',#1875);
#642=VERTEX_POINT('',#1879);
#643=VERTEX_POINT('',#1880);
#644=VERTEX_POINT('',#1886);
#645=VERTEX_POINT('',#1889);
#646=VERTEX_POINT('',#1891);
#647=VERTEX_POINT('',#1895);
#648=VERTEX_POINT('',#1900);
#649=VERTEX_POINT('',#1901);
#650=VERTEX_POINT('',#1904);
#651=VERTEX_POINT('',#1906);
#652=VERTEX_POINT('',#1911);
#653=VERTEX_POINT('',#1916);
#654=VERTEX_POINT('',#1919);
#655=VERTEX_POINT('',#1921);
#656=VERTEX_POINT('',#1925);
#657=VERTEX_POINT('',#1926);
#658=VERTEX_POINT('',#1928);
#659=VERTEX_POINT('',#1930);
#660=VERTEX_POINT('',#1934);
#661=VERTEX_POINT('',#1936);
#662=VERTEX_POINT('',#1940);
#663=VERTEX_POINT('',#1942);
#664=VERTEX_POINT('',#1946);
#665=VERTEX_POINT('',#1947);
#666=VERTEX_POINT('',#1953);
#667=VERTEX_POINT('',#1956);
#668=VERTEX_POINT('',#1958);
#669=VERTEX_POINT('',#1962);
#670=VERTEX_POINT('',#1967);
#671=VERTEX_POINT('',#1968);
#672=VERTEX_POINT('',#1970);
#673=VERTEX_POINT('',#1972);
#674=VERTEX_POINT('',#1976);
#675=VERTEX_POINT('',#1978);
#676=VERTEX_POINT('',#1982);
#677=VERTEX_POINT('',#1984);
#678=VERTEX_POINT('',#1988);
#679=VERTEX_POINT('',#1990);
#680=VERTEX_POINT('',#1994);
#681=VERTEX_POINT('',#1996);
#682=VERTEX_POINT('',#2007);
#683=VERTEX_POINT('',#2009);
#684=VERTEX_POINT('',#2016);
#685=VERTEX_POINT('',#2018);
#686=VERTEX_POINT('',#2024);
#687=VERTEX_POINT('',#2033);
#688=VERTEX_POINT('',#2065);
#689=VERTEX_POINT('',#2068);
#690=VERTEX_POINT('',#2070);
#691=VERTEX_POINT('',#2073);
#692=LINE('',#1717,#844);
#693=LINE('',#1720,#845);
#694=LINE('',#1724,#846);
#695=LINE('',#1726,#847);
#696=LINE('',#1729,#848);
#697=LINE('',#1733,#849);
#698=LINE('',#1735,#850);
#699=LINE('',#1738,#851);
#700=LINE('',#1740,#852);
#701=LINE('',#1744,#853);
#702=LINE('',#1747,#854);
#703=LINE('',#1749,#855);
#704=LINE('',#1753,#856);
#705=LINE('',#1756,#857);
#706=LINE('',#1760,#858);
#707=LINE('',#1762,#859);
#708=LINE('',#1765,#860);
#709=LINE('',#1767,#861);
#710=LINE('',#1771,#862);
#711=LINE('',#1774,#863);
#712=LINE('',#1778,#864);
#713=LINE('',#1780,#865);
#714=LINE('',#1783,#866);
#715=LINE('',#1785,#867);
#716=LINE('',#1787,#868);
#717=LINE('',#1789,#869);
#718=LINE('',#1792,#870);
#719=LINE('',#1794,#871);
#720=LINE('',#1796,#872);
#721=LINE('',#1798,#873);
#722=LINE('',#1801,#874);
#723=LINE('',#1803,#875);
#724=LINE('',#1805,#876);
#725=LINE('',#1807,#877);
#726=LINE('',#1810,#878);
#727=LINE('',#1812,#879);
#728=LINE('',#1814,#880);
#729=LINE('',#1816,#881);
#730=LINE('',#1819,#882);
#731=LINE('',#1821,#883);
#732=LINE('',#1823,#884);
#733=LINE('',#1825,#885);
#734=LINE('',#1828,#886);
#735=LINE('',#1830,#887);
#736=LINE('',#1832,#888);
#737=LINE('',#1834,#889);
#738=LINE('',#1837,#890);
#739=LINE('',#1839,#891);
#740=LINE('',#1841,#892);
#741=LINE('',#1843,#893);
#742=LINE('',#1846,#894);
#743=LINE('',#1848,#895);
#744=LINE('',#1850,#896);
#745=LINE('',#1852,#897);
#746=LINE('',#1854,#898);
#747=LINE('',#1855,#899);
#748=LINE('',#1857,#900);
#749=LINE('',#1859,#901);
#750=LINE('',#1861,#902);
#751=LINE('',#1863,#903);
#752=LINE('',#1865,#904);
#753=LINE('',#1869,#905);
#754=LINE('',#1870,#906);
#755=LINE('',#1874,#907);
#756=LINE('',#1878,#908);
#757=LINE('',#1881,#909);
#758=LINE('',#1882,#910);
#759=LINE('',#1883,#911);
#760=LINE('',#1887,#912);
#761=LINE('',#1888,#913);
#762=LINE('',#1892,#914);
#763=LINE('',#1894,#915);
#764=LINE('',#1896,#916);
#765=LINE('',#1897,#917);
#766=LINE('',#1899,#918);
#767=LINE('',#1902,#919);
#768=LINE('',#1903,#920);
#769=LINE('',#1905,#921);
#770=LINE('',#1907,#922);
#771=LINE('',#1908,#923);
#772=LINE('',#1910,#924);
#773=LINE('',#1912,#925);
#774=LINE('',#1913,#926);
#775=LINE('',#1917,#927);
#776=LINE('',#1918,#928);
#777=LINE('',#1922,#929);
#778=LINE('',#1924,#930);
#779=LINE('',#1927,#931);
#780=LINE('',#1929,#932);
#781=LINE('',#1931,#933);
#782=LINE('',#1933,#934);
#783=LINE('',#1935,#935);
#784=LINE('',#1937,#936);
#785=LINE('',#1939,#937);
#786=LINE('',#1941,#938);
#787=LINE('',#1943,#939);
#788=LINE('',#1945,#940);
#789=LINE('',#1948,#941);
#790=LINE('',#1949,#942);
#791=LINE('',#1950,#943);
#792=LINE('',#1954,#944);
#793=LINE('',#1955,#945);
#794=LINE('',#1959,#946);
#795=LINE('',#1961,#947);
#796=LINE('',#1963,#948);
#797=LINE('',#1964,#949);
#798=LINE('',#1966,#950);
#799=LINE('',#1969,#951);
#800=LINE('',#1971,#952);
#801=LINE('',#1973,#953);
#802=LINE('',#1975,#954);
#803=LINE('',#1977,#955);
#804=LINE('',#1979,#956);
#805=LINE('',#1981,#957);
#806=LINE('',#1983,#958);
#807=LINE('',#1985,#959);
#808=LINE('',#1992,#960);
#809=LINE('',#1993,#961);
#810=LINE('',#1995,#962);
#811=LINE('',#1997,#963);
#812=LINE('',#1999,#964);
#813=LINE('',#2000,#965);
#814=LINE('',#2002,#966);
#815=LINE('',#2003,#967);
#816=LINE('',#2005,#968);
#817=LINE('',#2006,#969);
#818=LINE('',#2008,#970);
#819=LINE('',#2010,#971);
#820=LINE('',#2012,#972);
#821=LINE('',#2013,#973);
#822=LINE('',#2020,#974);
#823=LINE('',#2021,#975);
#824=LINE('',#2023,#976);
#825=LINE('',#2025,#977);
#826=LINE('',#2028,#978);
#827=LINE('',#2030,#979);
#828=LINE('',#2032,#980);
#829=LINE('',#2034,#981);
#830=LINE('',#2035,#982);
#831=LINE('',#2037,#983);
#832=LINE('',#2039,#984);
#833=LINE('',#2041,#985);
#834=LINE('',#2043,#986);
#835=LINE('',#2044,#987);
#836=LINE('',#2047,#988);
#837=LINE('',#2049,#989);
#838=LINE('',#2051,#990);
#839=LINE('',#2052,#991);
#840=LINE('',#2055,#992);
#841=LINE('',#2057,#993);
#842=LINE('',#2059,#994);
#843=LINE('',#2060,#995);
#844=VECTOR('',#1389,1.);
#845=VECTOR('',#1390,1.);
#846=VECTOR('',#1393,1.);
#847=VECTOR('',#1396,1.);
#848=VECTOR('',#1397,1.);
#849=VECTOR('',#1400,1.);
#850=VECTOR('',#1403,1.);
#851=VECTOR('',#1404,1.);
#852=VECTOR('',#1405,1.);
#853=VECTOR('',#1410,1.);
#854=VECTOR('',#1411,1.);
#855=VECTOR('',#1412,1.);
#856=VECTOR('',#1417,1.);
#857=VECTOR('',#1418,1.);
#858=VECTOR('',#1421,1.);
#859=VECTOR('',#1424,1.);
#860=VECTOR('',#1425,1.);
#861=VECTOR('',#1426,1.);
#862=VECTOR('',#1431,1.);
#863=VECTOR('',#1432,1.);
#864=VECTOR('',#1435,1.);
#865=VECTOR('',#1438,1.);
#866=VECTOR('',#1439,1.);
#867=VECTOR('',#1440,1.);
#868=VECTOR('',#1441,1.);
#869=VECTOR('',#1444,1.);
#870=VECTOR('',#1445,1.);
#871=VECTOR('',#1446,1.);
#872=VECTOR('',#1447,1.);
#873=VECTOR('',#1450,1.);
#874=VECTOR('',#1451,1.);
#875=VECTOR('',#1452,1.);
#876=VECTOR('',#1453,1.);
#877=VECTOR('',#1456,1.);
#878=VECTOR('',#1457,1.);
#879=VECTOR('',#1458,1.);
#880=VECTOR('',#1459,1.);
#881=VECTOR('',#1462,1.);
#882=VECTOR('',#1463,1.);
#883=VECTOR('',#1464,1.);
#884=VECTOR('',#1465,1.);
#885=VECTOR('',#1468,1.);
#886=VECTOR('',#1469,1.);
#887=VECTOR('',#1470,1.);
#888=VECTOR('',#1471,1.);
#889=VECTOR('',#1474,1.);
#890=VECTOR('',#1475,1.);
#891=VECTOR('',#1476,1.);
#892=VECTOR('',#1477,1.);
#893=VECTOR('',#1480,1.);
#894=VECTOR('',#1481,1.);
#895=VECTOR('',#1482,1.);
#896=VECTOR('',#1483,1.);
#897=VECTOR('',#1484,1.);
#898=VECTOR('',#1485,1.);
#899=VECTOR('',#1486,1.);
#900=VECTOR('',#1489,1.);
#901=VECTOR('',#1490,1.);
#902=VECTOR('',#1491,1.);
#903=VECTOR('',#1492,1.);
#904=VECTOR('',#1493,1.);
#905=VECTOR('',#1498,1.);
#906=VECTOR('',#1499,1.);
#907=VECTOR('',#1502,1.);
#908=VECTOR('',#1507,1.);
#909=VECTOR('',#1508,1.);
#910=VECTOR('',#1509,1.);
#911=VECTOR('',#1510,1.);
#912=VECTOR('',#1515,1.);
#913=VECTOR('',#1516,1.);
#914=VECTOR('',#1519,1.);
#915=VECTOR('',#1522,1.);
#916=VECTOR('',#1523,1.);
#917=VECTOR('',#1524,1.);
#918=VECTOR('',#1527,1.);
#919=VECTOR('',#1528,1.);
#920=VECTOR('',#1529,1.);
#921=VECTOR('',#1530,1.);
#922=VECTOR('',#1531,1.);
#923=VECTOR('',#1532,1.);
#924=VECTOR('',#1535,1.);
#925=VECTOR('',#1536,1.);
#926=VECTOR('',#1537,1.);
#927=VECTOR('',#1542,1.);
#928=VECTOR('',#1543,1.);
#929=VECTOR('',#1546,1.);
#930=VECTOR('',#1549,1.);
#931=VECTOR('',#1550,1.);
#932=VECTOR('',#1551,1.);
#933=VECTOR('',#1552,1.);
#934=VECTOR('',#1555,1.);
#935=VECTOR('',#1556,1.);
#936=VECTOR('',#1557,1.);
#937=VECTOR('',#1560,1.);
#938=VECTOR('',#1561,1.);
#939=VECTOR('',#1562,1.);
#940=VECTOR('',#1565,1.);
#941=VECTOR('',#1566,1.);
#942=VECTOR('',#1567,1.);
#943=VECTOR('',#1568,1.);
#944=VECTOR('',#1573,1.);
#945=VECTOR('',#1574,1.);
#946=VECTOR('',#1577,1.);
#947=VECTOR('',#1580,1.);
#948=VECTOR('',#1581,1.);
#949=VECTOR('',#1582,1.);
#950=VECTOR('',#1585,1.);
#951=VECTOR('',#1586,1.);
#952=VECTOR('',#1587,1.);
#953=VECTOR('',#1588,1.);
#954=VECTOR('',#1591,1.);
#955=VECTOR('',#1592,1.);
#956=VECTOR('',#1593,1.);
#957=VECTOR('',#1596,1.);
#958=VECTOR('',#1597,1.);
#959=VECTOR('',#1598,1.);
#960=VECTOR('',#1607,1.);
#961=VECTOR('',#1608,1.);
#962=VECTOR('',#1609,1.);
#963=VECTOR('',#1610,1.);
#964=VECTOR('',#1613,1.);
#965=VECTOR('',#1614,1.);
#966=VECTOR('',#1617,1.);
#967=VECTOR('',#1618,1.);
#968=VECTOR('',#1621,1.);
#969=VECTOR('',#1622,1.);
#970=VECTOR('',#1623,1.);
#971=VECTOR('',#1624,1.);
#972=VECTOR('',#1627,1.);
#973=VECTOR('',#1628,1.);
#974=VECTOR('',#1637,1.);
#975=VECTOR('',#1638,1.);
#976=VECTOR('',#1641,1.);
#977=VECTOR('',#1642,1.);
#978=VECTOR('',#1647,1.);
#979=VECTOR('',#1650,1.);
#980=VECTOR('',#1653,1.);
#981=VECTOR('',#1654,1.);
#982=VECTOR('',#1655,1.);
#983=VECTOR('',#1658,1.);
#984=VECTOR('',#1661,1.);
#985=VECTOR('',#1664,1.);
#986=VECTOR('',#1667,1.);
#987=VECTOR('',#1668,1.);
#988=VECTOR('',#1673,1.);
#989=VECTOR('',#1676,1.);
#990=VECTOR('',#1679,1.);
#991=VECTOR('',#1680,1.);
#992=VECTOR('',#1685,1.);
#993=VECTOR('',#1688,1.);
#994=VECTOR('',#1691,1.);
#995=VECTOR('',#1692,1.);
#996=EDGE_LOOP('',(#44,#45,#46,#47));
#997=EDGE_LOOP('',(#48,#49,#50,#51));
#998=EDGE_LOOP('',(#52,#53,#54,#55));
#999=EDGE_LOOP('',(#56,#57,#58,#59));
#1000=EDGE_LOOP('',(#60,#61,#62,#63));
#1001=EDGE_LOOP('',(#64,#65,#66,#67));
#1002=EDGE_LOOP('',(#68,#69,#70,#71));
#1003=EDGE_LOOP('',(#72,#73,#74,#75));
#1004=EDGE_LOOP('',(#76,#77,#78,#79));
#1005=EDGE_LOOP('',(#80,#81,#82,#83));
#1006=EDGE_LOOP('',(#84,#85,#86,#87));
#1007=EDGE_LOOP('',(#88,#89,#90,#91));
#1008=EDGE_LOOP('',(#92,#93,#94,#95));
#1009=EDGE_LOOP('',(#96,#97,#98,#99));
#1010=EDGE_LOOP('',(#100,#101,#102,#103,#104,#105,#106,#107));
#1011=EDGE_LOOP('',(#108,#109,#110,#111,#112,#113));
#1012=EDGE_LOOP('',(#114,#115,#116,#117,#118,#119,#120,#121));
#1013=EDGE_LOOP('',(#122,#123,#124,#125,#126,#127));
#1014=EDGE_LOOP('',(#128,#129,#130,#131,#132,#133,#134,#135));
#1015=EDGE_LOOP('',(#136,#137,#138,#139,#140,#141));
#1016=EDGE_LOOP('',(#142,#143,#144,#145,#146,#147,#148,#149));
#1017=EDGE_LOOP('',(#150,#151,#152,#153,#154,#155));
#1018=EDGE_LOOP('',(#156,#157,#158,#159,#160,#161,#162,#163));
#1019=EDGE_LOOP('',(#164,#165,#166,#167));
#1020=EDGE_LOOP('',(#168,#169,#170,#171));
#1021=EDGE_LOOP('',(#172,#173,#174,#175));
#1022=EDGE_LOOP('',(#176,#177,#178,#179,#180,#181));
#1023=EDGE_LOOP('',(#182,#183,#184,#185,#186,#187,#188,#189));
#1024=EDGE_LOOP('',(#190,#191,#192,#193,#194,#195));
#1025=EDGE_LOOP('',(#196,#197,#198,#199));
#1026=EDGE_LOOP('',(#200,#201,#202,#203));
#1027=EDGE_LOOP('',(#204,#205,#206,#207));
#1028=EDGE_LOOP('',(#208));
#1029=EDGE_LOOP('',(#209));
#1030=EDGE_LOOP('',(#210,#211,#212,#213,#214,#215,#216,#217));
#1031=EDGE_LOOP('',(#218,#219,#220,#221,#222,#223));
#1032=EDGE_LOOP('',(#224,#225,#226,#227));
#1033=EDGE_LOOP('',(#228,#229,#230,#231,#232,#233,#234,#235));
#1034=EDGE_LOOP('',(#236,#237,#238,#239));
#1035=EDGE_LOOP('',(#240));
#1036=EDGE_LOOP('',(#241));
#1037=EDGE_LOOP('',(#242,#243,#244,#245,#246,#247));
#1038=EDGE_LOOP('',(#248,#249,#250,#251));
#1039=EDGE_LOOP('',(#252));
#1040=EDGE_LOOP('',(#253,#254,#255,#256));
#1041=EDGE_LOOP('',(#257,#258,#259,#260));
#1042=EDGE_LOOP('',(#261,#262,#263,#264));
#1043=EDGE_LOOP('',(#265,#266,#267,#268));
#1044=EDGE_LOOP('',(#269,#270,#271,#272));
#1045=EDGE_LOOP('',(#273));
#1046=EDGE_LOOP('',(#274,#275,#276,#277));
#1047=EDGE_LOOP('',(#278,#279,#280,#281));
#1048=EDGE_LOOP('',(#282,#283,#284,#285,#286,#287));
#1049=EDGE_LOOP('',(#288,#289,#290,#291,#292,#293));
#1050=EDGE_LOOP('',(#294,#295,#296,#297));
#1051=EDGE_LOOP('',(#298,#299,#300,#301));
#1052=EDGE_LOOP('',(#302,#303,#304,#305,#306,#307));
#1053=EDGE_LOOP('',(#308,#309,#310,#311,#312,#313));
#1054=EDGE_LOOP('',(#314,#315,#316,#317));
#1055=EDGE_LOOP('',(#318,#319,#320,#321));
#1056=EDGE_LOOP('',(#322,#323,#324,#325,#326,#327));
#1057=EDGE_LOOP('',(#328,#329,#330,#331,#332,#333));
#1058=EDGE_LOOP('',(#334,#335,#336,#337));
#1059=EDGE_LOOP('',(#338,#339,#340,#341));
#1060=EDGE_LOOP('',(#342,#343,#344,#345,#346,#347));
#1061=EDGE_LOOP('',(#348,#349,#350,#351,#352,#353));
#1062=EDGE_LOOP('',(#354,#355,#356,#357));
#1063=EDGE_LOOP('',(#358,#359,#360,#361));
#1064=EDGE_LOOP('',(#362));
#1065=EDGE_LOOP('',(#363));
#1066=EDGE_LOOP('',(#364));
#1067=EDGE_LOOP('',(#365));
#1068=EDGE_LOOP('',(#366));
#1069=EDGE_LOOP('',(#367));
#1070=EDGE_LOOP('',(#368,#369,#370,#371));
#1071=EDGE_LOOP('',(#372,#373,#374,#375));
#1072=EDGE_LOOP('',(#376,#377,#378,#379));
#1073=EDGE_LOOP('',(#380,#381,#382,#383));
#1074=EDGE_LOOP('',(#384,#385,#386,#387));
#1075=EDGE_LOOP('',(#388,#389,#390,#391));
#1076=EDGE_LOOP('',(#392));
#1077=EDGE_LOOP('',(#393));
#1078=EDGE_LOOP('',(#394));
#1079=EDGE_LOOP('',(#395));
#1080=FACE_BOUND('',#996,.T.);
#1081=FACE_BOUND('',#997,.T.);
#1082=FACE_BOUND('',#998,.T.);
#1083=FACE_BOUND('',#999,.T.);
#1084=FACE_BOUND('',#1000,.T.);
#1085=FACE_BOUND('',#1001,.T.);
#1086=FACE_BOUND('',#1002,.T.);
#1087=FACE_BOUND('',#1003,.T.);
#1088=FACE_BOUND('',#1004,.T.);
#1089=FACE_BOUND('',#1005,.T.);
#1090=FACE_BOUND('',#1006,.T.);
#1091=FACE_BOUND('',#1007,.T.);
#1092=FACE_BOUND('',#1008,.T.);
#1093=FACE_BOUND('',#1009,.T.);
#1094=FACE_BOUND('',#1010,.T.);
#1095=FACE_BOUND('',#1011,.T.);
#1096=FACE_BOUND('',#1012,.T.);
#1097=FACE_BOUND('',#1013,.T.);
#1098=FACE_BOUND('',#1014,.T.);
#1099=FACE_BOUND('',#1015,.T.);
#1100=FACE_BOUND('',#1016,.T.);
#1101=FACE_BOUND('',#1017,.T.);
#1102=FACE_BOUND('',#1018,.T.);
#1103=FACE_BOUND('',#1019,.T.);
#1104=FACE_BOUND('',#1020,.T.);
#1105=FACE_BOUND('',#1021,.T.);
#1106=FACE_BOUND('',#1022,.T.);
#1107=FACE_BOUND('',#1023,.T.);
#1108=FACE_BOUND('',#1024,.T.);
#1109=FACE_BOUND('',#1025,.T.);
#1110=FACE_BOUND('',#1026,.T.);
#1111=FACE_BOUND('',#1027,.T.);
#1112=FACE_BOUND('',#1028,.T.);
#1113=FACE_BOUND('',#1029,.T.);
#1114=FACE_BOUND('',#1030,.T.);
#1115=FACE_BOUND('',#1031,.T.);
#1116=FACE_BOUND('',#1032,.T.);
#1117=FACE_BOUND('',#1033,.T.);
#1118=FACE_BOUND('',#1034,.T.);
#1119=FACE_BOUND('',#1035,.T.);
#1120=FACE_BOUND('',#1036,.T.);
#1121=FACE_BOUND('',#1037,.T.);
#1122=FACE_BOUND('',#1038,.T.);
#1123=FACE_BOUND('',#1039,.T.);
#1124=FACE_BOUND('',#1040,.T.);
#1125=FACE_BOUND('',#1041,.T.);
#1126=FACE_BOUND('',#1042,.T.);
#1127=FACE_BOUND('',#1043,.T.);
#1128=FACE_BOUND('',#1044,.T.);
#1129=FACE_BOUND('',#1045,.T.);
#1130=FACE_BOUND('',#1046,.T.);
#1131=FACE_BOUND('',#1047,.T.);
#1132=FACE_BOUND('',#1048,.T.);
#1133=FACE_BOUND('',#1049,.T.);
#1134=FACE_BOUND('',#1050,.T.);
#1135=FACE_BOUND('',#1051,.T.);
#1136=FACE_BOUND('',#1052,.T.);
#1137=FACE_BOUND('',#1053,.T.);
#1138=FACE_BOUND('',#1054,.T.);
#1139=FACE_BOUND('',#1055,.T.);
#1140=FACE_BOUND('',#1056,.T.);
#1141=FACE_BOUND('',#1057,.T.);
#1142=FACE_BOUND('',#1058,.T.);
#1143=FACE_BOUND('',#1059,.T.);
#1144=FACE_BOUND('',#1060,.T.);
#1145=FACE_BOUND('',#1061,.T.);
#1146=FACE_BOUND('',#1062,.T.);
#1147=FACE_BOUND('',#1063,.T.);
#1148=FACE_BOUND('',#1064,.T.);
#1149=FACE_BOUND('',#1065,.T.);
#1150=FACE_BOUND('',#1066,.T.);
#1151=FACE_BOUND('',#1067,.T.);
#1152=FACE_BOUND('',#1068,.T.);
#1153=FACE_BOUND('',#1069,.T.);
#1154=FACE_BOUND('',#1070,.T.);
#1155=FACE_BOUND('',#1071,.T.);
#1156=FACE_BOUND('',#1072,.T.);
#1157=FACE_BOUND('',#1073,.T.);
#1158=FACE_BOUND('',#1074,.T.);
#1159=FACE_BOUND('',#1075,.T.);
#1160=FACE_BOUND('',#1076,.T.);
#1161=FACE_BOUND('',#1077,.T.);
#1162=FACE_BOUND('',#1078,.T.);
#1163=FACE_BOUND('',#1079,.T.);
#1164=PLANE('',#1297);
#1165=PLANE('',#1299);
#1166=PLANE('',#1301);
#1167=PLANE('',#1303);
#1168=PLANE('',#1305);
#1169=PLANE('',#1307);
#1170=PLANE('',#1309);
#1171=PLANE('',#1311);
#1172=PLANE('',#1312);
#1173=PLANE('',#1313);
#1174=PLANE('',#1314);
#1175=PLANE('',#1315);
#1176=PLANE('',#1316);
#1177=PLANE('',#1317);
#1178=PLANE('',#1318);
#1179=PLANE('',#1319);
#1180=PLANE('',#1324);
#1181=PLANE('',#1328);
#1182=PLANE('',#1329);
#1183=PLANE('',#1330);
#1184=PLANE('',#1334);
#1185=PLANE('',#1335);
#1186=PLANE('',#1336);
#1187=PLANE('',#1337);
#1188=PLANE('',#1341);
#1189=PLANE('',#1342);
#1190=PLANE('',#1343);
#1191=PLANE('',#1344);
#1192=PLANE('',#1348);
#1193=PLANE('',#1349);
#1194=PLANE('',#1350);
#1195=PLANE('',#1351);
#1196=PLANE('',#1352);
#1197=PLANE('',#1356);
#1198=PLANE('',#1357);
#1199=PLANE('',#1358);
#1200=PLANE('',#1359);
#1201=PLANE('',#1360);
#1202=PLANE('',#1361);
#1203=PLANE('',#1362);
#1204=PLANE('',#1363);
#1205=PLANE('',#1364);
#1206=PLANE('',#1365);
#1207=PLANE('',#1366);
#1208=PLANE('',#1367);
#1209=PLANE('',#1368);
#1210=PLANE('',#1369);
#1211=PLANE('',#1370);
#1212=PLANE('',#1371);
#1213=PLANE('',#1372);
#1214=PLANE('',#1373);
#1215=PLANE('',#1374);
#1216=PLANE('',#1375);
#1217=PLANE('',#1376);
#1218=PLANE('',#1383);
#1219=PLANE('',#1384);
#1220=ADVANCED_FACE('',(#1080),#1164,.T.);
#1221=ADVANCED_FACE('',(#1081),#1165,.T.);
#1222=ADVANCED_FACE('',(#1082),#1166,.T.);
#1223=ADVANCED_FACE('',(#1083),#1167,.T.);
#1224=ADVANCED_FACE('',(#1084),#1168,.T.);
#1225=ADVANCED_FACE('',(#1085),#1169,.T.);
#1226=ADVANCED_FACE('',(#1086),#1170,.T.);
#1227=ADVANCED_FACE('',(#1087),#1171,.T.);
#1228=ADVANCED_FACE('',(#1088),#1172,.T.);
#1229=ADVANCED_FACE('',(#1089),#1173,.T.);
#1230=ADVANCED_FACE('',(#1090),#1174,.T.);
#1231=ADVANCED_FACE('',(#1091),#1175,.T.);
#1232=ADVANCED_FACE('',(#1092),#1176,.T.);
#1233=ADVANCED_FACE('',(#1093),#1177,.T.);
#1234=ADVANCED_FACE('',(#1094),#1178,.T.);
#1235=ADVANCED_FACE('',(#1095),#1179,.T.);
#1236=ADVANCED_FACE('',(#1096),#12,.F.);
#1237=ADVANCED_FACE('',(#1097),#1180,.F.);
#1238=ADVANCED_FACE('',(#1098),#13,.F.);
#1239=ADVANCED_FACE('',(#1099),#1181,.F.);
#1240=ADVANCED_FACE('',(#1100),#1182,.F.);
#1241=ADVANCED_FACE('',(#1101),#1183,.F.);
#1242=ADVANCED_FACE('',(#1102),#14,.F.);
#1243=ADVANCED_FACE('',(#1103),#1184,.T.);
#1244=ADVANCED_FACE('',(#1104),#1185,.T.);
#1245=ADVANCED_FACE('',(#1105),#1186,.F.);
#1246=ADVANCED_FACE('',(#1106),#1187,.T.);
#1247=ADVANCED_FACE('',(#1107),#15,.F.);
#1248=ADVANCED_FACE('',(#1108),#1188,.T.);
#1249=ADVANCED_FACE('',(#1109),#1189,.F.);
#1250=ADVANCED_FACE('',(#1110),#1190,.T.);
#1251=ADVANCED_FACE('',(#1111),#1191,.T.);
#1252=ADVANCED_FACE('',(#1112,#1113),#16,.F.);
#1253=ADVANCED_FACE('',(#1114),#1192,.F.);
#1254=ADVANCED_FACE('',(#1115),#1193,.F.);
#1255=ADVANCED_FACE('',(#1116),#1194,.T.);
#1256=ADVANCED_FACE('',(#1117),#1195,.T.);
#1257=ADVANCED_FACE('',(#1118),#1196,.T.);
#1258=ADVANCED_FACE('',(#1119,#1120),#17,.F.);
#1259=ADVANCED_FACE('',(#1121),#1197,.T.);
#1260=ADVANCED_FACE('',(#1122),#1198,.T.);
#1261=ADVANCED_FACE('',(#1123,#1124,#1125,#1126,#1127,#1128,#1129,#1130),
#1199,.F.);
#1262=ADVANCED_FACE('',(#1131),#1200,.F.);
#1263=ADVANCED_FACE('',(#1132),#1201,.T.);
#1264=ADVANCED_FACE('',(#1133),#1202,.F.);
#1265=ADVANCED_FACE('',(#1134),#1203,.F.);
#1266=ADVANCED_FACE('',(#1135),#1204,.T.);
#1267=ADVANCED_FACE('',(#1136),#1205,.T.);
#1268=ADVANCED_FACE('',(#1137),#1206,.F.);
#1269=ADVANCED_FACE('',(#1138),#1207,.T.);
#1270=ADVANCED_FACE('',(#1139),#1208,.T.);
#1271=ADVANCED_FACE('',(#1140),#1209,.T.);
#1272=ADVANCED_FACE('',(#1141),#1210,.F.);
#1273=ADVANCED_FACE('',(#1142),#1211,.T.);
#1274=ADVANCED_FACE('',(#1143),#1212,.F.);
#1275=ADVANCED_FACE('',(#1144),#1213,.T.);
#1276=ADVANCED_FACE('',(#1145),#1214,.F.);
#1277=ADVANCED_FACE('',(#1146),#1215,.F.);
#1278=ADVANCED_FACE('',(#1147),#1216,.T.);
#1279=ADVANCED_FACE('',(#1148,#1149),#1217,.F.);
#1280=ADVANCED_FACE('',(#1150,#1151),#18,.F.);
#1281=ADVANCED_FACE('',(#1152,#1153),#19,.F.);
#1282=ADVANCED_FACE('',(#1154,#1155,#1156,#1157,#1158,#1159,#1160,#1161),
#1218,.T.);
#1283=ADVANCED_FACE('',(#1162,#1163),#1219,.F.);
#1284=CLOSED_SHELL('',(#1220,#1221,#1222,#1223,#1224,#1225,#1226,#1227,
#1228,#1229,#1230,#1231,#1232,#1233,#1234,#1235,#1236,#1237,#1238,#1239,
#1240,#1241,#1242,#1243,#1244,#1245,#1246,#1247,#1248,#1249,#1250,#1251,
#1252,#1253,#1254,#1255,#1256,#1257,#1258,#1259,#1260,#1261,#1262,#1263,
#1264,#1265,#1266,#1267,#1268,#1269,#1270,#1271,#1272,#1273,#1274,#1275,
#1276,#1277,#1278,#1279,#1280,#1281,#1282,#1283));
#1285=STYLED_ITEM('',(#1286),#1293);
#1286=PRESENTATION_STYLE_ASSIGNMENT((#1287));
#1287=SURFACE_STYLE_USAGE(.BOTH.,#1288);
#1288=SURFACE_SIDE_STYLE('',(#1289));
#1289=SURFACE_STYLE_FILL_AREA(#1290);
#1290=FILL_AREA_STYLE('',(#1291));
#1291=FILL_AREA_STYLE_COLOUR('',#1292);
#1292=COLOUR_RGB('',0.615686274509804,0.811764705882353,0.929411764705882);
#1293=MANIFOLD_SOLID_BREP('Base',#1284);
#1294=SHAPE_DEFINITION_REPRESENTATION(#2082,#1295);
#1295=SHAPE_REPRESENTATION('Base',(#1296),#2077);
#1296=AXIS2_PLACEMENT_3D('',#1715,#1385,#1386);
#1297=AXIS2_PLACEMENT_3D('',#1716,#1387,#1388);
#1298=AXIS2_PLACEMENT_3D('',#1722,#1391,#1392);
#1299=AXIS2_PLACEMENT_3D('',#1725,#1394,#1395);
#1300=AXIS2_PLACEMENT_3D('',#1731,#1398,#1399);
#1301=AXIS2_PLACEMENT_3D('',#1734,#1401,#1402);
#1302=AXIS2_PLACEMENT_3D('',#1742,#1406,#1407);
#1303=AXIS2_PLACEMENT_3D('',#1743,#1408,#1409);
#1304=AXIS2_PLACEMENT_3D('',#1751,#1413,#1414);
#1305=AXIS2_PLACEMENT_3D('',#1752,#1415,#1416);
#1306=AXIS2_PLACEMENT_3D('',#1758,#1419,#1420);
#1307=AXIS2_PLACEMENT_3D('',#1761,#1422,#1423);
#1308=AXIS2_PLACEMENT_3D('',#1769,#1427,#1428);
#1309=AXIS2_PLACEMENT_3D('',#1770,#1429,#1430);
#1310=AXIS2_PLACEMENT_3D('',#1776,#1433,#1434);
#1311=AXIS2_PLACEMENT_3D('',#1779,#1436,#1437);
#1312=AXIS2_PLACEMENT_3D('',#1788,#1442,#1443);
#1313=AXIS2_PLACEMENT_3D('',#1797,#1448,#1449);
#1314=AXIS2_PLACEMENT_3D('',#1806,#1454,#1455);
#1315=AXIS2_PLACEMENT_3D('',#1815,#1460,#1461);
#1316=AXIS2_PLACEMENT_3D('',#1824,#1466,#1467);
#1317=AXIS2_PLACEMENT_3D('',#1833,#1472,#1473);
#1318=AXIS2_PLACEMENT_3D('',#1842,#1478,#1479);
#1319=AXIS2_PLACEMENT_3D('',#1856,#1487,#1488);
#1320=AXIS2_PLACEMENT_3D('',#1866,#1494,#1495);
#1321=AXIS2_PLACEMENT_3D('',#1867,#1496,#1497);
#1322=AXIS2_PLACEMENT_3D('',#1872,#1500,#1501);
#1323=AXIS2_PLACEMENT_3D('',#1876,#1503,#1504);
#1324=AXIS2_PLACEMENT_3D('',#1877,#1505,#1506);
#1325=AXIS2_PLACEMENT_3D('',#1884,#1511,#1512);
#1326=AXIS2_PLACEMENT_3D('',#1885,#1513,#1514);
#1327=AXIS2_PLACEMENT_3D('',#1890,#1517,#1518);
#1328=AXIS2_PLACEMENT_3D('',#1893,#1520,#1521);
#1329=AXIS2_PLACEMENT_3D('',#1898,#1525,#1526);
#1330=AXIS2_PLACEMENT_3D('',#1909,#1533,#1534);
#1331=AXIS2_PLACEMENT_3D('',#1914,#1538,#1539);
#1332=AXIS2_PLACEMENT_3D('',#1915,#1540,#1541);
#1333=AXIS2_PLACEMENT_3D('',#1920,#1544,#1545);
#1334=AXIS2_PLACEMENT_3D('',#1923,#1547,#1548);
#1335=AXIS2_PLACEMENT_3D('',#1932,#1553,#1554);
#1336=AXIS2_PLACEMENT_3D('',#1938,#1558,#1559);
#1337=AXIS2_PLACEMENT_3D('',#1944,#1563,#1564);
#1338=AXIS2_PLACEMENT_3D('',#1951,#1569,#1570);
#1339=AXIS2_PLACEMENT_3D('',#1952,#1571,#1572);
#1340=AXIS2_PLACEMENT_3D('',#1957,#1575,#1576);
#1341=AXIS2_PLACEMENT_3D('',#1960,#1578,#1579);
#1342=AXIS2_PLACEMENT_3D('',#1965,#1583,#1584);
#1343=AXIS2_PLACEMENT_3D('',#1974,#1589,#1590);
#1344=AXIS2_PLACEMENT_3D('',#1980,#1594,#1595);
#1345=AXIS2_PLACEMENT_3D('',#1986,#1599,#1600);
#1346=AXIS2_PLACEMENT_3D('',#1987,#1601,#1602);
#1347=AXIS2_PLACEMENT_3D('',#1989,#1603,#1604);
#1348=AXIS2_PLACEMENT_3D('',#1991,#1605,#1606);
#1349=AXIS2_PLACEMENT_3D('',#1998,#1611,#1612);
#1350=AXIS2_PLACEMENT_3D('',#2001,#1615,#1616);
#1351=AXIS2_PLACEMENT_3D('',#2004,#1619,#1620);
#1352=AXIS2_PLACEMENT_3D('',#2011,#1625,#1626);
#1353=AXIS2_PLACEMENT_3D('',#2014,#1629,#1630);
#1354=AXIS2_PLACEMENT_3D('',#2015,#1631,#1632);
#1355=AXIS2_PLACEMENT_3D('',#2017,#1633,#1634);
#1356=AXIS2_PLACEMENT_3D('',#2019,#1635,#1636);
#1357=AXIS2_PLACEMENT_3D('',#2022,#1639,#1640);
#1358=AXIS2_PLACEMENT_3D('',#2026,#1643,#1644);
#1359=AXIS2_PLACEMENT_3D('',#2027,#1645,#1646);
#1360=AXIS2_PLACEMENT_3D('',#2029,#1648,#1649);
#1361=AXIS2_PLACEMENT_3D('',#2031,#1651,#1652);
#1362=AXIS2_PLACEMENT_3D('',#2036,#1656,#1657);
#1363=AXIS2_PLACEMENT_3D('',#2038,#1659,#1660);
#1364=AXIS2_PLACEMENT_3D('',#2040,#1662,#1663);
#1365=AXIS2_PLACEMENT_3D('',#2042,#1665,#1666);
#1366=AXIS2_PLACEMENT_3D('',#2045,#1669,#1670);
#1367=AXIS2_PLACEMENT_3D('',#2046,#1671,#1672);
#1368=AXIS2_PLACEMENT_3D('',#2048,#1674,#1675);
#1369=AXIS2_PLACEMENT_3D('',#2050,#1677,#1678);
#1370=AXIS2_PLACEMENT_3D('',#2053,#1681,#1682);
#1371=AXIS2_PLACEMENT_3D('',#2054,#1683,#1684);
#1372=AXIS2_PLACEMENT_3D('',#2056,#1686,#1687);
#1373=AXIS2_PLACEMENT_3D('',#2058,#1689,#1690);
#1374=AXIS2_PLACEMENT_3D('',#2061,#1693,#1694);
#1375=AXIS2_PLACEMENT_3D('',#2062,#1695,#1696);
#1376=AXIS2_PLACEMENT_3D('',#2063,#1697,#1698);
#1377=AXIS2_PLACEMENT_3D('',#2064,#1699,#1700);
#1378=AXIS2_PLACEMENT_3D('',#2066,#1701,#1702);
#1379=AXIS2_PLACEMENT_3D('',#2067,#1703,#1704);
#1380=AXIS2_PLACEMENT_3D('',#2069,#1705,#1706);
#1381=AXIS2_PLACEMENT_3D('',#2071,#1707,#1708);
#1382=AXIS2_PLACEMENT_3D('',#2072,#1709,#1710);
#1383=AXIS2_PLACEMENT_3D('',#2074,#1711,#1712);
#1384=AXIS2_PLACEMENT_3D('',#2075,#1713,#1714);
#1385=DIRECTION('',(0.,0.,1.));
#1386=DIRECTION('',(1.,0.,0.));
#1387=DIRECTION('',(0.,0.,1.));
#1388=DIRECTION('',(1.,0.,0.));
#1389=DIRECTION('',(1.,0.,0.));
#1390=DIRECTION('',(0.,1.,0.));
#1391=DIRECTION('',(0.,0.,1.));
#1392=DIRECTION('',(-1.,0.,0.));
#1393=DIRECTION('',(0.,1.,0.));
#1394=DIRECTION('',(0.,0.,1.));
#1395=DIRECTION('',(1.,0.,0.));
#1396=DIRECTION('',(-1.,0.,0.));
#1397=DIRECTION('',(0.,1.,0.));
#1398=DIRECTION('',(0.,0.,-1.));
#1399=DIRECTION('',(1.,0.,0.));
#1400=DIRECTION('',(0.,-1.,0.));
#1401=DIRECTION('',(0.,0.,1.));
#1402=DIRECTION('',(1.,0.,0.));
#1403=DIRECTION('',(0.,1.,0.));
#1404=DIRECTION('',(1.,0.,0.));
#1405=DIRECTION('',(0.,-1.,0.));
#1406=DIRECTION('',(0.,0.,1.));
#1407=DIRECTION('',(-1.,0.,0.));
#1408=DIRECTION('',(0.,0.,1.));
#1409=DIRECTION('',(1.,0.,0.));
#1410=DIRECTION('',(0.,1.,0.));
#1411=DIRECTION('',(-1.,0.,0.));
#1412=DIRECTION('',(0.,1.,0.));
#1413=DIRECTION('',(0.,0.,-1.));
#1414=DIRECTION('',(1.,0.,0.));
#1415=DIRECTION('',(0.,0.,1.));
#1416=DIRECTION('',(1.,0.,0.));
#1417=DIRECTION('',(-1.,0.,0.));
#1418=DIRECTION('',(0.,1.,0.));
#1419=DIRECTION('',(0.,0.,-1.));
#1420=DIRECTION('',(1.,0.,0.));
#1421=DIRECTION('',(0.,-1.,0.));
#1422=DIRECTION('',(0.,0.,1.));
#1423=DIRECTION('',(1.,0.,0.));
#1424=DIRECTION('',(0.,1.,0.));
#1425=DIRECTION('',(-1.,0.,0.));
#1426=DIRECTION('',(0.,1.,0.));
#1427=DIRECTION('',(0.,0.,-1.));
#1428=DIRECTION('',(1.,0.,0.));
#1429=DIRECTION('',(0.,0.,1.));
#1430=DIRECTION('',(1.,0.,0.));
#1431=DIRECTION('',(1.,0.,0.));
#1432=DIRECTION('',(0.,1.,0.));
#1433=DIRECTION('',(0.,0.,1.));
#1434=DIRECTION('',(-1.,1.02482125350026E-13,0.));
#1435=DIRECTION('',(0.,1.,0.));
#1436=DIRECTION('',(0.,0.,1.));
#1437=DIRECTION('',(1.,0.,0.));
#1438=DIRECTION('',(0.,1.,0.));
#1439=DIRECTION('',(1.,0.,0.));
#1440=DIRECTION('',(0.,1.,0.));
#1441=DIRECTION('',(1.,0.,0.));
#1442=DIRECTION('',(0.,0.,1.));
#1443=DIRECTION('',(1.,0.,0.));
#1444=DIRECTION('',(0.,1.,0.));
#1445=DIRECTION('',(-1.,0.,0.));
#1446=DIRECTION('',(0.,1.,0.));
#1447=DIRECTION('',(-1.,0.,0.));
#1448=DIRECTION('',(0.,0.,1.));
#1449=DIRECTION('',(1.,0.,0.));
#1450=DIRECTION('',(1.,0.,0.));
#1451=DIRECTION('',(0.,1.,0.));
#1452=DIRECTION('',(1.,0.,0.));
#1453=DIRECTION('',(0.,-1.,0.));
#1454=DIRECTION('',(0.,0.,1.));
#1455=DIRECTION('',(1.,0.,0.));
#1456=DIRECTION('',(0.,1.,0.));
#1457=DIRECTION('',(-1.,0.,0.));
#1458=DIRECTION('',(0.,1.,0.));
#1459=DIRECTION('',(-1.,0.,0.));
#1460=DIRECTION('',(0.,0.,1.));
#1461=DIRECTION('',(1.,0.,0.));
#1462=DIRECTION('',(-1.,0.,0.));
#1463=DIRECTION('',(0.,1.,0.));
#1464=DIRECTION('',(-1.,0.,0.));
#1465=DIRECTION('',(0.,-1.,0.));
#1466=DIRECTION('',(0.,0.,1.));
#1467=DIRECTION('',(1.,0.,0.));
#1468=DIRECTION('',(0.,1.,0.));
#1469=DIRECTION('',(1.,0.,0.));
#1470=DIRECTION('',(0.,1.,0.));
#1471=DIRECTION('',(1.,0.,0.));
#1472=DIRECTION('',(0.,0.,1.));
#1473=DIRECTION('',(1.,0.,0.));
#1474=DIRECTION('',(0.,1.,0.));
#1475=DIRECTION('',(-1.,0.,0.));
#1476=DIRECTION('',(0.,-1.,0.));
#1477=DIRECTION('',(-1.,0.,0.));
#1478=DIRECTION('',(0.,1.,0.));
#1479=DIRECTION('',(0.,0.,1.));
#1480=DIRECTION('',(1.,0.,0.));
#1481=DIRECTION('',(0.,0.,-1.));
#1482=DIRECTION('',(1.,0.,0.));
#1483=DIRECTION('',(0.,0.,-1.));
#1484=DIRECTION('',(1.,0.,0.));
#1485=DIRECTION('',(0.,0.,-1.));
#1486=DIRECTION('',(0.,0.,-1.));
#1487=DIRECTION('',(1.,0.,0.));
#1488=DIRECTION('',(0.,0.,-1.));
#1489=DIRECTION('',(0.,-1.,0.));
#1490=DIRECTION('',(0.,0.,-1.));
#1491=DIRECTION('',(0.,-1.,0.));
#1492=DIRECTION('',(0.,0.,-1.));
#1493=DIRECTION('',(0.,-1.,0.));
#1494=DIRECTION('',(0.,0.,-1.));
#1495=DIRECTION('',(-1.,0.,0.));
#1496=DIRECTION('',(0.,0.,1.));
#1497=DIRECTION('',(0.,1.,0.));
#1498=DIRECTION('',(0.,0.,-1.));
#1499=DIRECTION('',(0.,0.,-1.));
#1500=DIRECTION('',(0.,0.,1.));
#1501=DIRECTION('',(1.,0.,0.));
#1502=DIRECTION('',(0.,0.,-1.));
#1503=DIRECTION('',(0.,0.,1.));
#1504=DIRECTION('',(-1.,1.02482125350026E-13,0.));
#1505=DIRECTION('',(-1.,0.,0.));
#1506=DIRECTION('',(0.,0.,1.));
#1507=DIRECTION('',(0.,1.,0.));
#1508=DIRECTION('',(0.,0.,-1.));
#1509=DIRECTION('',(0.,0.,-1.));
#1510=DIRECTION('',(0.,0.,-1.));
#1511=DIRECTION('',(0.,0.,-1.));
#1512=DIRECTION('',(-1.,0.,0.));
#1513=DIRECTION('',(0.,0.,-1.));
#1514=DIRECTION('',(-1.,0.,0.));
#1515=DIRECTION('',(0.,0.,-1.));
#1516=DIRECTION('',(0.,0.,-1.));
#1517=DIRECTION('',(0.,0.,-1.));
#1518=DIRECTION('',(-1.,0.,0.));
#1519=DIRECTION('',(0.,0.,-1.));
#1520=DIRECTION('',(1.,0.,0.));
#1521=DIRECTION('',(0.,0.,-1.));
#1522=DIRECTION('',(0.,-1.,0.));
#1523=DIRECTION('',(0.,0.,-1.));
#1524=DIRECTION('',(0.,0.,-1.));
#1525=DIRECTION('',(0.,-1.,0.));
#1526=DIRECTION('',(0.,0.,-1.));
#1527=DIRECTION('',(-1.,0.,0.));
#1528=DIRECTION('',(0.,0.,-1.));
#1529=DIRECTION('',(0.,0.,-1.));
#1530=DIRECTION('',(-1.,0.,0.));
#1531=DIRECTION('',(0.,0.,-1.));
#1532=DIRECTION('',(0.,0.,-1.));
#1533=DIRECTION('',(-1.,0.,0.));
#1534=DIRECTION('',(0.,0.,1.));
#1535=DIRECTION('',(0.,1.,0.));
#1536=DIRECTION('',(0.,0.,-1.));
#1537=DIRECTION('',(0.,0.,-1.));
#1538=DIRECTION('',(0.,0.,-1.));
#1539=DIRECTION('',(-1.,0.,0.));
#1540=DIRECTION('',(0.,0.,-1.));
#1541=DIRECTION('',(-0.538461538461557,-0.842650088469474,0.));
#1542=DIRECTION('',(0.,0.,-1.));
#1543=DIRECTION('',(0.,0.,-1.));
#1544=DIRECTION('',(0.,0.,-1.));
#1545=DIRECTION('',(-6.83214169000102E-14,1.,0.));
#1546=DIRECTION('',(0.,0.,-1.));
#1547=DIRECTION('',(0.,1.,0.));
#1548=DIRECTION('',(0.,0.,1.));
#1549=DIRECTION('',(1.,0.,0.));
#1550=DIRECTION('',(0.,0.,-1.));
#1551=DIRECTION('',(1.,0.,0.));
#1552=DIRECTION('',(0.,0.,-1.));
#1553=DIRECTION('',(1.,0.,0.));
#1554=DIRECTION('',(0.,0.,-1.));
#1555=DIRECTION('',(0.,-1.,0.));
#1556=DIRECTION('',(0.,0.,-1.));
#1557=DIRECTION('',(0.,-1.,0.));
#1558=DIRECTION('',(0.,1.,0.));
#1559=DIRECTION('',(0.,0.,1.));
#1560=DIRECTION('',(1.,0.,0.));
#1561=DIRECTION('',(0.,0.,-1.));
#1562=DIRECTION('',(1.,0.,0.));
#1563=DIRECTION('',(1.,0.,0.));
#1564=DIRECTION('',(0.,0.,-1.));
#1565=DIRECTION('',(0.,-1.,0.));
#1566=DIRECTION('',(0.,0.,-1.));
#1567=DIRECTION('',(0.,0.,-1.));
#1568=DIRECTION('',(0.,0.,-1.));
#1569=DIRECTION('',(0.,0.,-1.));
#1570=DIRECTION('',(-1.,0.,0.));
#1571=DIRECTION('',(0.,0.,1.));
#1572=DIRECTION('',(1.,0.,0.));
#1573=DIRECTION('',(0.,0.,-1.));
#1574=DIRECTION('',(0.,0.,-1.));
#1575=DIRECTION('',(0.,0.,1.));
#1576=DIRECTION('',(1.,0.,0.));
#1577=DIRECTION('',(0.,0.,-1.));
#1578=DIRECTION('',(-1.,0.,0.));
#1579=DIRECTION('',(0.,0.,1.));
#1580=DIRECTION('',(0.,1.,0.));
#1581=DIRECTION('',(0.,0.,-1.));
#1582=DIRECTION('',(0.,0.,-1.));
#1583=DIRECTION('',(1.,0.,0.));
#1584=DIRECTION('',(0.,0.,-1.));
#1585=DIRECTION('',(0.,-1.,0.));
#1586=DIRECTION('',(0.,0.,-1.));
#1587=DIRECTION('',(0.,-1.,0.));
#1588=DIRECTION('',(0.,0.,-1.));
#1589=DIRECTION('',(0.,-1.,0.));
#1590=DIRECTION('',(0.,0.,-1.));
#1591=DIRECTION('',(-1.,0.,0.));
#1592=DIRECTION('',(0.,0.,-1.));
#1593=DIRECTION('',(-1.,0.,0.));
#1594=DIRECTION('',(1.,0.,0.));
#1595=DIRECTION('',(0.,0.,-1.));
#1596=DIRECTION('',(0.,-1.,0.));
#1597=DIRECTION('',(0.,0.,-1.));
#1598=DIRECTION('',(0.,-1.,0.));
#1599=DIRECTION('',(0.,0.,-1.));
#1600=DIRECTION('',(-1.,0.,0.));
#1601=DIRECTION('',(0.,0.,1.));
#1602=DIRECTION('',(0.484122918275924,0.875,0.));
#1603=DIRECTION('',(0.,0.,1.));
#1604=DIRECTION('',(1.,0.,0.));
#1605=DIRECTION('',(0.,-1.,0.));
#1606=DIRECTION('',(0.,0.,-1.));
#1607=DIRECTION('',(-1.,0.,0.));
#1608=DIRECTION('',(0.,0.,-1.));
#1609=DIRECTION('',(-1.,0.,0.));
#1610=DIRECTION('',(0.,0.,-1.));
#1611=DIRECTION('',(1.,0.,0.));
#1612=DIRECTION('',(0.,0.,-1.));
#1613=DIRECTION('',(0.,-1.,0.));
#1614=DIRECTION('',(0.,0.,-1.));
#1615=DIRECTION('',(-1.,0.,0.));
#1616=DIRECTION('',(0.,0.,1.));
#1617=DIRECTION('',(0.,1.,0.));
#1618=DIRECTION('',(0.,1.,0.));
#1619=DIRECTION('',(0.,1.,0.));
#1620=DIRECTION('',(0.,0.,1.));
#1621=DIRECTION('',(1.,0.,0.));
#1622=DIRECTION('',(0.,0.,-1.));
#1623=DIRECTION('',(1.,0.,0.));
#1624=DIRECTION('',(0.,0.,-1.));
#1625=DIRECTION('',(0.,1.,0.));
#1626=DIRECTION('',(0.,0.,1.));
#1627=DIRECTION('',(1.,0.,0.));
#1628=DIRECTION('',(1.,0.,0.));
#1629=DIRECTION('',(0.,0.,-1.));
#1630=DIRECTION('',(-1.,0.,0.));
#1631=DIRECTION('',(0.,0.,1.));
#1632=DIRECTION('',(-0.484122918275957,0.874999999999984,0.));
#1633=DIRECTION('',(0.,0.,1.));
#1634=DIRECTION('',(1.,0.,0.));
#1635=DIRECTION('',(-1.,0.,0.));
#1636=DIRECTION('',(0.,0.,1.));
#1637=DIRECTION('',(0.,1.,0.));
#1638=DIRECTION('',(0.,0.,-1.));
#1639=DIRECTION('',(0.,0.,1.));
#1640=DIRECTION('',(1.,0.,0.));
#1641=DIRECTION('',(1.,0.,0.));
#1642=DIRECTION('',(0.,1.,0.));
#1643=DIRECTION('',(0.,0.,1.));
#1644=DIRECTION('',(1.,0.,0.));
#1645=DIRECTION('',(0.,1.,0.));
#1646=DIRECTION('',(0.,0.,1.));
#1647=DIRECTION('',(0.,0.,-1.));
#1648=DIRECTION('',(-1.,0.,0.));
#1649=DIRECTION('',(0.,0.,1.));
#1650=DIRECTION('',(0.,1.,0.));
#1651=DIRECTION('',(-1.,0.,0.));
#1652=DIRECTION('',(0.,0.,1.));
#1653=DIRECTION('',(0.,0.,-1.));
#1654=DIRECTION('',(0.,1.,0.));
#1655=DIRECTION('',(0.,1.,0.));
#1656=DIRECTION('',(0.,1.,0.));
#1657=DIRECTION('',(0.,0.,1.));
#1658=DIRECTION('',(1.,0.,0.));
#1659=DIRECTION('',(0.,-1.,0.));
#1660=DIRECTION('',(0.,0.,-1.));
#1661=DIRECTION('',(0.,0.,-1.));
#1662=DIRECTION('',(-1.,0.,0.));
#1663=DIRECTION('',(0.,0.,1.));
#1664=DIRECTION('',(0.,1.,0.));
#1665=DIRECTION('',(-1.,0.,0.));
#1666=DIRECTION('',(0.,0.,1.));
#1667=DIRECTION('',(0.,0.,-1.));
#1668=DIRECTION('',(0.,1.,0.));
#1669=DIRECTION('',(0.,-1.,0.));
#1670=DIRECTION('',(0.,0.,-1.));
#1671=DIRECTION('',(0.,-1.,0.));
#1672=DIRECTION('',(0.,0.,-1.));
#1673=DIRECTION('',(0.,0.,-1.));
#1674=DIRECTION('',(-1.,0.,0.));
#1675=DIRECTION('',(0.,0.,1.));
#1676=DIRECTION('',(0.,1.,0.));
#1677=DIRECTION('',(-1.,0.,0.));
#1678=DIRECTION('',(0.,0.,1.));
#1679=DIRECTION('',(0.,0.,-1.));
#1680=DIRECTION('',(0.,1.,0.));
#1681=DIRECTION('',(0.,-1.,0.));
#1682=DIRECTION('',(0.,0.,-1.));
#1683=DIRECTION('',(0.,1.,0.));
#1684=DIRECTION('',(0.,0.,1.));
#1685=DIRECTION('',(0.,0.,-1.));
#1686=DIRECTION('',(-1.,0.,0.));
#1687=DIRECTION('',(0.,0.,1.));
#1688=DIRECTION('',(0.,1.,0.));
#1689=DIRECTION('',(-1.,0.,0.));
#1690=DIRECTION('',(0.,0.,1.));
#1691=DIRECTION('',(0.,0.,-1.));
#1692=DIRECTION('',(0.,1.,0.));
#1693=DIRECTION('',(0.,1.,0.));
#1694=DIRECTION('',(0.,0.,1.));
#1695=DIRECTION('',(0.,0.,1.));
#1696=DIRECTION('',(1.,0.,0.));
#1697=DIRECTION('',(0.,0.,1.));
#1698=DIRECTION('',(1.,0.,0.));
#1699=DIRECTION('',(0.,0.,1.));
#1700=DIRECTION('',(1.,0.,0.));
#1701=DIRECTION('',(0.,0.,-1.));
#1702=DIRECTION('',(-1.,0.,0.));
#1703=DIRECTION('',(0.,0.,1.));
#1704=DIRECTION('',(1.,0.,0.));
#1705=DIRECTION('',(0.,0.,1.));
#1706=DIRECTION('',(1.,0.,0.));
#1707=DIRECTION('',(0.,0.,-1.));
#1708=DIRECTION('',(-1.,0.,0.));
#1709=DIRECTION('',(0.,0.,1.));
#1710=DIRECTION('',(1.,0.,0.));
#1711=DIRECTION('',(0.,0.,1.));
#1712=DIRECTION('',(1.,0.,0.));
#1713=DIRECTION('',(0.,0.,1.));
#1714=DIRECTION('',(1.,0.,0.));
#1715=CARTESIAN_POINT('',(0.,0.,0.));
#1716=CARTESIAN_POINT('',(-0.531967217560881,0.333668832612555,0.003));
#1717=CARTESIAN_POINT('',(-0.549467217560881,0.351918832612555,0.003));
#1718=CARTESIAN_POINT('',(-0.550217217560881,0.351918832612555,0.003));
#1719=CARTESIAN_POINT('',(-0.548717217560881,0.351918832612555,0.003));
#1720=CARTESIAN_POINT('',(-0.548717217560881,0.355543832612555,0.003));
#1721=CARTESIAN_POINT('',(-0.548717217560881,0.357168832612555,0.003));
#1722=CARTESIAN_POINT('',(-0.551967217560881,0.357168832612555,0.003));
#1723=CARTESIAN_POINT('',(-0.550217217560881,0.354430219825029,0.003));
#1724=CARTESIAN_POINT('',(-0.550217217560881,0.352918832612555,0.003));
#1725=CARTESIAN_POINT('',(-0.531967217560881,0.333668832612555,0.003));
#1726=CARTESIAN_POINT('',(-0.50946721756088,0.351918832612555,0.003));
#1727=CARTESIAN_POINT('',(-0.508717217560881,0.351918832612555,0.003));
#1728=CARTESIAN_POINT('',(-0.510217217560881,0.351918832612555,0.003));
#1729=CARTESIAN_POINT('',(-0.508717217560881,0.355543832612555,0.003));
#1730=CARTESIAN_POINT('',(-0.508717217560881,0.357168832612555,0.003));
#1731=CARTESIAN_POINT('',(-0.51196721756088,0.357168832612555,0.003));
#1732=CARTESIAN_POINT('',(-0.510217217560881,0.354430219825029,0.003));
#1733=CARTESIAN_POINT('',(-0.510217217560881,0.354174526218792,0.003));
#1734=CARTESIAN_POINT('',(-0.531967217560881,0.333668832612555,0.003));
#1735=CARTESIAN_POINT('',(-0.555217217560881,0.352918832612555,0.003));
#1736=CARTESIAN_POINT('',(-0.555217217560881,0.351918832612555,0.003));
#1737=CARTESIAN_POINT('',(-0.555217217560881,0.357168832612555,0.003));
#1738=CARTESIAN_POINT('',(-0.554467217560881,0.351918832612555,0.003));
#1739=CARTESIAN_POINT('',(-0.553717217560881,0.351918832612555,0.003));
#1740=CARTESIAN_POINT('',(-0.553717217560881,0.352918832612555,0.003));
#1741=CARTESIAN_POINT('',(-0.553717217560881,0.354430219825029,0.003));
#1742=CARTESIAN_POINT('',(-0.551967217560881,0.357168832612555,0.003));
#1743=CARTESIAN_POINT('',(-0.531967217560881,0.333668832612555,0.003));
#1744=CARTESIAN_POINT('',(-0.515217217560881,0.349418832612555,0.003));
#1745=CARTESIAN_POINT('',(-0.515217217560881,0.351918832612555,0.003));
#1746=CARTESIAN_POINT('',(-0.515217217560881,0.357168832612555,0.003));
#1747=CARTESIAN_POINT('',(-0.51446721756088,0.351918832612555,0.003));
#1748=CARTESIAN_POINT('',(-0.51371721756088,0.351918832612555,0.003));
#1749=CARTESIAN_POINT('',(-0.51371721756088,0.354174526218792,0.003));
#1750=CARTESIAN_POINT('',(-0.51371721756088,0.354430219825029,0.003));
#1751=CARTESIAN_POINT('',(-0.51196721756088,0.357168832612555,0.003));
#1752=CARTESIAN_POINT('',(-0.531967217560881,0.333668832612555,0.003));
#1753=CARTESIAN_POINT('',(-0.50946721756088,0.311918832612555,0.003));
#1754=CARTESIAN_POINT('',(-0.508717217560881,0.311918832612555,0.003));
#1755=CARTESIAN_POINT('',(-0.51021721756088,0.311918832612555,0.003));
#1756=CARTESIAN_POINT('',(-0.508717217560881,0.315543832612555,0.003));
#1757=CARTESIAN_POINT('',(-0.508717217560881,0.317168832612555,0.003));
#1758=CARTESIAN_POINT('',(-0.511967217560881,0.317168832612555,0.003));
#1759=CARTESIAN_POINT('',(-0.51021721756088,0.314430219825029,0.003));
#1760=CARTESIAN_POINT('',(-0.51021721756088,0.312918832612555,0.003));
#1761=CARTESIAN_POINT('',(-0.531967217560881,0.333668832612555,0.003));
#1762=CARTESIAN_POINT('',(-0.515217217560881,0.309418832612555,0.003));
#1763=CARTESIAN_POINT('',(-0.515217217560881,0.311918832612555,0.003));
#1764=CARTESIAN_POINT('',(-0.515217217560881,0.317168832612555,0.003));
#1765=CARTESIAN_POINT('',(-0.514467217560881,0.311918832612555,0.003));
#1766=CARTESIAN_POINT('',(-0.513717217560881,0.311918832612555,0.003));
#1767=CARTESIAN_POINT('',(-0.513717217560881,0.314174526218792,0.003));
#1768=CARTESIAN_POINT('',(-0.513717217560881,0.314430219825029,0.003));
#1769=CARTESIAN_POINT('',(-0.511967217560881,0.317168832612555,0.003));
#1770=CARTESIAN_POINT('',(-0.531967217560881,0.333668832612555,0.003));
#1771=CARTESIAN_POINT('',(-0.549467217560881,0.311918832612555,0.003));
#1772=CARTESIAN_POINT('',(-0.55021721756088,0.311918832612555,0.003));
#1773=CARTESIAN_POINT('',(-0.548717217560881,0.311918832612555,0.003));
#1774=CARTESIAN_POINT('',(-0.548717217560881,0.315543832612555,0.003));
#1775=CARTESIAN_POINT('',(-0.548717217560881,0.317168832612555,0.003));
#1776=CARTESIAN_POINT('',(-0.551967217560881,0.317168832612555,0.003));
#1777=CARTESIAN_POINT('',(-0.55021721756088,0.314430219825029,0.003));
#1778=CARTESIAN_POINT('',(-0.55021721756088,0.312918832612555,0.003));
#1779=CARTESIAN_POINT('',(-0.531967217560881,0.333668832612555,0.0015));
#1780=CARTESIAN_POINT('',(-0.550217217560881,0.352918832612555,0.0015));
#1781=CARTESIAN_POINT('',(-0.550217217560881,0.346918832612555,0.0015));
#1782=CARTESIAN_POINT('',(-0.550217217560881,0.351918832612555,0.0015));
#1783=CARTESIAN_POINT('',(-0.552842217560881,0.346918832612555,0.0015));
#1784=CARTESIAN_POINT('',(-0.548717217560881,0.346918832612555,0.0015));
#1785=CARTESIAN_POINT('',(-0.548717217560881,0.349418832612555,0.0015));
#1786=CARTESIAN_POINT('',(-0.548717217560881,0.351918832612555,0.0015));
#1787=CARTESIAN_POINT('',(-0.549467217560881,0.351918832612555,0.0015));
#1788=CARTESIAN_POINT('',(-0.531967217560881,0.333668832612555,0.0015));
#1789=CARTESIAN_POINT('',(-0.51371721756088,0.349418832612555,0.0015));
#1790=CARTESIAN_POINT('',(-0.51371721756088,0.346918832612555,0.0015));
#1791=CARTESIAN_POINT('',(-0.51371721756088,0.351918832612555,0.0015));
#1792=CARTESIAN_POINT('',(-0.51446721756088,0.351918832612555,0.0015));
#1793=CARTESIAN_POINT('',(-0.515217217560881,0.351918832612555,0.0015));
#1794=CARTESIAN_POINT('',(-0.515217217560881,0.349418832612555,0.0015));
#1795=CARTESIAN_POINT('',(-0.515217217560881,0.346918832612555,0.0015));
#1796=CARTESIAN_POINT('',(-0.509467217560881,0.346918832612555,0.0015));
#1797=CARTESIAN_POINT('',(-0.531967217560881,0.333668832612555,0.0015));
#1798=CARTESIAN_POINT('',(-0.554467217560881,0.351918832612555,0.0015));
#1799=CARTESIAN_POINT('',(-0.555217217560881,0.351918832612555,0.0015));
#1800=CARTESIAN_POINT('',(-0.553717217560881,0.351918832612555,0.0015));
#1801=CARTESIAN_POINT('',(-0.555217217560881,0.349418832612555,0.0015));
#1802=CARTESIAN_POINT('',(-0.555217217560881,0.346918832612555,0.0015));
#1803=CARTESIAN_POINT('',(-0.552842217560881,0.346918832612555,0.0015));
#1804=CARTESIAN_POINT('',(-0.553717217560881,0.346918832612555,0.0015));
#1805=CARTESIAN_POINT('',(-0.553717217560881,0.352918832612555,0.0015));
#1806=CARTESIAN_POINT('',(-0.531967217560881,0.333668832612555,0.0015));
#1807=CARTESIAN_POINT('',(-0.513717217560881,0.309418832612555,0.0015));
#1808=CARTESIAN_POINT('',(-0.513717217560881,0.306918832612555,0.0015));
#1809=CARTESIAN_POINT('',(-0.513717217560881,0.311918832612555,0.0015));
#1810=CARTESIAN_POINT('',(-0.514467217560881,0.311918832612555,0.0015));
#1811=CARTESIAN_POINT('',(-0.515217217560881,0.311918832612555,0.0015));
#1812=CARTESIAN_POINT('',(-0.515217217560881,0.309418832612555,0.0015));
#1813=CARTESIAN_POINT('',(-0.515217217560881,0.306918832612555,0.0015));
#1814=CARTESIAN_POINT('',(-0.50946721756088,0.306918832612555,0.0015));
#1815=CARTESIAN_POINT('',(-0.531967217560881,0.333668832612555,0.0015));
#1816=CARTESIAN_POINT('',(-0.509467217560881,0.346918832612555,0.0015));
#1817=CARTESIAN_POINT('',(-0.508717217560881,0.346918832612555,0.0015));
#1818=CARTESIAN_POINT('',(-0.510217217560881,0.346918832612555,0.0015));
#1819=CARTESIAN_POINT('',(-0.508717217560881,0.349418832612555,0.0015));
#1820=CARTESIAN_POINT('',(-0.508717217560881,0.351918832612555,0.0015));
#1821=CARTESIAN_POINT('',(-0.50946721756088,0.351918832612555,0.0015));
#1822=CARTESIAN_POINT('',(-0.510217217560881,0.351918832612555,0.0015));
#1823=CARTESIAN_POINT('',(-0.510217217560881,0.354174526218792,0.0015));
#1824=CARTESIAN_POINT('',(-0.531967217560881,0.333668832612555,0.0015));
#1825=CARTESIAN_POINT('',(-0.55021721756088,0.309418832612555,0.0015));
#1826=CARTESIAN_POINT('',(-0.55021721756088,0.306918832612555,0.0015));
#1827=CARTESIAN_POINT('',(-0.55021721756088,0.311918832612555,0.0015));
#1828=CARTESIAN_POINT('',(-0.551967217560881,0.306918832612555,0.0015));
#1829=CARTESIAN_POINT('',(-0.548717217560881,0.306918832612555,0.0015));
#1830=CARTESIAN_POINT('',(-0.548717217560881,0.309418832612555,0.0015));
#1831=CARTESIAN_POINT('',(-0.548717217560881,0.311918832612555,0.0015));
#1832=CARTESIAN_POINT('',(-0.549467217560881,0.311918832612555,0.0015));
#1833=CARTESIAN_POINT('',(-0.531967217560881,0.333668832612555,0.0015));
#1834=CARTESIAN_POINT('',(-0.508717217560881,0.309418832612555,0.0015));
#1835=CARTESIAN_POINT('',(-0.508717217560881,0.306918832612555,0.0015));
#1836=CARTESIAN_POINT('',(-0.508717217560881,0.311918832612555,0.0015));
#1837=CARTESIAN_POINT('',(-0.50946721756088,0.311918832612555,0.0015));
#1838=CARTESIAN_POINT('',(-0.51021721756088,0.311918832612555,0.0015));
#1839=CARTESIAN_POINT('',(-0.51021721756088,0.309418832612555,0.0015));
#1840=CARTESIAN_POINT('',(-0.51021721756088,0.306918832612555,0.0015));
#1841=CARTESIAN_POINT('',(-0.50946721756088,0.306918832612555,0.0015));
#1842=CARTESIAN_POINT('',(-0.551967217560881,0.306918832612555,0.0015));
#1843=CARTESIAN_POINT('',(-0.551967217560881,0.306918832612555,0.));
#1844=CARTESIAN_POINT('',(-0.553717217560881,0.306918832612555,0.));
#1845=CARTESIAN_POINT('',(-0.55021721756088,0.306918832612555,0.));
#1846=CARTESIAN_POINT('',(-0.553717217560881,0.306918832612555,0.0015));
#1847=CARTESIAN_POINT('',(-0.553717217560881,0.306918832612555,0.0015));
#1848=CARTESIAN_POINT('',(-0.551967217560881,0.306918832612555,0.0015));
#1849=CARTESIAN_POINT('',(-0.555217217560881,0.306918832612555,0.0015));
#1850=CARTESIAN_POINT('',(-0.555217217560881,0.306918832612555,0.003));
#1851=CARTESIAN_POINT('',(-0.555217217560881,0.306918832612555,0.0055));
#1852=CARTESIAN_POINT('',(-0.551967217560881,0.306918832612555,0.0055));
#1853=CARTESIAN_POINT('',(-0.548717217560881,0.306918832612555,0.0055));
#1854=CARTESIAN_POINT('',(-0.548717217560881,0.306918832612555,0.003));
#1855=CARTESIAN_POINT('',(-0.55021721756088,0.306918832612555,0.0015));
#1856=CARTESIAN_POINT('',(-0.553717217560881,0.314174526218792,0.0015));
#1857=CARTESIAN_POINT('',(-0.553717217560881,0.314174526218792,0.));
#1858=CARTESIAN_POINT('',(-0.553717217560881,0.314430219825029,0.));
#1859=CARTESIAN_POINT('',(-0.553717217560881,0.314430219825029,0.0015));
#1860=CARTESIAN_POINT('',(-0.553717217560881,0.314430219825029,0.003));
#1861=CARTESIAN_POINT('',(-0.553717217560881,0.312918832612555,0.003));
#1862=CARTESIAN_POINT('',(-0.553717217560881,0.311918832612555,0.003));
#1863=CARTESIAN_POINT('',(-0.553717217560881,0.311918832612555,0.003));
#1864=CARTESIAN_POINT('',(-0.553717217560881,0.311918832612555,0.0015));
#1865=CARTESIAN_POINT('',(-0.553717217560881,0.314174526218792,0.0015));
#1866=CARTESIAN_POINT('',(-0.551967217560881,0.317168832612555,0.0015));
#1867=CARTESIAN_POINT('',(-0.551967217560881,0.317168832612555,0.));
#1868=CARTESIAN_POINT('',(-0.55021721756088,0.314430219825029,0.));
#1869=CARTESIAN_POINT('',(-0.55021721756088,0.314430219825029,0.0015));
#1870=CARTESIAN_POINT('',(-0.548717217560881,0.317168832612555,0.0055));
#1871=CARTESIAN_POINT('',(-0.548717217560881,0.317168832612555,0.0055));
#1872=CARTESIAN_POINT('',(-0.551967217560881,0.317168832612555,0.0055));
#1873=CARTESIAN_POINT('',(-0.555217217560881,0.317168832612555,0.0055));
#1874=CARTESIAN_POINT('',(-0.555217217560881,0.317168832612555,0.0055));
#1875=CARTESIAN_POINT('',(-0.555217217560881,0.317168832612555,0.003));
#1876=CARTESIAN_POINT('',(-0.551967217560881,0.317168832612555,0.003));
#1877=CARTESIAN_POINT('',(-0.51371721756088,0.349418832612555,0.0015));
#1878=CARTESIAN_POINT('',(-0.51371721756088,0.349418832612555,0.));
#1879=CARTESIAN_POINT('',(-0.51371721756088,0.346918832612555,0.));
#1880=CARTESIAN_POINT('',(-0.51371721756088,0.354430219825029,0.));
#1881=CARTESIAN_POINT('',(-0.51371721756088,0.354430219825029,0.0015));
#1882=CARTESIAN_POINT('',(-0.51371721756088,0.351918832612555,0.003));
#1883=CARTESIAN_POINT('',(-0.51371721756088,0.346918832612555,0.0015));
#1884=CARTESIAN_POINT('',(-0.511967217560881,0.357168832612555,0.0015));
#1885=CARTESIAN_POINT('',(-0.511967217560881,0.357168832612555,0.));
#1886=CARTESIAN_POINT('',(-0.510217217560881,0.354430219825029,0.));
#1887=CARTESIAN_POINT('',(-0.510217217560881,0.354430219825029,0.0015));
#1888=CARTESIAN_POINT('',(-0.508717217560881,0.357168832612555,0.0055));
#1889=CARTESIAN_POINT('',(-0.508717217560881,0.357168832612555,0.0055));
#1890=CARTESIAN_POINT('',(-0.511967217560881,0.357168832612555,0.0055));
#1891=CARTESIAN_POINT('',(-0.515217217560881,0.357168832612555,0.0055));
#1892=CARTESIAN_POINT('',(-0.515217217560881,0.357168832612555,0.0055));
#1893=CARTESIAN_POINT('',(-0.510217217560881,0.354174526218792,0.0015));
#1894=CARTESIAN_POINT('',(-0.510217217560881,0.354174526218792,0.));
#1895=CARTESIAN_POINT('',(-0.510217217560881,0.346918832612555,0.));
#1896=CARTESIAN_POINT('',(-0.510217217560881,0.346918832612555,0.0015));
#1897=CARTESIAN_POINT('',(-0.510217217560881,0.351918832612555,0.003));
#1898=CARTESIAN_POINT('',(-0.511967217560881,0.306918832612555,0.0015));
#1899=CARTESIAN_POINT('',(-0.511967217560881,0.306918832612555,0.));
#1900=CARTESIAN_POINT('',(-0.51021721756088,0.306918832612555,0.));
#1901=CARTESIAN_POINT('',(-0.513717217560881,0.306918832612555,0.));
#1902=CARTESIAN_POINT('',(-0.513717217560881,0.306918832612555,0.0015));
#1903=CARTESIAN_POINT('',(-0.515217217560881,0.306918832612555,0.003));
#1904=CARTESIAN_POINT('',(-0.515217217560881,0.306918832612555,0.0055));
#1905=CARTESIAN_POINT('',(-0.50946721756088,0.306918832612555,0.0055));
#1906=CARTESIAN_POINT('',(-0.508717217560881,0.306918832612555,0.0055));
#1907=CARTESIAN_POINT('',(-0.508717217560881,0.306918832612555,0.003));
#1908=CARTESIAN_POINT('',(-0.51021721756088,0.306918832612555,0.0015));
#1909=CARTESIAN_POINT('',(-0.513717217560881,0.309418832612555,0.0015));
#1910=CARTESIAN_POINT('',(-0.513717217560881,0.309418832612555,0.));
#1911=CARTESIAN_POINT('',(-0.513717217560881,0.314430219825029,0.));
#1912=CARTESIAN_POINT('',(-0.513717217560881,0.314430219825029,0.0015));
#1913=CARTESIAN_POINT('',(-0.513717217560881,0.311918832612555,0.003));
#1914=CARTESIAN_POINT('',(-0.511967217560881,0.317168832612555,0.0015));
#1915=CARTESIAN_POINT('',(-0.511967217560881,0.317168832612555,0.));
#1916=CARTESIAN_POINT('',(-0.51021721756088,0.314430219825029,0.));
#1917=CARTESIAN_POINT('',(-0.51021721756088,0.314430219825029,0.0015));
#1918=CARTESIAN_POINT('',(-0.508717217560881,0.317168832612555,0.0055));
#1919=CARTESIAN_POINT('',(-0.508717217560881,0.317168832612555,0.0055));
#1920=CARTESIAN_POINT('',(-0.511967217560881,0.317168832612555,0.0055));
#1921=CARTESIAN_POINT('',(-0.515217217560881,0.317168832612555,0.0055));
#1922=CARTESIAN_POINT('',(-0.515217217560881,0.317168832612555,0.0055));
#1923=CARTESIAN_POINT('',(-0.531967217560881,0.322418832612555,0.0015));
#1924=CARTESIAN_POINT('',(-0.531967217560881,0.322418832612555,0.));
#1925=CARTESIAN_POINT('',(-0.546717217560881,0.322418832612555,0.));
#1926=CARTESIAN_POINT('',(-0.517217217560881,0.322418832612555,0.));
#1927=CARTESIAN_POINT('',(-0.546717217560881,0.322418832612555,0.0015));
#1928=CARTESIAN_POINT('',(-0.546717217560881,0.322418832612555,0.0055));
#1929=CARTESIAN_POINT('',(-0.531967217560881,0.322418832612555,0.0055));
#1930=CARTESIAN_POINT('',(-0.517217217560881,0.322418832612555,0.0055));
#1931=CARTESIAN_POINT('',(-0.517217217560881,0.322418832612555,0.0015));
#1932=CARTESIAN_POINT('',(-0.546717217560881,0.333668832612555,0.0015));
#1933=CARTESIAN_POINT('',(-0.546717217560881,0.333668832612555,0.));
#1934=CARTESIAN_POINT('',(-0.546717217560881,0.344918832612555,0.));
#1935=CARTESIAN_POINT('',(-0.546717217560881,0.344918832612555,0.0015));
#1936=CARTESIAN_POINT('',(-0.546717217560881,0.344918832612555,0.0055));
#1937=CARTESIAN_POINT('',(-0.546717217560881,0.333668832612555,0.0055));
#1938=CARTESIAN_POINT('',(-0.531967217560881,0.344918832612555,0.0015));
#1939=CARTESIAN_POINT('',(-0.531967217560881,0.344918832612555,0.));
#1940=CARTESIAN_POINT('',(-0.517217217560881,0.344918832612555,0.));
#1941=CARTESIAN_POINT('',(-0.517217217560881,0.344918832612555,0.0015));
#1942=CARTESIAN_POINT('',(-0.517217217560881,0.344918832612555,0.0055));
#1943=CARTESIAN_POINT('',(-0.531967217560881,0.344918832612555,0.0055));
#1944=CARTESIAN_POINT('',(-0.553717217560881,0.352918832612555,0.0015));
#1945=CARTESIAN_POINT('',(-0.553717217560881,0.352918832612555,0.));
#1946=CARTESIAN_POINT('',(-0.553717217560881,0.354430219825029,0.));
#1947=CARTESIAN_POINT('',(-0.553717217560881,0.346918832612555,0.));
#1948=CARTESIAN_POINT('',(-0.553717217560881,0.354430219825029,0.0015));
#1949=CARTESIAN_POINT('',(-0.553717217560881,0.351918832612555,0.003));
#1950=CARTESIAN_POINT('',(-0.553717217560881,0.346918832612555,0.0015));
#1951=CARTESIAN_POINT('',(-0.551967217560881,0.357168832612555,0.0015));
#1952=CARTESIAN_POINT('',(-0.551967217560881,0.357168832612555,0.));
#1953=CARTESIAN_POINT('',(-0.550217217560881,0.354430219825029,0.));
#1954=CARTESIAN_POINT('',(-0.550217217560881,0.354430219825029,0.0015));
#1955=CARTESIAN_POINT('',(-0.548717217560881,0.357168832612555,0.0055));
#1956=CARTESIAN_POINT('',(-0.548717217560881,0.357168832612555,0.0055));
#1957=CARTESIAN_POINT('',(-0.551967217560881,0.357168832612555,0.0055));
#1958=CARTESIAN_POINT('',(-0.555217217560881,0.357168832612555,0.0055));
#1959=CARTESIAN_POINT('',(-0.555217217560881,0.357168832612555,0.0055));
#1960=CARTESIAN_POINT('',(-0.550217217560881,0.352918832612555,0.0015));
#1961=CARTESIAN_POINT('',(-0.550217217560881,0.352918832612555,0.));
#1962=CARTESIAN_POINT('',(-0.550217217560881,0.346918832612555,0.));
#1963=CARTESIAN_POINT('',(-0.550217217560881,0.346918832612555,0.0015));
#1964=CARTESIAN_POINT('',(-0.550217217560881,0.351918832612555,0.003));
#1965=CARTESIAN_POINT('',(-0.557217217560881,0.353668832612555,0.0015));
#1966=CARTESIAN_POINT('',(-0.557217217560881,0.353668832612555,0.));
#1967=CARTESIAN_POINT('',(-0.557217217560881,0.362418832612555,0.));
#1968=CARTESIAN_POINT('',(-0.557217217560881,0.304918832612555,0.));
#1969=CARTESIAN_POINT('',(-0.557217217560881,0.304918832612555,0.0015));
#1970=CARTESIAN_POINT('',(-0.557217217560881,0.304918832612555,0.0055));
#1971=CARTESIAN_POINT('',(-0.557217217560881,0.353668832612555,0.0055));
#1972=CARTESIAN_POINT('',(-0.557217217560881,0.362418832612555,0.0055));
#1973=CARTESIAN_POINT('',(-0.557217217560881,0.362418832612555,0.0015));
#1974=CARTESIAN_POINT('',(-0.531967217560881,0.304918832612555,0.0015));
#1975=CARTESIAN_POINT('',(-0.531967217560881,0.304918832612555,0.));
#1976=CARTESIAN_POINT('',(-0.506717217560881,0.304918832612555,0.));
#1977=CARTESIAN_POINT('',(-0.506717217560881,0.304918832612555,0.0015));
#1978=CARTESIAN_POINT('',(-0.506717217560881,0.304918832612555,0.0055));
#1979=CARTESIAN_POINT('',(-0.511967217560881,0.304918832612555,0.0055));
#1980=CARTESIAN_POINT('',(-0.506717217560881,0.313668832612555,0.0015));
#1981=CARTESIAN_POINT('',(-0.506717217560881,0.313668832612555,0.));
#1982=CARTESIAN_POINT('',(-0.506717217560881,0.362418832612555,0.));
#1983=CARTESIAN_POINT('',(-0.506717217560881,0.362418832612555,0.0015));
#1984=CARTESIAN_POINT('',(-0.506717217560881,0.362418832612555,0.0055));
#1985=CARTESIAN_POINT('',(-0.506717217560881,0.353668832612555,0.0055));
#1986=CARTESIAN_POINT('',(-0.531967217560881,0.353668832612554,0.0015));
#1987=CARTESIAN_POINT('',(-0.531967217560881,0.353668832612554,0.));
#1988=CARTESIAN_POINT('',(-0.530030725887777,0.357168832612555,0.));
#1989=CARTESIAN_POINT('',(-0.531967217560881,0.353668832612554,0.003));
#1990=CARTESIAN_POINT('',(-0.527967217560881,0.353668832612554,0.003));
#1991=CARTESIAN_POINT('',(-0.512842217560881,0.346918832612555,0.0015));
#1992=CARTESIAN_POINT('',(-0.512842217560881,0.346918832612555,0.));
#1993=CARTESIAN_POINT('',(-0.515217217560881,0.346918832612555,0.003));
#1994=CARTESIAN_POINT('',(-0.515217217560881,0.346918832612555,0.0055));
#1995=CARTESIAN_POINT('',(-0.509467217560881,0.346918832612555,0.0055));
#1996=CARTESIAN_POINT('',(-0.508717217560881,0.346918832612555,0.0055));
#1997=CARTESIAN_POINT('',(-0.508717217560881,0.346918832612555,0.003));
#1998=CARTESIAN_POINT('',(-0.51021721756088,0.309418832612555,0.0015));
#1999=CARTESIAN_POINT('',(-0.51021721756088,0.309418832612555,0.));
#2000=CARTESIAN_POINT('',(-0.51021721756088,0.311918832612555,0.003));
#2001=CARTESIAN_POINT('',(-0.517217217560881,0.333668832612555,0.0015));
#2002=CARTESIAN_POINT('',(-0.517217217560881,0.333668832612555,0.));
#2003=CARTESIAN_POINT('',(-0.517217217560881,0.333668832612555,0.0055));
#2004=CARTESIAN_POINT('',(-0.552842217560881,0.346918832612555,0.0015));
#2005=CARTESIAN_POINT('',(-0.552842217560881,0.346918832612555,0.));
#2006=CARTESIAN_POINT('',(-0.555217217560881,0.346918832612555,0.003));
#2007=CARTESIAN_POINT('',(-0.555217217560881,0.346918832612555,0.0055));
#2008=CARTESIAN_POINT('',(-0.551092217560881,0.346918832612555,0.0055));
#2009=CARTESIAN_POINT('',(-0.548717217560881,0.346918832612555,0.0055));
#2010=CARTESIAN_POINT('',(-0.548717217560881,0.346918832612555,0.003));
#2011=CARTESIAN_POINT('',(-0.551967217560881,0.362418832612555,0.0015));
#2012=CARTESIAN_POINT('',(-0.551967217560881,0.362418832612555,0.));
#2013=CARTESIAN_POINT('',(-0.551967217560881,0.362418832612555,0.0055));
#2014=CARTESIAN_POINT('',(-0.531967217560881,0.313668832612555,0.0015));
#2015=CARTESIAN_POINT('',(-0.531967217560881,0.313668832612555,0.));
#2016=CARTESIAN_POINT('',(-0.533903709233985,0.317168832612555,0.));
#2017=CARTESIAN_POINT('',(-0.531967217560881,0.313668832612555,0.003));
#2018=CARTESIAN_POINT('',(-0.527967217560881,0.313668832612555,0.003));
#2019=CARTESIAN_POINT('',(-0.55021721756088,0.309418832612555,0.0015));
#2020=CARTESIAN_POINT('',(-0.55021721756088,0.309418832612555,0.));
#2021=CARTESIAN_POINT('',(-0.55021721756088,0.311918832612555,0.003));
#2022=CARTESIAN_POINT('',(-0.531967217560881,0.333668832612555,0.0015));
#2023=CARTESIAN_POINT('',(-0.554467217560881,0.311918832612555,0.0015));
#2024=CARTESIAN_POINT('',(-0.555217217560881,0.311918832612555,0.0015));
#2025=CARTESIAN_POINT('',(-0.555217217560881,0.309418832612555,0.0015));
#2026=CARTESIAN_POINT('',(-0.531967217560881,0.333668832612555,0.));
#2027=CARTESIAN_POINT('',(-0.549467217560881,0.311918832612555,0.003));
#2028=CARTESIAN_POINT('',(-0.548717217560881,0.311918832612555,0.003));
#2029=CARTESIAN_POINT('',(-0.548717217560881,0.309418832612555,0.003));
#2030=CARTESIAN_POINT('',(-0.548717217560881,0.315543832612555,0.0055));
#2031=CARTESIAN_POINT('',(-0.555217217560881,0.309418832612555,0.003));
#2032=CARTESIAN_POINT('',(-0.555217217560881,0.311918832612555,0.003));
#2033=CARTESIAN_POINT('',(-0.555217217560881,0.311918832612555,0.003));
#2034=CARTESIAN_POINT('',(-0.555217217560881,0.309418832612555,0.003));
#2035=CARTESIAN_POINT('',(-0.555217217560881,0.309418832612555,0.0055));
#2036=CARTESIAN_POINT('',(-0.554467217560881,0.311918832612555,0.003));
#2037=CARTESIAN_POINT('',(-0.554467217560881,0.311918832612555,0.003));
#2038=CARTESIAN_POINT('',(-0.50946721756088,0.311918832612555,0.003));
#2039=CARTESIAN_POINT('',(-0.508717217560881,0.311918832612555,0.003));
#2040=CARTESIAN_POINT('',(-0.508717217560881,0.309418832612555,0.003));
#2041=CARTESIAN_POINT('',(-0.508717217560881,0.315543832612555,0.0055));
#2042=CARTESIAN_POINT('',(-0.515217217560881,0.309418832612555,0.003));
#2043=CARTESIAN_POINT('',(-0.515217217560881,0.311918832612555,0.003));
#2044=CARTESIAN_POINT('',(-0.515217217560881,0.309418832612555,0.0055));
#2045=CARTESIAN_POINT('',(-0.514467217560881,0.311918832612555,0.003));
#2046=CARTESIAN_POINT('',(-0.50946721756088,0.351918832612555,0.003));
#2047=CARTESIAN_POINT('',(-0.508717217560881,0.351918832612555,0.003));
#2048=CARTESIAN_POINT('',(-0.508717217560881,0.349418832612555,0.003));
#2049=CARTESIAN_POINT('',(-0.508717217560881,0.355543832612555,0.0055));
#2050=CARTESIAN_POINT('',(-0.515217217560881,0.349418832612555,0.003));
#2051=CARTESIAN_POINT('',(-0.515217217560881,0.351918832612555,0.003));
#2052=CARTESIAN_POINT('',(-0.515217217560881,0.349418832612555,0.0055));
#2053=CARTESIAN_POINT('',(-0.51446721756088,0.351918832612555,0.003));
#2054=CARTESIAN_POINT('',(-0.549467217560881,0.351918832612555,0.003));
#2055=CARTESIAN_POINT('',(-0.548717217560881,0.351918832612555,0.003));
#2056=CARTESIAN_POINT('',(-0.548717217560881,0.349418832612555,0.003));
#2057=CARTESIAN_POINT('',(-0.548717217560881,0.355543832612555,0.0055));
#2058=CARTESIAN_POINT('',(-0.555217217560881,0.349418832612555,0.003));
#2059=CARTESIAN_POINT('',(-0.555217217560881,0.351918832612555,0.003));
#2060=CARTESIAN_POINT('',(-0.555217217560881,0.352918832612555,0.0055));
#2061=CARTESIAN_POINT('',(-0.554467217560881,0.351918832612555,0.003));
#2062=CARTESIAN_POINT('',(-0.531967217560881,0.333668832612555,0.003));
#2063=CARTESIAN_POINT('',(-0.531967217560881,0.333668832612555,0.003));
#2064=CARTESIAN_POINT('',(-0.531967217560881,0.353668832612555,0.003));
#2065=CARTESIAN_POINT('',(-0.529967217560881,0.353668832612555,0.003));
#2066=CARTESIAN_POINT('',(-0.531967217560881,0.313668832612555,0.0055));
#2067=CARTESIAN_POINT('',(-0.531967217560881,0.313668832612555,0.0055));
#2068=CARTESIAN_POINT('',(-0.529967217560881,0.313668832612555,0.0055));
#2069=CARTESIAN_POINT('',(-0.531967217560881,0.313668832612555,0.003));
#2070=CARTESIAN_POINT('',(-0.529967217560881,0.313668832612555,0.003));
#2071=CARTESIAN_POINT('',(-0.531967217560881,0.353668832612555,0.0055));
#2072=CARTESIAN_POINT('',(-0.531967217560881,0.353668832612555,0.0055));
#2073=CARTESIAN_POINT('',(-0.529967217560881,0.353668832612555,0.0055));
#2074=CARTESIAN_POINT('',(-0.531967217560881,0.333668832612555,0.0055));
#2075=CARTESIAN_POINT('',(-0.531967217560881,0.333668832612555,0.003));
#2076=MECHANICAL_DESIGN_GEOMETRIC_PRESENTATION_REPRESENTATION('',(#1285),
#2077);
#2077=(
GEOMETRIC_REPRESENTATION_CONTEXT(3)
GLOBAL_UNCERTAINTY_ASSIGNED_CONTEXT((#2078))
GLOBAL_UNIT_ASSIGNED_CONTEXT((#2081,#2080,#2079))
REPRESENTATION_CONTEXT('Base','TOP_LEVEL_ASSEMBLY_PART')
);
#2078=UNCERTAINTY_MEASURE_WITH_UNIT(LENGTH_MEASURE(1.E-8),#2081,
'DISTANCE_ACCURACY_VALUE','Maximum Tolerance applied to model');
#2079=(
NAMED_UNIT(*)
SI_UNIT($,.STERADIAN.)
SOLID_ANGLE_UNIT()
);
#2080=(
NAMED_UNIT(*)
PLANE_ANGLE_UNIT()
SI_UNIT($,.RADIAN.)
);
#2081=(
LENGTH_UNIT()
NAMED_UNIT(*)
SI_UNIT($,.METRE.)
);
#2082=PRODUCT_DEFINITION_SHAPE('','',#2083);
#2083=PRODUCT_DEFINITION('','',#2085,#2084);
#2084=PRODUCT_DEFINITION_CONTEXT('',#2091,'design');
#2085=PRODUCT_DEFINITION_FORMATION_WITH_SPECIFIED_SOURCE('','',#2087,
 .NOT_KNOWN.);
#2086=PRODUCT_RELATED_PRODUCT_CATEGORY('','',(#2087));
#2087=PRODUCT('Base','Base','Base',(#2089));
#2088=PRODUCT_CATEGORY('','');
#2089=PRODUCT_CONTEXT('',#2091,'mechanical');
#2090=APPLICATION_PROTOCOL_DEFINITION('international standard',
'ap242_managed_model_based_3d_engineering',2020,#2091);
#2091=APPLICATION_CONTEXT('managed model based 3d engineering');
ENDSEC;
END-ISO-10303-21;
